<?xml version="1.0" encoding="utf-8"?>
<!-- Generator: Adobe Illustrator 24.0.0, SVG Export Plug-In . SVG Version: 6.00 Build 0)  -->
<svg version="1.1" id="Capa_1" xmlns="http://www.w3.org/2000/svg" xmlns:xlink="http://www.w3.org/1999/xlink" x="0px" y="0px"
	 viewBox="0 0 2184 270" style="enable-background:new 0 0 2184 270;" xml:space="preserve">
<style type="text/css">
	.st0{fill:url(#Elipse_2_1_);}
	.st1{clip-path:url(#SVGID_2_);fill:url(#Rectángulo_1_1_);}
	.st2{clip-path:url(#SVGID_2_);fill:url(#SVGID_3_);}
	.st3{clip-path:url(#SVGID_2_);}
	.st4{fill:#FFFFFF;}
	.st5{font-family:'Poppins-Bold';}
	.st6{font-size:79.9844px;}
</style>
<linearGradient id="Elipse_2_1_" gradientUnits="userSpaceOnUse" x1="2582.7058" y1="449" x2="2904.7058" y2="449">
	<stop  offset="0" style="stop-color:#FFFFFF"/>
	<stop  offset="1" style="stop-color:#000000"/>
</linearGradient>
<circle id="Elipse_2" class="st0" cx="2743.7" cy="449" r="161"/>
<text transform="matrix(1 0 0 1 509.3417 -318.229)" class="st4 st5" style="font-size:45.839px;">cuantas personas forman parte de tu comunidad digital</text>
<g>
	<defs>
		<rect id="SVGID_1_" x="-14" y="-15" width="2212" height="300"/>
	</defs>
	<clipPath id="SVGID_2_">
		<use xlink:href="#SVGID_1_"  style="overflow:visible;"/>
	</clipPath>
	
		<linearGradient id="Rectángulo_1_1_" gradientUnits="userSpaceOnUse" x1="1480.4155" y1="283.4005" x2="3653.1213" y2="1113.5181">
		<stop  offset="0" style="stop-color:#E86D1D"/>
		<stop  offset="1" style="stop-color:#000000"/>
	</linearGradient>
	<rect id="Rectángulo_1" x="-14" y="-15" class="st1" width="2212" height="300"/>
	
		<linearGradient id="SVGID_3_" gradientUnits="userSpaceOnUse" x1="-121.2016" y1="-1850.5284" x2="502.2215" y2="-1850.5284" gradientTransform="matrix(-0.7197 -0.6943 0.6943 -0.7197 1436.8856 -1273.9257)">
		<stop  offset="0" style="stop-color:#E8891D"/>
		<stop  offset="1" style="stop-color:#E06E1C"/>
	</linearGradient>
	<path class="st2" d="M219.2,118.1c69.7,8.7,119.1-77.1,88-145c-6.3-13.7-21.3-36.6-26.9-45.9c-42.9-71.7,30.9-121.4,14.8-194.2
		c-16.1-72.8-84.9-64.7-128.4-63.9c-87.3,1.5-103.2-104.3-180.4-66.5c-34,16.6-76.2,66-97.9,97.2c-69.5,99.8-71.4,98.4-150.9,113.8
		c-32.6,6.3-61.5,14.4-84.6,38.7c-36.9,38.9-30.7,88.4-0.1,119.6c101.4,103.7,102.2,70.4,137.4,182.8
		c13.1,41.7,33.5,80.5,71.9,100.9c44.6,23.8,100.6,19.5,126.4-23.2c26.1-43.1,31.3-98.6,74.7-98c43.3,0.7,75,42.9,111.2,9.1
		c4.4-4.1,13.3-16.2,19.6-22.1C201.8,114.1,209.1,116.8,219.2,118.1z"/>
	<g class="st3">
		<text transform="matrix(1 0 0 1 233.124 108.2109)"><tspan x="0" y="0" class="st4 st5 st6">Estamos trabajando para mostrarte</tspan><tspan x="-27.7" y="96" class="st4 st5 st6">nuevas estadísticas en tu dashboard </tspan></text>
	</g>
	<g class="st3">
		<path class="st4" d="M52.9,238.2l-15-15l15-15l15,15L52.9,238.2z M39,223.3l13.9,13.9l13.9-13.9l-13.9-13.9L39,223.3z"/>
	</g>
	<g class="st3">
		<path class="st4" d="M1729.2,422.2c-11.3-14.2-22.9-28.9-29.5-46.2c-7.3-19.2-6.4-39.1,2.5-53.3c12.7-20.3,39.2-26.9,58-30.1
			c2.8-0.5,5.7-0.9,8.6-1.4c19.3-3.1,39.2-6.3,54.7-17.9c12-9,19.9-22.2,27.6-35c6.9-11.4,14-23.1,23.9-32.1
			c35.5-31.9,92-17,122.5-5.3c6.3,2.4,12.7,5,18.9,7.5c33.9,13.7,69,27.9,104.5,21.4c16.9-3.1,30.3-10.9,37.8-22
			c8.9-13.1,7.8-31.5-2.3-41c-10.6-10-27.2-9.2-41.8-8.6l-2.6,0.1c-15,0.6-34.4-1.7-41.4-16.4l-0.1-0.3l0.3-0.2
			c8.5-6.2,18.2-13.2,23.5-23.1c4.9-9.2,5.4-22.9-3.4-30.2c-10.1-8.5-25.4-3.7-36.4,1.9c-8.2,4.1-16.2,8.8-24,13.4
			c-10.7,6.3-21.8,12.8-33.4,17.8c-13.7,5.8-40.2,14-63.6,3.3c-11.1-5.1-20.2-15.1-24.4-26.8c-3.4-9.5-3.1-19.3,0.9-27.4
			c9.8-19.9,35.1-24.7,58.2-27.7c43.1-5.6,91.3-15.8,122.1-49c22.4-24.2,32.6-59.4,26.7-91.8c-5.9-32.4-28-61.7-57.5-76.4l0.4-0.8
			c29.8,14.8,52,44.3,58,77c6,32.7-4.3,68.1-26.9,92.5c-30.9,33.4-79.3,43.7-122.6,49.3c-22.8,3-47.9,7.8-57.5,27.2
			c-3.9,7.9-4.2,17.4-0.9,26.7c4.1,11.5,13.1,21.4,24,26.4c23.2,10.6,49.4,2.4,63-3.3c11.6-4.9,22.6-11.4,33.3-17.7
			c7.8-4.6,15.8-9.3,24-13.4c11.2-5.6,26.9-10.5,37.3-1.7c9.1,7.6,8.7,21.8,3.6,31.3c-5.4,10-15,17-23.5,23.2
			c6.9,14,25.8,16.2,40.4,15.6l2.6-0.1c14.8-0.7,31.5-1.4,42.4,8.8c10.4,9.8,11.5,28.7,2.5,42.1c-7.6,11.2-21.2,19.2-38.4,22.4
			c-35.7,6.6-70.9-7.6-105-21.4c-6.2-2.5-12.6-5.1-18.8-7.5c-30.3-11.6-86.5-26.4-121.6,5.1c-9.9,8.9-16.9,20.6-23.8,31.9
			c-7.8,12.8-15.8,26.1-27.9,35.2c-15.6,11.8-35.7,15-55.1,18.1c-2.9,0.5-5.7,0.9-8.6,1.4c-18.6,3.2-44.9,9.7-57.4,29.7
			c-8.7,13.9-9.6,33.6-2.4,52.5c6.5,17.2,18.2,31.8,29.4,46L1729.2,422.2z"/>
	</g>
	<g style="clip-path:url(#SVGID_2_);enable-background:new    ;">
		
			<image style="overflow:visible;" width="323" height="244" id="Capa_3" xlink:href="B8CD9DCB.png"  transform="matrix(1 0 0 1 1842.5588 13)">
		</image>
	</g>
</g>
</svg>
