<?xml version="1.0" encoding="utf-8"?>
<!-- Generator: Adobe Illustrator 24.0.0, SVG Export Plug-In . SVG Version: 6.00 Build 0)  -->
<svg version="1.1" id="Capa_1" xmlns="http://www.w3.org/2000/svg" xmlns:xlink="http://www.w3.org/1999/xlink" x="0px" y="0px"
	 viewBox="0 0 2184 270" style="enable-background:new 0 0 2184 270;" xml:space="preserve">
<style type="text/css">
	.st0{fill:url(#Rectángulo_1_1_);}
	.st1{fill:url(#SVGID_1_);}
	.st2{fill:#FFFFFF;}
	.st3{fill:none;}
	.st4{fill:#211915;}
	.st5{clip-path:url(#SVGID_3_);fill:#C65138;}
	.st6{clip-path:url(#SVGID_3_);}
	.st7{opacity:0.2;}
	.st8{opacity:0.1;clip-path:url(#SVGID_3_);}
	.st9{opacity:0.2;clip-path:url(#SVGID_3_);}
	.st10{opacity:0.1;clip-path:url(#SVGID_3_);fill:#FFEEE3;}
	.st11{opacity:0.1;}
	.st12{fill:#723B2E;}
	.st13{fill:#301A13;}
	.st14{fill:#FF5555;}
	.st15{fill:#E1DCC9;}
	.st16{fill:url(#SVGID_4_);}
	.st17{fill:#E6DEDE;}
	.st18{fill:url(#SVGID_5_);}
	.st19{fill:#017BB3;}
	.st20{fill:#209FF0;}
	.st21{opacity:0.8;}
	.st22{fill:url(#SVGID_6_);}
	.st23{opacity:0.8;fill:#FFFFFF;}
	.st24{fill:none;stroke:#FFFFFF;stroke-width:4;stroke-linecap:round;stroke-miterlimit:10;}
	.st25{fill:#323232;}
	.st26{clip-path:url(#SVGID_8_);}
	.st27{fill:#D94639;}
	.st28{fill:url(#SVGID_9_);}
	.st29{fill:url(#SVGID_10_);}
</style>
<linearGradient id="Rectángulo_1_1_" gradientUnits="userSpaceOnUse" x1="1480.4155" y1="-11.4005" x2="3653.1213" y2="-841.5181" gradientTransform="matrix(1 0 0 -1 0 272)">
	<stop  offset="0" style="stop-color:#E86D1D"/>
	<stop  offset="1" style="stop-color:#000000"/>
</linearGradient>
<rect id="Rectángulo_1" x="-14" y="-15" class="st0" width="2212" height="300"/>
<linearGradient id="SVGID_1_" gradientUnits="userSpaceOnUse" x1="1505.1204" y1="3107.1387" x2="2128.447" y2="3107.1387" gradientTransform="matrix(-0.7197 -0.6943 -0.6943 0.7197 3479.9368 -1049.0833)">
	<stop  offset="0" style="stop-color:#E8891D"/>
	<stop  offset="1" style="stop-color:#E06E1C"/>
</linearGradient>
<path class="st1" d="M219.2,118.1c69.7,8.7,119.1-77.1,88-145c-6.3-13.7-21.3-36.6-26.9-45.9c-42.9-71.7,30.9-121.4,14.8-194.2
	s-84.9-64.7-128.4-63.9c-87.3,1.5-103.2-104.3-180.4-66.5c-34,16.6-76.2,66-97.9,97.2c-69.5,99.8-71.4,98.4-150.9,113.8
	c-32.6,6.3-61.5,14.4-84.6,38.7c-36.9,38.9-30.7,88.4-0.1,119.6C-245.8,75.6-245,42.3-209.8,154.7c13.1,41.7,33.5,80.5,71.9,100.9
	c44.6,23.8,100.6,19.5,126.4-23.2c26.1-43.1,31.3-98.6,74.7-98c43.3,0.7,75,42.9,111.2,9.1c4.4-4.1,13.3-16.2,19.6-22.1
	C201.8,114.1,209.1,116.8,219.2,118.1z"/>
<g>
	<g>
		<path class="st2" d="M251.5,62.5v11.8h19.1v10.3h-19.1v12.6H273v11h-35.2V51.7H273v10.9L251.5,62.5L251.5,62.5z"/>
		<path class="st2" d="M310.6,67.3c3.4,2.8,5.5,6.6,6.4,11.2h-12.8c-0.4-1.8-1.2-3.2-2.5-4.3c-1.3-1-2.9-1.6-4.9-1.6
			c-1.5,0-2.7,0.3-3.5,1s-1.2,1.6-1.2,2.8c0,1.4,0.7,2.4,2.2,3.1s3.8,1.4,6.9,2.1c3.4,0.8,6.2,1.6,8.4,2.4c2.2,0.8,4.1,2.2,5.7,4
			c1.6,1.9,2.4,4.4,2.4,7.5c0,2.6-0.7,4.8-2.1,6.8s-3.4,3.5-6,4.6s-5.7,1.7-9.3,1.7c-6,0-10.9-1.3-14.5-4s-5.8-6.5-6.6-11.4h13.2
			c0.2,1.9,1,3.4,2.4,4.4s3.2,1.5,5.5,1.5c1.5,0,2.7-0.4,3.5-1.1s1.2-1.7,1.2-2.8c0-1.5-0.7-2.7-2.2-3.3c-1.5-0.7-3.9-1.4-7.2-2.1
			c-3.3-0.7-6-1.4-8.2-2.2c-2.1-0.8-4-2.1-5.5-3.9s-2.3-4.2-2.3-7.3c0-4,1.5-7.2,4.6-9.7c3-2.5,7.3-3.7,12.9-3.7
			C302.7,63,307.2,64.4,310.6,67.3z"/>
		<path class="st2" d="M350.5,96.5v11.8h-6.2c-5.2,0-9.3-1.3-12.2-3.9c-2.9-2.6-4.4-6.9-4.4-12.8V75.1h-6V63.6h6v-11h13.7v11h9v11.5
			h-9v16.6c0,1.8,0.4,3,1.1,3.7s1.9,1,3.6,1h4.4V96.5z"/>
		<path class="st2" d="M383.9,65.3c2.5,1.5,4.3,3.7,5.4,6.3v-8.1h13.6v44.6h-13.6V100c-1.2,2.7-3,4.8-5.4,6.3
			c-2.5,1.5-5.4,2.3-8.8,2.3c-3.7,0-7-0.9-9.9-2.8c-2.9-1.8-5.2-4.5-6.9-8c-1.7-3.5-2.5-7.5-2.5-12.2s0.8-8.8,2.5-12.2
			s4-6.1,6.9-7.9c2.9-1.8,6.2-2.8,9.9-2.8C378.5,63,381.4,63.8,383.9,65.3z M372.4,77.9c-1.8,1.9-2.7,4.6-2.7,8s0.9,6.1,2.7,8
			c1.8,1.9,4.1,2.9,7.1,2.9c2.9,0,5.2-1,7.1-3c1.8-2,2.8-4.6,2.8-7.9c0-3.4-0.9-6-2.8-8c-1.8-1.9-4.2-2.9-7.1-2.9
			S374.2,76,372.4,77.9z"/>
		<path class="st2" d="M483.2,68.2c3.1,3.4,4.7,8.1,4.7,14.1v25.9h-13.6V83.9c0-2.8-0.8-5-2.3-6.6s-3.6-2.4-6.2-2.4
			c-2.7,0-4.9,0.8-6.4,2.5c-1.6,1.7-2.4,4-2.4,7.1v23.7h-13.7V83.9c0-2.8-0.7-5-2.2-6.6s-3.5-2.4-6.2-2.4s-4.9,0.8-6.5,2.5
			s-2.4,4-2.4,7.1v23.7h-13.7V63.6H426v7.6c1.2-2.5,3-4.5,5.4-5.9s5.3-2.2,8.5-2.2c3.4,0,6.4,0.8,9,2.4s4.6,3.8,5.9,6.8
			c1.5-2.8,3.7-5,6.4-6.6c2.7-1.7,5.7-2.5,8.9-2.5C475.7,63.1,480,64.8,483.2,68.2z"/>
		<path class="st2" d="M529.7,65.8c3.5,1.8,6.2,4.5,8.2,8s3,7.5,3,12.2c0,4.6-1,8.7-3,12.2s-4.7,6.1-8.2,8
			c-3.5,1.8-7.5,2.8-11.9,2.8s-8.4-0.9-11.9-2.8c-3.5-1.8-6.3-4.5-8.3-8s-3-7.5-3-12.2c0-4.6,1-8.7,3-12.2s4.8-6.1,8.3-8
			c3.5-1.8,7.5-2.8,11.9-2.8C522.3,63,526.2,63.9,529.7,65.8z M511.3,77.7c-1.8,1.9-2.7,4.6-2.7,8.2s0.9,6.3,2.7,8.2
			c1.8,1.9,4,2.8,6.6,2.8s4.8-0.9,6.6-2.8s2.6-4.6,2.6-8.2s-0.9-6.3-2.6-8.2c-1.8-1.9-3.9-2.8-6.6-2.8
			C515.3,74.9,513.1,75.8,511.3,77.7z"/>
		<path class="st2" d="M577.9,67.3c3.4,2.8,5.5,6.6,6.4,11.2h-12.8c-0.4-1.8-1.2-3.2-2.5-4.3c-1.3-1-2.9-1.6-4.9-1.6
			c-1.5,0-2.7,0.3-3.5,1s-1.2,1.6-1.2,2.8c0,1.4,0.7,2.4,2.2,3.1s3.8,1.4,6.9,2.1c3.4,0.8,6.2,1.6,8.4,2.4s4.1,2.2,5.7,4
			c1.6,1.9,2.4,4.4,2.4,7.5c0,2.6-0.7,4.8-2.1,6.8c-1.4,2-3.4,3.5-6,4.6s-5.7,1.7-9.3,1.7c-6,0-10.9-1.3-14.5-4s-5.8-6.5-6.6-11.4
			h13.2c0.2,1.9,1,3.4,2.4,4.4s3.2,1.5,5.5,1.5c1.5,0,2.7-0.4,3.5-1.1s1.2-1.7,1.2-2.8c0-1.5-0.7-2.7-2.2-3.3
			c-1.5-0.7-3.9-1.4-7.2-2.1s-6-1.4-8.2-2.2c-2.1-0.8-4-2.1-5.5-3.9s-2.3-4.2-2.3-7.3c0-4,1.5-7.2,4.6-9.7c3-2.5,7.3-3.7,12.9-3.7
			C570,63,574.5,64.4,577.9,67.3z"/>
		<path class="st2" d="M633.8,96.5v11.8h-6.2c-5.2,0-9.3-1.3-12.2-3.9s-4.4-6.9-4.4-12.8V75.1h-6V63.6h6v-11h13.7v11h9v11.5h-9v16.6
			c0,1.8,0.4,3,1.1,3.7c0.7,0.7,1.9,1,3.6,1h4.4V96.5z"/>
		<path class="st2" d="M661.7,65.5c2.7-1.6,5.6-2.4,8.8-2.4v14.6h-3.9c-3.6,0-6.4,0.8-8.4,2.3s-3,4.2-3,7.8v20.3h-13.7V63.6h13.7V72
			C656.8,69.3,659,67.1,661.7,65.5z"/>
		<path class="st2" d="M702,65.3c2.5,1.5,4.3,3.7,5.4,6.3v-8.1H721v44.6h-13.6V100c-1.2,2.7-3,4.8-5.4,6.3c-2.5,1.5-5.4,2.3-8.8,2.3
			c-3.7,0-7-0.9-9.9-2.8c-2.9-1.8-5.2-4.5-6.9-8s-2.5-7.5-2.5-12.2s0.8-8.8,2.5-12.2s4-6.1,6.9-7.9c2.9-1.8,6.2-2.8,9.9-2.8
			C696.6,63,699.5,63.8,702,65.3z M690.5,77.9c-1.8,1.9-2.7,4.6-2.7,8s0.9,6.1,2.7,8s4.1,2.9,7.1,2.9c2.9,0,5.2-1,7.1-3
			c1.8-2,2.8-4.6,2.8-7.9c0-3.4-0.9-6-2.8-8c-1.8-1.9-4.2-2.9-7.1-2.9S692.3,76,690.5,77.9z"/>
		<path class="st2" d="M768.2,65.8c2.9,1.8,5.2,4.5,6.9,7.9s2.5,7.5,2.5,12.2c0,4.6-0.8,8.7-2.5,12.2s-4,6.1-6.9,8
			c-2.9,1.8-6.2,2.8-9.9,2.8c-3.4,0-6.3-0.8-8.8-2.3s-4.2-3.7-5.4-6.3v8.1h-13.7V49h13.7v22.6c1.1-2.7,2.9-4.8,5.4-6.3
			s5.4-2.3,8.8-2.3C762,63,765.3,63.9,768.2,65.8z M746.8,77.9c-1.8,1.9-2.8,4.6-2.8,8c0,3.3,0.9,5.9,2.8,7.9c1.8,2,4.2,3,7.1,3
			c2.9,0,5.3-1,7.1-2.9s2.7-4.6,2.7-8s-0.9-6.1-2.7-8s-4.1-2.9-7.1-2.9C751,75,748.7,76,746.8,77.9z"/>
		<path class="st2" d="M810.4,65.3c2.5,1.5,4.3,3.7,5.4,6.3v-8.1h13.6v44.6h-13.6V100c-1.2,2.7-3,4.8-5.4,6.3
			c-2.5,1.5-5.4,2.3-8.8,2.3c-3.7,0-7-0.9-9.9-2.8c-2.9-1.8-5.2-4.5-6.9-8s-2.5-7.5-2.5-12.2s0.8-8.8,2.5-12.2s4-6.1,6.9-7.9
			c2.9-1.8,6.2-2.8,9.9-2.8C805.1,63,808,63.8,810.4,65.3z M799,77.9c-1.8,1.9-2.7,4.6-2.7,8s0.9,6.1,2.7,8s4.1,2.9,7.1,2.9
			c2.9,0,5.2-1,7.1-3c1.8-2,2.8-4.6,2.8-7.9c0-3.4-0.9-6-2.8-8c-1.8-1.9-4.2-2.9-7.1-2.9C803.1,75,800.8,76,799,77.9z"/>
		<path class="st2" d="M831.6,117.7h3.4c1.4,0,2.5-0.3,3.1-0.9s1-1.6,1-3.1V63.6h13.8v50c0,10.6-5.3,15.9-16,15.9h-5.2L831.6,117.7
			L831.6,117.7z M840,56.1c-1.5-1.4-2.2-3.1-2.2-5.1c0-2.1,0.7-3.8,2.2-5.2s3.5-2,5.9-2c2.5,0,4.4,0.7,5.9,2
			c1.5,1.4,2.2,3.1,2.2,5.2c0,2-0.7,3.7-2.2,5.1c-1.5,1.4-3.5,2-5.9,2C843.4,58.1,841.5,57.5,840,56.1z"/>
		<path class="st2" d="M887.9,65.3c2.5,1.5,4.3,3.7,5.4,6.3v-8.1h13.6v44.6h-13.6V100c-1.2,2.7-3,4.8-5.4,6.3
			c-2.5,1.5-5.4,2.3-8.8,2.3c-3.7,0-7-0.9-9.9-2.8c-2.9-1.8-5.2-4.5-6.9-8s-2.5-7.5-2.5-12.2s0.8-8.8,2.5-12.2s4-6.1,6.9-7.9
			c2.9-1.8,6.2-2.8,9.9-2.8C882.5,63,885.4,63.8,887.9,65.3z M876.4,77.9c-1.8,1.9-2.7,4.6-2.7,8s0.9,6.1,2.7,8s4.1,2.9,7.1,2.9
			c2.9,0,5.2-1,7.1-3c1.8-2,2.8-4.6,2.8-7.9c0-3.4-0.9-6-2.8-8c-1.8-1.9-4.2-2.9-7.1-2.9C880.5,75,878.2,76,876.4,77.9z"/>
		<path class="st2" d="M956.9,68.2c3,3.4,4.5,8.1,4.5,14.1v25.9h-13.7V83.9c0-3-0.8-5.3-2.4-7c-1.6-1.7-3.7-2.5-6.3-2.5
			c-2.8,0-5,0.9-6.6,2.6c-1.6,1.8-2.4,4.3-2.4,7.5v23.7h-13.7V63.6H930v8.2c1.3-2.7,3.2-4.8,5.7-6.3s5.5-2.3,8.9-2.3
			C949.8,63.1,953.8,64.8,956.9,68.2z"/>
		<path class="st2" d="M996.2,65.3c2.5,1.5,4.2,3.7,5.4,6.3V49h13.7v59.2h-13.7v-8.1c-1.1,2.7-2.9,4.8-5.4,6.3s-5.4,2.3-8.8,2.3
			c-3.7,0-7-0.9-9.9-2.8c-2.9-1.8-5.2-4.5-6.9-8s-2.5-7.5-2.5-12.2s0.8-8.8,2.5-12.2s4-6.1,6.9-7.9c2.9-1.8,6.2-2.8,9.9-2.8
			C990.8,63,993.7,63.8,996.2,65.3z M984.7,77.9c-1.8,1.9-2.7,4.6-2.7,8s0.9,6.1,2.7,8s4.1,2.9,7.1,2.9c2.9,0,5.2-1,7.1-3
			c1.8-2,2.8-4.6,2.8-7.9c0-3.4-0.9-6-2.8-8c-1.8-1.9-4.2-2.9-7.1-2.9C988.8,75,986.5,76,984.7,77.9z"/>
		<path class="st2" d="M1057.4,65.8c3.5,1.8,6.2,4.5,8.2,8s3,7.5,3,12.2c0,4.6-1,8.7-3,12.2s-4.7,6.1-8.2,8
			c-3.5,1.8-7.5,2.8-11.9,2.8s-8.4-0.9-11.9-2.8c-3.5-1.8-6.3-4.5-8.3-8s-3-7.5-3-12.2c0-4.6,1-8.7,3-12.2s4.8-6.1,8.3-8
			c3.5-1.8,7.5-2.8,11.9-2.8C1049.9,63,1053.9,63.9,1057.4,65.8z M1038.9,77.7c-1.8,1.9-2.7,4.6-2.7,8.2s0.9,6.3,2.7,8.2
			c1.8,1.9,4,2.8,6.6,2.8s4.8-0.9,6.6-2.8c1.8-1.9,2.6-4.6,2.6-8.2s-0.9-6.3-2.6-8.2c-1.8-1.9-3.9-2.8-6.6-2.8
			C1042.9,74.9,1040.7,75.8,1038.9,77.7z"/>
		<path class="st2" d="M1129.5,65.8c2.9,1.8,5.2,4.5,6.9,7.9s2.5,7.5,2.5,12.2c0,4.6-0.8,8.7-2.5,12.2s-4,6.1-6.9,8
			c-2.9,1.8-6.2,2.8-9.9,2.8c-3.4,0-6.3-0.8-8.8-2.3s-4.2-3.7-5.4-6.3v29.4h-13.7V63.6h13.7v8.1c1.1-2.7,2.9-4.8,5.4-6.3
			s5.4-2.3,8.8-2.3C1123.3,63,1126.6,63.9,1129.5,65.8z M1108.1,77.9c-1.8,1.9-2.8,4.6-2.8,8c0,3.3,0.9,5.9,2.8,7.9
			c1.8,2,4.2,3,7.1,3s5.3-1,7.1-2.9c1.8-1.9,2.7-4.6,2.7-8s-0.9-6.1-2.7-8c-1.8-1.9-4.1-2.9-7.1-2.9
			C1112.3,75,1109.9,76,1108.1,77.9z"/>
		<path class="st2" d="M1171.7,65.3c2.5,1.5,4.3,3.7,5.4,6.3v-8.1h13.6v44.6h-13.6V100c-1.2,2.7-3,4.8-5.4,6.3
			c-2.5,1.5-5.4,2.3-8.8,2.3c-3.7,0-7-0.9-9.9-2.8c-2.9-1.8-5.2-4.5-6.9-8c-1.7-3.5-2.5-7.5-2.5-12.2s0.8-8.8,2.5-12.2
			s4-6.1,6.9-7.9c2.9-1.8,6.2-2.8,9.9-2.8C1166.3,63,1169.3,63.8,1171.7,65.3z M1160.3,77.9c-1.8,1.9-2.7,4.6-2.7,8s0.9,6.1,2.7,8
			c1.8,1.9,4.1,2.9,7.1,2.9c2.9,0,5.2-1,7.1-3c1.8-2,2.8-4.6,2.8-7.9c0-3.4-0.9-6-2.8-8c-1.8-1.9-4.2-2.9-7.1-2.9
			C1164.4,75,1162,76,1160.3,77.9z"/>
		<path class="st2" d="M1220.5,65.5c2.7-1.6,5.6-2.4,8.8-2.4v14.6h-3.9c-3.6,0-6.4,0.8-8.4,2.3s-3,4.2-3,7.8v20.3h-13.7V63.6h13.7
			V72C1215.6,69.3,1217.8,67.1,1220.5,65.5z"/>
		<path class="st2" d="M1260.8,65.3c2.5,1.5,4.3,3.7,5.4,6.3v-8.1h13.6v44.6h-13.6V100c-1.2,2.7-3,4.8-5.4,6.3
			c-2.5,1.5-5.4,2.3-8.8,2.3c-3.7,0-7-0.9-9.9-2.8c-2.9-1.8-5.2-4.5-6.9-8c-1.7-3.5-2.5-7.5-2.5-12.2s0.8-8.8,2.5-12.2
			s4-6.1,6.9-7.9c2.9-1.8,6.2-2.8,9.9-2.8C1255.4,63,1258.3,63.8,1260.8,65.3z M1249.3,77.9c-1.8,1.9-2.7,4.6-2.7,8s0.9,6.1,2.7,8
			c1.8,1.9,4.1,2.9,7.1,2.9c2.9,0,5.2-1,7.1-3c1.8-2,2.8-4.6,2.8-7.9c0-3.4-0.9-6-2.8-8c-1.8-1.9-4.2-2.9-7.1-2.9
			C1253.4,75,1251.1,76,1249.3,77.9z"/>
		<path class="st2" d="M1376,68.2c3.1,3.4,4.7,8.1,4.7,14.1v25.9h-13.6V83.9c0-2.8-0.8-5-2.3-6.6s-3.6-2.4-6.2-2.4
			c-2.7,0-4.9,0.8-6.4,2.5c-1.6,1.7-2.4,4-2.4,7.1v23.7h-13.7V83.9c0-2.8-0.7-5-2.2-6.6s-3.5-2.4-6.2-2.4s-4.9,0.8-6.5,2.5
			s-2.4,4-2.4,7.1v23.7h-13.7V63.6h13.7v7.6c1.2-2.5,3-4.5,5.4-5.9s5.3-2.2,8.5-2.2c3.4,0,6.4,0.8,9,2.4s4.6,3.8,5.9,6.8
			c1.5-2.8,3.7-5,6.4-6.6c2.7-1.7,5.7-2.5,8.9-2.5C1368.5,63.1,1372.9,64.8,1376,68.2z"/>
		<path class="st2" d="M1422.6,65.8c3.5,1.8,6.2,4.5,8.2,8s3,7.5,3,12.2c0,4.6-1,8.7-3,12.2s-4.7,6.1-8.2,8
			c-3.5,1.8-7.5,2.8-11.9,2.8s-8.4-0.9-11.9-2.8c-3.5-1.8-6.3-4.5-8.3-8s-3-7.5-3-12.2c0-4.6,1-8.7,3-12.2s4.8-6.1,8.3-8
			c3.5-1.8,7.5-2.8,11.9-2.8C1415.1,63,1419.1,63.9,1422.6,65.8z M1404.1,77.7c-1.8,1.9-2.7,4.6-2.7,8.2s0.9,6.3,2.7,8.2
			c1.8,1.9,4,2.8,6.6,2.8s4.8-0.9,6.6-2.8c1.8-1.9,2.6-4.6,2.6-8.2s-0.9-6.3-2.6-8.2c-1.8-1.9-3.9-2.8-6.6-2.8
			C1408.1,74.9,1405.9,75.8,1404.1,77.7z"/>
		<path class="st2" d="M1470.8,67.3c3.4,2.8,5.5,6.6,6.4,11.2h-12.8c-0.4-1.8-1.2-3.2-2.5-4.3c-1.3-1-2.9-1.6-4.9-1.6
			c-1.5,0-2.7,0.3-3.5,1s-1.2,1.6-1.2,2.8c0,1.4,0.7,2.4,2.2,3.1s3.8,1.4,6.9,2.1c3.4,0.8,6.2,1.6,8.4,2.4c2.2,0.8,4.1,2.2,5.7,4
			c1.6,1.9,2.4,4.4,2.4,7.5c0,2.6-0.7,4.8-2.1,6.8s-3.4,3.5-6,4.6s-5.7,1.7-9.3,1.7c-6,0-10.9-1.3-14.5-4s-5.8-6.5-6.6-11.4h13.2
			c0.2,1.9,1,3.4,2.4,4.4s3.2,1.5,5.5,1.5c1.5,0,2.7-0.4,3.5-1.1s1.2-1.7,1.2-2.8c0-1.5-0.7-2.7-2.2-3.3c-1.5-0.7-3.9-1.4-7.2-2.1
			c-3.3-0.7-6-1.4-8.2-2.2s-4-2.1-5.5-3.9s-2.3-4.2-2.3-7.3c0-4,1.5-7.2,4.6-9.7c3-2.5,7.3-3.7,12.9-3.7
			C1462.8,63,1467.4,64.4,1470.8,67.3z"/>
		<path class="st2" d="M1510.6,96.5v11.8h-6.2c-5.2,0-9.3-1.3-12.2-3.9c-2.9-2.6-4.4-6.9-4.4-12.8V75.1h-6V63.6h6v-11h13.7v11h9
			v11.5h-9v16.6c0,1.8,0.4,3,1.1,3.7s1.9,1,3.6,1h4.4V96.5z"/>
		<path class="st2" d="M1538.6,65.5c2.7-1.6,5.6-2.4,8.8-2.4v14.6h-3.9c-3.6,0-6.4,0.8-8.4,2.3s-3,4.2-3,7.8v20.3h-13.7V63.6h13.7
			V72C1533.7,69.3,1535.9,67.1,1538.6,65.5z"/>
		<path class="st2" d="M1578.8,65.3c2.5,1.5,4.3,3.7,5.4,6.3v-8.1h13.6v44.6h-13.6V100c-1.2,2.7-3,4.8-5.4,6.3
			c-2.5,1.5-5.4,2.3-8.8,2.3c-3.7,0-7-0.9-9.9-2.8c-2.9-1.8-5.2-4.5-6.9-8c-1.7-3.5-2.5-7.5-2.5-12.2s0.8-8.8,2.5-12.2
			s4-6.1,6.9-7.9c2.9-1.8,6.2-2.8,9.9-2.8C1573.5,63,1576.4,63.8,1578.8,65.3z M1567.4,77.9c-1.8,1.9-2.7,4.6-2.7,8s0.9,6.1,2.7,8
			c1.8,1.9,4.1,2.9,7.1,2.9c2.9,0,5.2-1,7.1-3c1.8-2,2.8-4.6,2.8-7.9c0-3.4-0.9-6-2.8-8c-1.8-1.9-4.2-2.9-7.1-2.9
			C1571.5,75,1569.2,76,1567.4,77.9z"/>
		<path class="st2" d="M1627.6,65.5c2.7-1.6,5.6-2.4,8.8-2.4v14.6h-3.9c-3.6,0-6.4,0.8-8.4,2.3s-3,4.2-3,7.8v20.3h-13.7V63.6h13.7
			V72C1622.7,69.3,1624.9,67.1,1627.6,65.5z"/>
		<path class="st2" d="M1667.4,96.5v11.8h-6.2c-5.2,0-9.3-1.3-12.2-3.9c-2.9-2.6-4.4-6.9-4.4-12.8V75.1h-6V63.6h6v-11h13.7v11h9
			v11.5h-9v16.6c0,1.8,0.4,3,1.1,3.7s1.9,1,3.6,1h4.4V96.5z"/>
		<path class="st2" d="M1717.1,88.4h-31c0.2,3.4,1,5.8,2.6,7.2c1.5,1.5,3.5,2.2,5.9,2.2c2,0,3.7-0.5,5-1.5s2.2-2.3,2.6-3.9h14.5
			c-0.6,3.1-1.9,6-3.8,8.4c-2,2.5-4.5,4.4-7.5,5.8s-6.4,2.1-10.2,2.1c-4.4,0-8.3-0.9-11.6-2.8c-3.4-1.8-6-4.5-8-8
			c-1.9-3.5-2.9-7.5-2.9-12.2s0.9-8.8,2.8-12.2c1.9-3.4,4.5-6.1,8-7.9c3.4-1.8,7.3-2.8,11.7-2.8c4.4,0,8.3,0.9,11.7,2.7
			c3.4,1.8,6,4.4,7.8,7.6c1.8,3.3,2.8,7.1,2.8,11.3C1717.5,85.8,1717.3,87,1717.1,88.4z M1701.3,76c-1.6-1.5-3.6-2.2-6-2.2
			c-2.5,0-4.6,0.7-6.2,2.2c-1.7,1.5-2.6,3.7-2.8,6.6h17.4C1703.7,79.7,1702.9,77.5,1701.3,76z"/>
		<path class="st2" d="M250.7,164.2c3,3.4,4.5,8.1,4.5,14.1v25.9h-13.7v-24.3c0-3-0.8-5.3-2.4-7c-1.6-1.7-3.7-2.5-6.3-2.5
			c-2.8,0-5,0.9-6.6,2.6c-1.6,1.8-2.4,4.3-2.4,7.5v23.7h-13.7v-44.6h13.7v8.2c1.3-2.7,3.2-4.8,5.7-6.3s5.5-2.3,8.9-2.3
			C243.6,159.1,247.7,160.8,250.7,164.2z"/>
		<path class="st2" d="M308.6,159.6v44.6h-13.8v-8.1c-1.3,2.6-3.2,4.7-5.7,6.2s-5.5,2.3-8.8,2.3c-5.1,0-9.2-1.7-12.2-5.1
			c-3-3.4-4.5-8.1-4.5-14.1v-25.9h13.6v24.2c0,3,0.8,5.4,2.4,7.1c1.6,1.7,3.7,2.5,6.4,2.5c2.8,0,5-0.9,6.6-2.6s2.4-4.3,2.4-7.5
			v-23.7h13.6V159.6z"/>
		<path class="st2" d="M360.1,184.4h-31c0.2,3.4,1,5.8,2.6,7.2c1.5,1.5,3.5,2.2,5.9,2.2c2,0,3.7-0.5,5-1.5s2.2-2.3,2.6-3.9h14.5
			c-0.6,3.1-1.9,6-3.8,8.4c-2,2.5-4.5,4.4-7.5,5.8c-3,1.4-6.4,2.1-10.2,2.1c-4.4,0-8.3-0.9-11.6-2.8c-3.4-1.8-6-4.5-8-8
			c-1.9-3.5-2.9-7.5-2.9-12.2s0.9-8.8,2.8-12.2s4.5-6.1,8-7.9c3.4-1.8,7.3-2.8,11.7-2.8c4.4,0,8.3,0.9,11.7,2.7
			c3.4,1.8,6,4.4,7.8,7.6c1.8,3.3,2.8,7.1,2.8,11.3C360.5,181.8,360.3,183,360.1,184.4z M344.3,172c-1.6-1.5-3.6-2.2-6-2.2
			c-2.5,0-4.6,0.7-6.2,2.2c-1.7,1.5-2.6,3.7-2.8,6.6h17.4C346.7,175.7,345.9,173.5,344.3,172z"/>
		<path class="st2" d="M388.2,190.8l9.7-31.3h14.6l-15.8,44.6h-17l-15.8-44.6h14.6L388.2,190.8z"/>
		<path class="st2" d="M443.9,161.3c2.5,1.5,4.3,3.7,5.4,6.3v-8.1h13.6v44.6h-13.6V196c-1.2,2.7-3,4.8-5.4,6.3
			c-2.5,1.5-5.4,2.3-8.8,2.3c-3.7,0-7-0.9-9.9-2.8c-2.9-1.8-5.2-4.5-6.9-8c-1.7-3.5-2.5-7.5-2.5-12.2s0.8-8.8,2.5-12.2
			s4-6.1,6.9-7.9c2.9-1.8,6.2-2.8,9.9-2.8C438.5,159,441.4,159.8,443.9,161.3z M432.4,173.9c-1.8,1.9-2.7,4.6-2.7,8s0.9,6.1,2.7,8
			c1.8,1.9,4.1,2.9,7.1,2.9c2.9,0,5.2-1,7.1-3c1.8-2,2.8-4.6,2.8-7.9c0-3.4-0.9-6-2.8-8c-1.8-1.9-4.2-2.9-7.1-2.9
			C436.5,171,434.2,172,432.4,173.9z"/>
		<path class="st2" d="M502.1,163.2c3.4,2.8,5.5,6.6,6.4,11.2h-12.8c-0.4-1.8-1.2-3.2-2.5-4.3c-1.3-1-2.9-1.6-4.9-1.6
			c-1.5,0-2.7,0.3-3.5,1s-1.2,1.6-1.2,2.8c0,1.4,0.7,2.4,2.2,3.1c1.5,0.7,3.8,1.4,6.9,2.1c3.4,0.8,6.2,1.6,8.4,2.4
			c2.2,0.8,4.1,2.2,5.7,4c1.6,1.9,2.4,4.4,2.4,7.5c0,2.6-0.7,4.8-2.1,6.8s-3.4,3.5-6,4.6s-5.7,1.7-9.3,1.7c-6,0-10.9-1.3-14.5-4
			s-5.8-6.5-6.6-11.4h13.2c0.2,1.9,1,3.4,2.4,4.4s3.2,1.5,5.5,1.5c1.5,0,2.7-0.4,3.5-1.1c0.8-0.7,1.2-1.7,1.2-2.8
			c0-1.5-0.7-2.7-2.2-3.3c-1.5-0.7-3.9-1.4-7.2-2.1c-3.3-0.7-6-1.4-8.2-2.2c-2.1-0.8-4-2.1-5.5-3.9c-1.5-1.8-2.3-4.2-2.3-7.3
			c0-4,1.5-7.2,4.6-9.7c3-2.5,7.3-3.7,12.9-3.7C494.2,159,498.8,160.4,502.1,163.2z"/>
		<path class="st2" d="M574.7,184.4h-31c0.2,3.4,1,5.8,2.6,7.2c1.5,1.5,3.5,2.2,5.9,2.2c2,0,3.7-0.5,5-1.5s2.2-2.3,2.6-3.9h14.5
			c-0.6,3.1-1.9,6-3.8,8.4c-2,2.5-4.5,4.4-7.5,5.8c-3,1.4-6.4,2.1-10.2,2.1c-4.4,0-8.3-0.9-11.6-2.8c-3.4-1.8-6-4.5-8-8
			c-1.9-3.5-2.9-7.5-2.9-12.2s0.9-8.8,2.8-12.2c1.9-3.4,4.5-6.1,8-7.9c3.4-1.8,7.3-2.8,11.7-2.8s8.3,0.9,11.7,2.7s6,4.4,7.8,7.6
			c1.8,3.3,2.8,7.1,2.8,11.3C575.1,181.8,575,183,574.7,184.4z M558.9,172c-1.6-1.5-3.6-2.2-6-2.2c-2.5,0-4.6,0.7-6.2,2.2
			c-1.7,1.5-2.6,3.7-2.8,6.6h17.4C561.3,175.7,560.6,173.5,558.9,172z"/>
		<path class="st2" d="M612,163.2c3.4,2.8,5.5,6.6,6.4,11.2h-12.8c-0.4-1.8-1.2-3.2-2.5-4.3c-1.3-1-2.9-1.6-4.9-1.6
			c-1.5,0-2.7,0.3-3.5,1s-1.2,1.6-1.2,2.8c0,1.4,0.7,2.4,2.2,3.1c1.5,0.7,3.8,1.4,6.9,2.1c3.4,0.8,6.2,1.6,8.4,2.4
			c2.2,0.8,4.1,2.2,5.7,4c1.6,1.9,2.4,4.4,2.4,7.5c0,2.6-0.7,4.8-2.1,6.8c-1.4,2-3.4,3.5-6,4.6s-5.7,1.7-9.3,1.7
			c-6,0-10.9-1.3-14.5-4s-5.8-6.5-6.6-11.4h13.2c0.2,1.9,1,3.4,2.4,4.4s3.2,1.5,5.5,1.5c1.5,0,2.7-0.4,3.5-1.1
			c0.8-0.7,1.2-1.7,1.2-2.8c0-1.5-0.7-2.7-2.2-3.3c-1.5-0.7-3.9-1.4-7.2-2.1c-3.3-0.7-6-1.4-8.2-2.2c-2.1-0.8-4-2.1-5.5-3.9
			c-1.5-1.8-2.3-4.2-2.3-7.3c0-4,1.5-7.2,4.6-9.7c3-2.5,7.3-3.7,12.9-3.7C604.1,159,608.7,160.4,612,163.2z"/>
		<path class="st2" d="M651.9,192.4v11.8h-6.2c-5.2,0-9.3-1.3-12.2-3.9c-2.9-2.6-4.4-6.9-4.4-12.8v-16.4h-6v-11.5h6v-11h13.7v11h9
			v11.5h-9v16.6c0,1.8,0.4,3,1.1,3.7c0.7,0.7,1.9,1,3.6,1L651.9,192.4L651.9,192.4z"/>
		<path class="st2" d="M685.4,161.3c2.5,1.5,4.3,3.7,5.4,6.3v-8.1h13.6v44.6h-13.6V196c-1.2,2.7-3,4.8-5.4,6.3
			c-2.5,1.5-5.4,2.3-8.8,2.3c-3.7,0-7-0.9-9.9-2.8c-2.9-1.8-5.2-4.5-6.9-8s-2.5-7.5-2.5-12.2s0.8-8.8,2.5-12.2s4-6.1,6.9-7.9
			c2.9-1.8,6.2-2.8,9.9-2.8C680,159,682.9,159.8,685.4,161.3z M673.9,173.9c-1.8,1.9-2.7,4.6-2.7,8s0.9,6.1,2.7,8s4.1,2.9,7.1,2.9
			c2.9,0,5.2-1,7.1-3c1.8-2,2.8-4.6,2.8-7.9c0-3.4-0.9-6-2.8-8c-1.8-1.9-4.2-2.9-7.1-2.9C678,171,675.7,172,673.9,173.9z"/>
		<path class="st2" d="M739.6,161.3c2.5,1.5,4.2,3.7,5.4,6.3V145h13.7v59.2H745v-8.1c-1.1,2.7-2.9,4.8-5.4,6.3s-5.4,2.3-8.8,2.3
			c-3.7,0-7-0.9-9.9-2.8c-2.9-1.8-5.2-4.5-6.9-8s-2.5-7.5-2.5-12.2s0.8-8.8,2.5-12.2s4-6.1,6.9-7.9c2.9-1.8,6.2-2.8,9.9-2.8
			C734.2,159,737.1,159.8,739.6,161.3z M728.1,173.9c-1.8,1.9-2.7,4.6-2.7,8s0.9,6.1,2.7,8s4.1,2.9,7.1,2.9c2.9,0,5.2-1,7.1-3
			c1.8-2,2.8-4.6,2.8-7.9c0-3.4-0.9-6-2.8-8c-1.8-1.9-4.2-2.9-7.1-2.9C732.2,171,729.9,172,728.1,173.9z"/>
		<path class="st2" d="M787.9,148.1l-19.3,8.2V147l19.3-9.3V148.1z M783.3,159.6v44.6h-13.7v-44.6H783.3z"/>
		<path class="st2" d="M824,163.2c3.4,2.8,5.5,6.6,6.4,11.2h-12.8c-0.4-1.8-1.2-3.2-2.5-4.3c-1.3-1-2.9-1.6-4.9-1.6
			c-1.5,0-2.7,0.3-3.5,1s-1.2,1.6-1.2,2.8c0,1.4,0.7,2.4,2.2,3.1c1.5,0.7,3.8,1.4,6.9,2.1c3.4,0.8,6.2,1.6,8.4,2.4
			c2.2,0.8,4.1,2.2,5.7,4c1.6,1.9,2.4,4.4,2.4,7.5c0,2.6-0.7,4.8-2.1,6.8c-1.4,2-3.4,3.5-6,4.6s-5.7,1.7-9.3,1.7
			c-6,0-10.9-1.3-14.5-4s-5.8-6.5-6.6-11.4h13.2c0.2,1.9,1,3.4,2.4,4.4s3.2,1.5,5.5,1.5c1.5,0,2.7-0.4,3.5-1.1
			c0.8-0.7,1.2-1.7,1.2-2.8c0-1.5-0.7-2.7-2.2-3.3c-1.5-0.7-3.9-1.4-7.2-2.1c-3.3-0.7-6-1.4-8.2-2.2c-2.1-0.8-4-2.1-5.5-3.9
			c-1.5-1.8-2.3-4.2-2.3-7.3c0-4,1.5-7.2,4.6-9.7c3-2.5,7.3-3.7,12.9-3.7C816.1,159,820.6,160.4,824,163.2z"/>
		<path class="st2" d="M863.9,192.4v11.8h-6.2c-5.2,0-9.3-1.3-12.2-3.9c-2.9-2.6-4.4-6.9-4.4-12.8v-16.4h-6v-11.5h6v-11h13.7v11h9
			v11.5h-9v16.6c0,1.8,0.4,3,1.1,3.7c0.7,0.7,1.9,1,3.6,1L863.9,192.4L863.9,192.4z"/>
		<path class="st2" d="M872.5,141.8c1.5-1.4,3.5-2,5.9-2c2.5,0,4.4,0.7,5.9,2c1.5,1.4,2.2,3.1,2.2,5.2c0,2-0.7,3.7-2.2,5.1
			c-1.5,1.4-3.5,2-5.9,2c-2.5,0-4.4-0.7-5.9-2c-1.5-1.4-2.2-3.1-2.2-5.1C870.3,144.9,871,143.2,872.5,141.8z M885.2,159.6v44.6
			h-13.7v-44.6H885.2z"/>
		<path class="st2" d="M929.3,163.8c3.9,3.2,6.3,7.5,7.4,13.1h-14.5c-0.4-1.9-1.3-3.4-2.6-4.5s-3-1.6-5-1.6c-2.4,0-4.4,0.9-5.9,2.8
			c-1.5,1.9-2.3,4.7-2.3,8.3s0.8,6.4,2.3,8.3c1.5,1.9,3.5,2.8,5.9,2.8c2,0,3.7-0.5,5-1.6s2.2-2.6,2.6-4.5h14.5
			c-1,5.5-3.5,9.9-7.4,13.1c-3.9,3.2-8.7,4.8-14.5,4.8c-4.4,0-8.3-0.9-11.6-2.8c-3.4-1.8-6-4.5-8-8c-1.9-3.5-2.9-7.5-2.9-12.2
			s0.9-8.8,2.8-12.2c1.9-3.4,4.5-6.1,8-7.9c3.4-1.8,7.3-2.8,11.7-2.8C920.6,159,925.4,160.6,929.3,163.8z"/>
		<path class="st2" d="M969.5,161.3c2.5,1.5,4.3,3.7,5.4,6.3v-8.1h13.6v44.6H975V196c-1.2,2.7-3,4.8-5.4,6.3
			c-2.5,1.5-5.4,2.3-8.8,2.3c-3.7,0-7-0.9-9.9-2.8c-2.9-1.8-5.2-4.5-6.9-8s-2.5-7.5-2.5-12.2s0.8-8.8,2.5-12.2s4-6.1,6.9-7.9
			c2.9-1.8,6.2-2.8,9.9-2.8C964.1,159,967.1,159.8,969.5,161.3z M958.1,173.9c-1.8,1.9-2.7,4.6-2.7,8s0.9,6.1,2.7,8s4.1,2.9,7.1,2.9
			c2.9,0,5.2-1,7.1-3c1.8-2,2.8-4.6,2.8-7.9c0-3.4-0.9-6-2.8-8c-1.8-1.9-4.2-2.9-7.1-2.9C962.2,171,959.8,172,958.1,173.9z"/>
		<path class="st2" d="M1027.8,163.2c3.4,2.8,5.5,6.6,6.4,11.2h-12.8c-0.4-1.8-1.2-3.2-2.5-4.3c-1.3-1-2.9-1.6-4.9-1.6
			c-1.5,0-2.7,0.3-3.5,1s-1.2,1.6-1.2,2.8c0,1.4,0.7,2.4,2.2,3.1c1.5,0.7,3.8,1.4,6.9,2.1c3.4,0.8,6.2,1.6,8.4,2.4
			c2.2,0.8,4.1,2.2,5.7,4c1.6,1.9,2.4,4.4,2.4,7.5c0,2.6-0.7,4.8-2.1,6.8s-3.4,3.5-6,4.6s-5.7,1.7-9.3,1.7c-6,0-10.9-1.3-14.5-4
			s-5.8-6.5-6.6-11.4h13.2c0.2,1.9,1,3.4,2.4,4.4s3.2,1.5,5.5,1.5c1.5,0,2.7-0.4,3.5-1.1c0.8-0.7,1.2-1.7,1.2-2.8
			c0-1.5-0.7-2.7-2.2-3.3c-1.5-0.7-3.9-1.4-7.2-2.1c-3.3-0.7-6-1.4-8.2-2.2c-2.1-0.8-4-2.1-5.5-3.9c-1.5-1.8-2.3-4.2-2.3-7.3
			c0-4,1.5-7.2,4.6-9.7c3-2.5,7.3-3.7,12.9-3.7C1019.9,159,1024.4,160.4,1027.8,163.2z"/>
		<path class="st2" d="M1100.4,184.4h-31c0.2,3.4,1,5.8,2.6,7.2c1.5,1.5,3.5,2.2,5.9,2.2c2,0,3.7-0.5,5-1.5s2.2-2.3,2.6-3.9h14.5
			c-0.6,3.1-1.9,6-3.8,8.4c-2,2.5-4.5,4.4-7.5,5.8c-3,1.4-6.4,2.1-10.2,2.1c-4.4,0-8.3-0.9-11.6-2.8c-3.4-1.8-6-4.5-8-8
			c-1.9-3.5-2.9-7.5-2.9-12.2s0.9-8.8,2.8-12.2s4.5-6.1,8-7.9c3.4-1.8,7.3-2.8,11.7-2.8c4.4,0,8.3,0.9,11.7,2.7
			c3.4,1.8,6,4.4,7.8,7.6s2.8,7.1,2.8,11.3C1100.8,181.8,1100.7,183,1100.4,184.4z M1084.6,172c-1.6-1.5-3.6-2.2-6-2.2
			c-2.5,0-4.6,0.7-6.2,2.2c-1.7,1.5-2.6,3.7-2.8,6.6h17.4C1087,175.7,1086.2,173.5,1084.6,172z"/>
		<path class="st2" d="M1148.4,164.2c3,3.4,4.5,8.1,4.5,14.1v25.9h-13.7v-24.3c0-3-0.8-5.3-2.4-7s-3.7-2.5-6.3-2.5
			c-2.8,0-5,0.9-6.6,2.6c-1.6,1.8-2.4,4.3-2.4,7.5v23.7h-13.7v-44.6h13.7v8.2c1.3-2.7,3.2-4.8,5.7-6.3s5.5-2.3,8.9-2.3
			C1141.3,159.1,1145.4,160.8,1148.4,164.2z"/>
		<path class="st2" d="M1203.2,192.4v11.8h-6.2c-5.2,0-9.3-1.3-12.2-3.9c-2.9-2.6-4.4-6.9-4.4-12.8v-16.4h-6v-11.5h6v-11h13.7v11h9
			v11.5h-9v16.6c0,1.8,0.4,3,1.1,3.7s1.9,1,3.6,1L1203.2,192.4L1203.2,192.4z"/>
		<path class="st2" d="M1255.3,159.6v44.6h-13.8v-8.1c-1.3,2.6-3.2,4.7-5.7,6.2s-5.5,2.3-8.8,2.3c-5.1,0-9.2-1.7-12.2-5.1
			c-3-3.4-4.5-8.1-4.5-14.1v-25.9h13.6v24.2c0,3,0.8,5.4,2.4,7.1c1.6,1.7,3.7,2.5,6.4,2.5c2.8,0,5-0.9,6.6-2.6
			c1.6-1.8,2.4-4.3,2.4-7.5v-23.7h13.6V159.6z"/>
		<path class="st2" d="M1306.5,161.3c2.5,1.5,4.2,3.7,5.4,6.3V145h13.7v59.2h-13.7v-8.1c-1.1,2.7-2.9,4.8-5.4,6.3s-5.4,2.3-8.8,2.3
			c-3.7,0-7-0.9-9.9-2.8c-2.9-1.8-5.2-4.5-6.9-8c-1.7-3.5-2.5-7.5-2.5-12.2s0.8-8.8,2.5-12.2s4-6.1,6.9-7.9c2.9-1.8,6.2-2.8,9.9-2.8
			C1301.1,159,1304,159.8,1306.5,161.3z M1295,173.9c-1.8,1.9-2.7,4.6-2.7,8s0.9,6.1,2.7,8c1.8,1.9,4.1,2.9,7.1,2.9
			c2.9,0,5.2-1,7.1-3c1.8-2,2.8-4.6,2.8-7.9c0-3.4-0.9-6-2.8-8c-1.8-1.9-4.2-2.9-7.1-2.9S1296.8,172,1295,173.9z"/>
		<path class="st2" d="M1360.7,161.3c2.5,1.5,4.3,3.7,5.4,6.3v-8.1h13.6v44.6h-13.6V196c-1.2,2.7-3,4.8-5.4,6.3
			c-2.5,1.5-5.4,2.3-8.8,2.3c-3.7,0-7-0.9-9.9-2.8c-2.9-1.8-5.2-4.5-6.9-8c-1.7-3.5-2.5-7.5-2.5-12.2s0.8-8.8,2.5-12.2
			s4-6.1,6.9-7.9c2.9-1.8,6.2-2.8,9.9-2.8C1355.3,159,1358.3,159.8,1360.7,161.3z M1349.3,173.9c-1.8,1.9-2.7,4.6-2.7,8
			s0.9,6.1,2.7,8c1.8,1.9,4.1,2.9,7.1,2.9c2.9,0,5.2-1,7.1-3c1.8-2,2.8-4.6,2.8-7.9c0-3.4-0.9-6-2.8-8c-1.8-1.9-4.2-2.9-7.1-2.9
			C1353.4,171,1351,172,1349.3,173.9z"/>
		<path class="st2" d="M1419,163.2c3.4,2.8,5.5,6.6,6.4,11.2h-12.8c-0.4-1.8-1.2-3.2-2.5-4.3s-2.9-1.6-4.9-1.6c-1.5,0-2.7,0.3-3.5,1
			s-1.2,1.6-1.2,2.8c0,1.4,0.7,2.4,2.2,3.1c1.5,0.7,3.8,1.4,6.9,2.1c3.4,0.8,6.2,1.6,8.4,2.4c2.2,0.8,4.1,2.2,5.7,4
			c1.6,1.9,2.4,4.4,2.4,7.5c0,2.6-0.7,4.8-2.1,6.8s-3.4,3.5-6,4.6s-5.7,1.7-9.3,1.7c-6,0-10.9-1.3-14.5-4s-5.8-6.5-6.6-11.4h13.2
			c0.2,1.9,1,3.4,2.4,4.4s3.2,1.5,5.5,1.5c1.5,0,2.7-0.4,3.5-1.1s1.2-1.7,1.2-2.8c0-1.5-0.7-2.7-2.2-3.3c-1.5-0.7-3.9-1.4-7.2-2.1
			c-3.3-0.7-6-1.4-8.2-2.2s-4-2.1-5.5-3.9c-1.5-1.8-2.3-4.2-2.3-7.3c0-4,1.5-7.2,4.6-9.7c3-2.5,7.3-3.7,12.9-3.7
			C1411.1,159,1415.6,160.4,1419,163.2z"/>
		<path class="st2" d="M1474.1,164.2c3,3.4,4.5,8.1,4.5,14.1v25.9h-13.7v-24.3c0-3-0.8-5.3-2.4-7s-3.7-2.5-6.3-2.5
			c-2.8,0-5,0.9-6.6,2.6c-1.6,1.8-2.4,4.3-2.4,7.5v23.7h-13.7V145h13.7v22.7c1.3-2.7,3.2-4.8,5.7-6.3s5.5-2.3,8.9-2.3
			C1467,159.1,1471.1,160.8,1474.1,164.2z"/>
		<path class="st2" d="M1525.4,161.8c2.9,1.8,5.2,4.5,6.9,7.9c1.7,3.4,2.5,7.5,2.5,12.2c0,4.6-0.8,8.7-2.5,12.2s-4,6.1-6.9,8
			c-2.9,1.8-6.2,2.8-9.9,2.8c-3.4,0-6.3-0.8-8.8-2.3s-4.2-3.7-5.4-6.3v8.1h-13.7V145h13.7v22.6c1.1-2.7,2.9-4.8,5.4-6.3
			s5.4-2.3,8.8-2.3C1519.2,159,1522.5,159.9,1525.4,161.8z M1504,173.9c-1.8,1.9-2.8,4.6-2.8,8c0,3.3,0.9,5.9,2.8,7.9
			c1.8,2,4.2,3,7.1,3s5.3-1,7.1-2.9c1.8-1.9,2.7-4.6,2.7-8s-0.9-6.1-2.7-8c-1.8-1.9-4.1-2.9-7.1-2.9
			C1508.2,171,1505.9,172,1504,173.9z"/>
		<path class="st2" d="M1574.6,161.8c3.5,1.8,6.2,4.5,8.2,8s3,7.5,3,12.2c0,4.6-1,8.7-3,12.2s-4.7,6.1-8.2,8
			c-3.5,1.8-7.5,2.8-11.9,2.8s-8.4-0.9-11.9-2.8c-3.5-1.8-6.3-4.5-8.3-8s-3-7.5-3-12.2c0-4.6,1-8.7,3-12.2s4.8-6.1,8.3-8
			c3.5-1.8,7.5-2.8,11.9-2.8C1567.2,159,1571.2,159.9,1574.6,161.8z M1556.2,173.7c-1.8,1.9-2.7,4.6-2.7,8.2c0,3.6,0.9,6.3,2.7,8.2
			c1.8,1.9,4,2.8,6.6,2.8s4.8-0.9,6.6-2.8c1.8-1.9,2.6-4.6,2.6-8.2c0-3.6-0.9-6.3-2.6-8.2c-1.8-1.9-3.9-2.8-6.6-2.8
			C1560.2,170.8,1558,171.8,1556.2,173.7z"/>
		<path class="st2" d="M1618.8,161.3c2.5,1.5,4.3,3.7,5.4,6.3v-8.1h13.6v44.6h-13.6V196c-1.2,2.7-3,4.8-5.4,6.3
			c-2.5,1.5-5.4,2.3-8.8,2.3c-3.7,0-7-0.9-9.9-2.8c-2.9-1.8-5.2-4.5-6.9-8c-1.7-3.5-2.5-7.5-2.5-12.2s0.8-8.8,2.5-12.2
			s4-6.1,6.9-7.9c2.9-1.8,6.2-2.8,9.9-2.8C1613.4,159,1616.3,159.8,1618.8,161.3z M1607.3,173.9c-1.8,1.9-2.7,4.6-2.7,8
			s0.9,6.1,2.7,8c1.8,1.9,4.1,2.9,7.1,2.9c2.9,0,5.2-1,7.1-3c1.8-2,2.8-4.6,2.8-7.9c0-3.4-0.9-6-2.8-8c-1.8-1.9-4.2-2.9-7.1-2.9
			C1611.4,171,1609.1,172,1607.3,173.9z"/>
		<path class="st2" d="M1667.5,161.5c2.7-1.6,5.6-2.4,8.8-2.4v14.6h-3.9c-3.6,0-6.4,0.8-8.4,2.3s-3,4.2-3,7.8v20.3h-13.7v-44.6h13.7
			v8.4C1662.6,165.2,1664.8,163.1,1667.5,161.5z"/>
		<path class="st2" d="M1707.8,161.3c2.5,1.5,4.2,3.7,5.4,6.3V145h13.7v59.2h-13.7v-8.1c-1.1,2.7-2.9,4.8-5.4,6.3s-5.4,2.3-8.8,2.3
			c-3.7,0-7-0.9-9.9-2.8c-2.9-1.8-5.2-4.5-6.9-8c-1.7-3.5-2.5-7.5-2.5-12.2s0.8-8.8,2.5-12.2s4-6.1,6.9-7.9c2.9-1.8,6.2-2.8,9.9-2.8
			C1702.4,159,1705.3,159.8,1707.8,161.3z M1696.3,173.9c-1.8,1.9-2.7,4.6-2.7,8s0.9,6.1,2.7,8c1.8,1.9,4.1,2.9,7.1,2.9
			c2.9,0,5.2-1,7.1-3c1.8-2,2.8-4.6,2.8-7.9c0-3.4-0.9-6-2.8-8c-1.8-1.9-4.2-2.9-7.1-2.9C1700.4,171,1698.1,172,1696.3,173.9z"/>
	</g>
</g>
<g>
	<path class="st2" d="M52.9,238.2l-15-15l15-15l15,15L52.9,238.2z M39,223.3l13.9,13.9l13.9-13.9l-13.9-13.9L39,223.3z"/>
</g>
<g>
	<path class="st2" d="M1729.2,422.2c-11.3-14.2-22.9-28.9-29.5-46.2c-7.3-19.2-6.4-39.1,2.5-53.3c12.7-20.3,39.2-26.9,58-30.1
		c2.8-0.5,5.7-0.9,8.6-1.4c19.3-3.1,39.2-6.3,54.7-17.9c12-9,19.9-22.2,27.6-35c6.9-11.4,14-23.1,23.9-32.1
		c35.5-31.9,92-17,122.5-5.3c6.3,2.4,12.7,5,18.9,7.5c33.9,13.7,69,27.9,104.5,21.4c16.9-3.1,30.3-10.9,37.8-22
		c8.9-13.1,7.8-31.5-2.3-41c-10.6-10-27.2-9.2-41.8-8.6l-2.6,0.1c-15,0.6-34.4-1.7-41.4-16.4l-0.1-0.3l0.3-0.2
		c8.5-6.2,18.2-13.2,23.5-23.1c4.9-9.2,5.4-22.9-3.4-30.2c-10.1-8.5-25.4-3.7-36.4,1.9c-8.2,4.1-16.2,8.8-24,13.4
		c-10.7,6.3-21.8,12.8-33.4,17.8c-13.7,5.8-40.2,14-63.6,3.3c-11.1-5.1-20.2-15.1-24.4-26.8c-3.4-9.5-3.1-19.3,0.9-27.4
		c9.8-19.9,35.1-24.7,58.2-27.7c43.1-5.6,91.3-15.8,122.1-49c22.4-24.2,32.6-59.4,26.7-91.8c-5.9-32.4-28-61.7-57.5-76.4l0.4-0.8
		c29.8,14.8,52,44.3,58,77s-4.3,68.1-26.9,92.5c-30.9,33.4-79.3,43.7-122.6,49.3c-22.8,3-47.9,7.8-57.5,27.2
		c-3.9,7.9-4.2,17.4-0.9,26.7c4.1,11.5,13.1,21.4,24,26.4c23.2,10.6,49.4,2.4,63-3.3c11.6-4.9,22.6-11.4,33.3-17.7
		c7.8-4.6,15.8-9.3,24-13.4c11.2-5.6,26.9-10.5,37.3-1.7c9.1,7.6,8.7,21.8,3.6,31.3c-5.4,10-15,17-23.5,23.2
		c6.9,14,25.8,16.2,40.4,15.6l2.6-0.1c14.8-0.7,31.5-1.4,42.4,8.8c10.4,9.8,11.5,28.7,2.5,42.1c-7.6,11.2-21.2,19.2-38.4,22.4
		c-35.7,6.6-70.9-7.6-105-21.4c-6.2-2.5-12.6-5.1-18.8-7.5c-30.3-11.6-86.5-26.4-121.6,5.1c-9.9,8.9-16.9,20.6-23.8,31.9
		c-7.8,12.8-15.8,26.1-27.9,35.2c-15.6,11.8-35.7,15-55.1,18.1c-2.9,0.5-5.7,0.9-8.6,1.4c-18.6,3.2-44.9,9.7-57.4,29.7
		c-8.7,13.9-9.6,33.6-2.4,52.5c6.5,17.2,18.2,31.8,29.4,46L1729.2,422.2z"/>
</g>
<rect x="-14" y="-15" class="st3" width="2212" height="300"/>
<g>
	<g>
		<path class="st4" d="M2064.9,171.8c6.7-0.7,13.3,0.4,19.8-1.8c6-2,11-5.4,16-9.3c6.1-4.8-2.5-13.2-8.5-8.5
			c-3.6,2.9-7.7,5.5-12.2,6.7c-4.9,1.3-10.1,0.3-15.1,0.9C2057.3,160.5,2057.2,172.6,2064.9,171.8L2064.9,171.8z"/>
	</g>
</g>
<g>
	<g>
		<path class="st4" d="M2099.1,152.4c-0.9-1.7-1.4-3.6-1.8-5.6c-0.2-0.9-0.3-1.9-0.5-2.8c-0.1-0.3-0.1-0.3-0.1-0.8
			c0-0.2,0-0.4,0-0.6c-0.1,0.4,0.2-0.1,0,0.1c-0.1,0.1-0.2,0.3-0.4,0.4c-0.1,0-0.2,0.1-0.3,0.1c-0.3,0.1-0.6,0.1-0.9,0
			c-0.1,0.1-0.1-0.1,0.1,0.1c-0.1-0.2,0.1,0.2,0.1,0.2c0.5,0.9,0.8,1.8,1.5,2.5c1.6,1.8,4.2,1.8,6,0.3c0.7-0.6,1.2-1.4,1.7-2.1
			c0.4-0.5,0.6-0.8,1.2-1.1c1.1-0.6,2.4-0.8,3.4-0.3c2.3,1,2.8,4.1,1.2,6c-2.7,3.2-7.7,3.6-11.6,5.1c-1.3,0.5-2.1,1.7-1.7,3.1
			c0.3,1.2,1.8,2.2,3.1,1.7c4.7-1.8,10-2.3,13.6-6.2c1.6-1.8,2.8-4.1,2.7-6.5c-0.1-2.3-1.1-4.7-2.9-6.3c-3.8-3.4-9.8-2.7-12.8,1.4
			c-0.3,0.4-0.5,0.7-0.7,1.1c-0.5,0.7,0.2-0.3-0.2,0.3c-0.1,0.2-0.1,0.3,0,0.1c-0.1,0-0.1,0.1-0.2,0.1c0.3-0.2,0.5-0.2,0.8-0.1
			c0.1,0,0.3,0.2,0.4,0.2c0,0,0,0,0,0.1c-0.1-0.1-0.2-0.3-0.3-0.4c-0.2-0.3-0.3-0.6-0.4-0.9c-1.2-2.4-4-4.2-6.5-2.3
			c-2.4,1.8-1.6,5.1-1.2,7.6c0.5,2.9,1.2,5.7,2.6,8.3C2096.3,157.8,2100.6,155.3,2099.1,152.4L2099.1,152.4z"/>
	</g>
</g>
<g>
	<g>
		<path class="st4" d="M2094.2,141.9c-0.4,1.7,0.2,3.1,0.4,4.8c0-0.3,0,0.5,0,0.6c0,0.3,0,0.6,0,1c0,0.8,0.1,1.5,0.2,2.3
			c0.1,0.8,0.2,1.6,0.4,2.4c0.2,0.8,0.3,1.8,0.8,2.5c0.7,1,1.9,1.6,3.1,1.2c0.4-0.1,0.7-0.3,1.1-0.5c0.4-0.2-0.3,0.1,0.1,0
			c0.2-0.1,0.4-0.1,0.6-0.2c1.3-0.3,2.6-0.5,3.8-0.9c1.4-0.5,2.8-1,4.1-1.7c2.5-1.2,4.8-3.3,5.4-6.1c0.4-1.7,0.2-3.4-0.9-4.7
			c-0.5-0.6-1-1.1-1.7-1.5c-0.8-0.6-1.7-0.7-2.6-0.8c-1.6-0.2-3-0.1-4.5,0.6c-0.5,0.2-1,0.6-1.4,0.9c-0.4,0.3-0.7,0.6-1.1,0.8
			c0,0,0.3-0.2,0,0c-0.2,0.1-0.3,0.2-0.5,0.4c-0.5,0.3-1,0.6-1.6,0.9c-0.5,0.2-0.2,0.1-0.1,0.1c-0.2,0.1-0.3,0.1-0.5,0.2
			c-0.3,0.1-0.6,0.2-0.8,0.3c-0.9,0.4-1.6,0.8-2.2,1.6c-0.5,0.8-0.7,1.7-0.7,2.7c-0.1,1.4-0.2,3,0.3,4.4c0.8,2.1,3.1,3,5,1.6
			c1.7-1.3,1.3-3.5,1.2-5.4c0-0.1,0-0.2,0-0.4c0,0,0.1-0.7,0-0.4c0,0,0,0.1,0,0.1c0.1-0.3,0.1-0.3,0-0.1c0,0-0.4,0.3-0.3,0.3
			c0,0,0.3-0.2,0.1-0.1c-0.3,0.2,0.2-0.1,0.3-0.1c0.3-0.1,0.6-0.2,1-0.3c1.6-0.5,3.2-1.1,4.7-1.9c0.1-0.1,0.2-0.1,0.4-0.2
			c0.1-0.1,0.2-0.1,0.3-0.2c0,0-0.1,0-0.1,0c-0.2-0.2-0.3,0.5-0.8-0.2c0.1,0.1,0.3,0.2,0.4,0.3c0.4,0.3,0.2,0.1,0.1,0.1
			c0.2,0.1,0.3,0.3,0.4,0.4c0.1,0.1,0.2,0.2,0.3,0.3c0.3,0.4,0-0.1-0.1-0.3c0-0.4,0-0.9,0-1.3c0,0,0,0.1-0.1,0.1
			c0.2-0.4,0.4-0.7,0.6-1.1c-0.7,0.8-1.3,1.1-2.3,1.7c-1,0.6-2,1-3,1.4c-1,0.5-1.9,1.1-2.8,1.8c-0.5,0.4,0.2-0.1-0.2,0.2
			c-0.2,0.1-0.4,0.3-0.6,0.4c-0.1,0.1-0.7,0.3-0.5,0.3c0.2-0.1,0.1-0.1-0.1,0c-0.3,0.1-0.3,0.1,0.1,0c0.7,0.4,1.4,0.8,2.2,1.2
			c0,0,0-0.1-0.1-0.1c0.1,0.4,0.2,0.8,0.3,1.3c-0.1-0.5,0-1,0-1.5c-0.1,0.4,0.1-0.4,0.1-0.4c0.1-0.3,0.1-0.5,0.2-0.8
			c0-0.1,0.1-0.2,0.1-0.3c0.2-0.5,0.1-0.4-0.3,0.4c-0.2,0.2-0.9,0.4-0.2,0.3c0.5-0.1,1.1-0.2,1.7-0.3c1.2-0.2,2.3-0.6,3.4-1.1
			c1.1-0.5,1.5-0.8,2.5-1c-1-0.6-2.1-1.2-3.1-1.7c-0.1-0.3,0.2-0.6,0.2-0.8c0.1-0.1,0.1-0.1-0.1,0.1c-0.1,0.1-0.1,0.1-0.2,0.2
			c0.3-0.3-0.3,0.2-0.3,0.2c-0.1,0.1-0.3,0.2-0.4,0.2c0.4-0.2-0.3,0.1-0.3,0.1c-0.2,0.1-0.3,0.1-0.5,0.2c-0.4,0.1-0.9,0.2-1.4,0.3
			c-2.1,0.6-3.3,2.7-4.7,4.2c-0.9,1-1,2.6,0,3.5c0.9,0.9,2.6,1.1,3.5,0c0.8-0.9,1.5-1.8,2.3-2.6c0,0,0.5-0.6,0.5-0.6
			c-0.5,0.3-0.6,0.3-0.2,0.2c0.1,0,0.2,0,0.3-0.1c0.5-0.1,1.1-0.3,1.6-0.4c2.5-0.9,5.5-3,4.5-6.1c-0.4-1.3-1.7-2.1-3.1-1.7
			c-0.8,0.2-1.6,0.5-2.3,0.9c-0.3,0.1-0.6,0.3-0.9,0.5c-0.2,0.1-0.3,0.2-0.5,0.2c0.4-0.1-0.4,0.1-0.4,0.1c-0.7,0.2-1.5,0.4-2.2,0.5
			c-0.8,0.2-1.8,0.3-2.5,0.7c-1.6,1-2,3.2-2.2,5c-0.1,0.8-0.2,1.8,0.2,2.6c0.6,1.4,2,1.8,3.4,1.5c1.6-0.3,2.7-1.4,4-2.3
			c-0.4,0.3,0.3-0.2,0.4-0.3c0.3-0.2,0.6-0.4,0.9-0.5c0.7-0.4,1.5-0.6,2.2-1c1.4-0.7,2.8-1.6,4-2.7c0.9-0.8,1.4-1.8,1.1-3
			c-0.2-0.8-0.9-1.6-1.5-2.2c-1.4-1.4-3.2-2.4-5.1-1.6c-0.8,0.3-1.5,0.8-2.3,1.1c-0.7,0.3-1.1,0.5-2,0.8c-1.5,0.5-3.1,0.7-4.2,2
			c-1.3,1.4-1.3,3.3-1.2,5.1c0,0.3-0.1,0.9,0,1.2c0,0,0,0.1,0,0.1c0.1-0.7,0.7-0.8,1.8-0.2c0.6,0,1.1,0,1.7,0
			c-0.1-0.2-0.1-0.3,0-0.1c0,0.3,0-0.3,0-0.3c0-0.2,0-0.4,0-0.6c0-0.4,0-0.9,0-1.3c0-0.2,0-0.4,0-0.6c0-0.7,0-0.1,0-0.1
			c-0.2,0.1-0.4,0.4-0.5,0.6c0.2-0.2,0.2-0.1,0,0c0.8-0.4,1.6-0.6,2.4-1c0.6-0.3,1.2-0.6,1.8-1c0.4-0.3,0.7-0.5,1.1-0.8
			c0.1-0.1,0.3-0.2,0.4-0.3c-0.3,0.2,0.1,0,0.2-0.1c0.3-0.2,0.5-0.4,0.8-0.5c0.1-0.1,0.6-0.3,0.1-0.1c0.1-0.1,0.3-0.1,0.4-0.1
			c0.1,0,0.4,0,0.1,0c0.2,0,0.4,0,0.5,0c0.2,0,0.4,0,0.5,0c0.1,0,0.2,0,0.3,0c-0.2,0-0.2,0,0,0c0.4,0.1-0.2-0.1,0.1,0
			c0.2,0.1-0.1-0.1,0.2,0.2c0.1,0.1,0.2,0.2,0.3,0.3c-0.4-0.4,0.2,0.3-0.1-0.1c0.1,0.2,0,0.4,0,0c0,0.1,0,0.7,0,0.4
			c0-0.3-0.3,0.9-0.1,0.4c-0.1,0.4-0.4,0.7-0.6,1c0.1-0.1,0.3-0.3-0.1,0c-0.1,0.1-0.3,0.3-0.4,0.4c-0.1,0.1-0.2,0.2-0.4,0.3
			c-0.1,0.1-0.1,0.1,0,0c-0.1,0-0.1,0.1-0.2,0.1c-0.4,0.2-0.7,0.5-1.1,0.7c-0.3,0.2-0.7,0.3-1,0.5c0,0-0.5,0.2-0.3,0.1
			c0.1,0-0.4,0.2-0.6,0.2c-0.9,0.3-1.7,0.7-2.6,0.9c-0.8,0.2-1.6,0.3-2.3,0.5c-0.9,0.2-1.8,0.6-2.6,1.1c0.4-0.1,0.8-0.2,1.3-0.3
			c0,0-0.1,0-0.1,0c0.4,0.1,0.8,0.2,1.3,0.3c0,0-0.1-0.1-0.1-0.1c0.4,0.5,0.8,1,1.1,1.5c-0.4-0.8-0.5-1.8-0.7-2.7
			c-0.1-0.5-0.1-0.5-0.1-1.1c0-0.5-0.1-0.9-0.1-1.4c0-1-0.1-2-0.3-3c-0.1-0.4-0.2-0.9-0.3-1.3c0-0.1-0.1-0.6-0.1-0.3
			c0-0.1,0.1-0.8,0-0.4c0.3-1.3-0.4-2.8-1.7-3.1C2096,139.9,2094.5,140.6,2094.2,141.9L2094.2,141.9z"/>
	</g>
</g>
<g>
	<g>
		<path class="st4" d="M2093.5,151.9c0,0.1,0.1,0.3,0.1,0.4c0-0.2-0.1-0.4-0.1-0.7c0.1,0.4,0,0.8,0,1.2c0-0.2,0.1-0.4,0.1-0.7
			c-0.1,0.6-0.3,1.1-0.5,1.7c0.1-0.2,0.2-0.4,0.3-0.6c-0.2,0.5-0.4,1-0.7,1.4c-0.3,0.6-0.4,1.3-0.3,1.9c0.2,0.6,0.6,1.2,1.1,1.5
			c0.6,0.3,1.3,0.5,1.9,0.3c0.6-0.2,1.2-0.6,1.5-1.1c0.5-0.9,1-1.9,1.3-3c0.3-1.2,0.4-2.5,0.1-3.7c-0.1-0.6-0.6-1.2-1.1-1.5
			c-0.5-0.3-1.3-0.4-1.9-0.3c-0.6,0.2-1.2,0.6-1.5,1.1C2093.4,150.6,2093.3,151.2,2093.5,151.9L2093.5,151.9z"/>
	</g>
</g>
<g>
	<g>
		<path class="st4" d="M2096.9,161c1-0.4,2-0.9,2.9-1.5c0.8-0.5,1.5-1.1,2.3-1.6c0.4-0.2,0.8-0.5,1.2-0.7c0.1,0,0.2-0.1,0.3-0.1
			c0.3-0.1-0.6,0.2-0.1,0c0.2-0.1,0.4-0.2,0.6-0.2c1.1-0.4,2.1-0.8,3-1.5c0.5-0.4,1-0.8,1.1-1.5c0.2-0.6,0.1-1.4-0.3-1.9
			c-0.7-1-2.3-1.7-3.4-0.9c-0.4,0.3-0.8,0.5-1.2,0.7c-0.1,0-0.2,0.1-0.3,0.1c-0.3,0.1,0.5-0.2,0.1-0.1c-0.2,0.1-0.5,0.2-0.7,0.3
			c-1,0.4-2,0.8-2.9,1.4c-0.8,0.5-1.5,1-2.2,1.5c-0.4,0.3-0.8,0.5-1.2,0.7c-0.2,0.1-0.4,0.2-0.6,0.3c-0.1,0-0.4,0.2-0.1,0
			c0.4-0.2-0.1,0-0.1,0.1c-0.6,0.2-1.1,0.6-1.5,1.1c-0.3,0.5-0.4,1.3-0.3,1.9C2094.2,160.5,2095.6,161.5,2096.9,161L2096.9,161z"/>
	</g>
</g>
<g>
	<g>
		<g>
			<path class="st4" d="M1956.3,170.1c-3,11.8-4.8,23.8-5.4,36c-0.4,7.7,11.6,7.7,12,0c0.6-11.1,2.3-22,5-32.8
				C1969.7,165.8,1958.1,162.6,1956.3,170.1L1956.3,170.1z"/>
		</g>
	</g>
	<g>
		<g>
			<g>
				<path class="st4" d="M1957.2,207.7c1.9,0.4,3.7,1.2,5.4,2.2c0.8,0.5,1.6,0.9,2.4,1.4c0.2,0.1,0.5,0.3,0.7,0.4
					c0,0,0.4,0.3,0.2,0.1c0.1,0.1,0.3,0.2,0.4,0.4c0.5,0.4,0,0.1,0.1,0c0.2-0.3,0.1-0.7,0.4-1c0.1-0.1,0.2-0.1,0.2-0.2
					c0.3-0.1,0.3-0.1,0,0c-0.1-0.3,0.6,0.4,0,0c0,0,0.5,0.1,0,0c-1-0.2-2-0.6-3-0.5c-2.5,0-4.3,2.1-4.1,4.5c0.1,1,0.3,1.9,0.6,2.8
					c0.1,0.4,0.1,1.3-0.1,1.8c-0.1,0.5-0.4,1-0.7,1.5c0.2-0.2-0.4,0.4-0.3,0.3c-0.1,0.1-0.3,0.2-0.4,0.3c0.3-0.2-0.8,0.4-0.5,0.3
					c-1.2,0.5-2.5,0.4-3.5-0.2c-0.6-0.3-0.9-0.6-1.2-1.1c-0.2-0.4-0.3-0.5-0.4-0.8c-0.1-0.2-0.1-0.4-0.2-0.5c0,0-0.2-0.8-0.1-0.5
					c-0.6-4.2,2.5-8.4,3.9-12.4c0.4-1.3-0.5-2.7-1.7-3.1c-1.4-0.4-2.6,0.5-3.1,1.7c-1.6,4.6-4.6,8.7-4,13.8c0.2,2.4,1.2,4.7,3.1,6.3
					c1.8,1.5,4.1,2.3,6.4,2.1c4.7-0.4,8.4-4.8,7.8-9.6c-0.1-0.7-0.2-1.3-0.4-2c0-0.2-0.1-0.4-0.1-0.5c0-0.2-0.2-0.3-0.1-0.4
					c-0.1,0.1-0.1,0.3-0.2,0.4c-0.2,0.2-0.5,0.2-0.7,0.4c0.1,0,0.2,0,0.3,0c-0.2,0-0.2,0,0.1,0c0.3,0.1,0.5,0.1,0.8,0.2
					c2.5,0.7,5.4,0.1,6.1-2.7c0.8-3.3-2.6-5.2-5-6.6c-2.4-1.4-5-2.7-7.7-3.3c-1.3-0.3-2.7,0.4-3.1,1.7
					C1955.2,205.9,1955.9,207.5,1957.2,207.7L1957.2,207.7z"/>
			</g>
		</g>
		<g>
			<g>
				<path class="st4" d="M1968.7,211c-0.9-1.2-2-1.9-3.3-2.6c-1.3-0.7-2.2-1.6-3.4-2.4c-1.1-0.8-2.3-1.5-3.5-2
					c-0.9-0.4-1.9-0.7-2.9-0.3c-1.1,0.5-1.4,1.4-1.7,2.4c-0.1,0.5-0.2,0.7-0.6,1.3c-0.3,0.6-0.7,1.2-1,1.9c-0.6,1.3-1.1,2.7-1.5,4.1
					c-0.9,2.8-1.2,5.9,0.3,8.6c1.5,2.9,5.2,4.2,8.1,2.4c1.2-0.7,2.4-2,3-3.2c0.7-1.4,0.8-2.9,0.9-4.4c0.1-1.2,0.3-2.3,0.7-3.5
					c0.7-1.8,0.6-3.5-0.7-4.9c-0.9-1-2.1-2-3.3-2.7c-1.8-1.1-4.4-0.7-5,1.5c-0.6,2.1,0.9,3.4,2.3,4.6c0.3,0.2,0.6,0.5,0.9,0.7
					c0.1,0.1,0.2,0.2,0.3,0.3c0.2,0.2,0.2,0.3,0.2,0.1c-0.1-0.1,0-0.1,0,0.1c0.1,0,0,0.2,0,0c0,0,0-0.1,0-0.1c0-0.2,0-0.2,0,0
					c0,0-0.2,0.5-0.3,0.7c-0.7,1.6-1.3,3.2-1.7,4.8c-0.1,0.3-0.2,0.7-0.2,1c0,0.2-0.2,0.2,0,0.1c0.1,0,0.5-0.5,0.6-0.6
					c0,0,0.1,0,0.1,0c-0.1,0-0.3,0.1-0.4,0.1c-0.1,0-0.5,0.1-0.4,0.1c0.2,0-0.3,0-0.3,0c-0.1,0-0.3,0-0.4,0c-0.4,0-0.2,0.1,0.6,0.2
					c0.3,0.3,0.6,0.6,0.9,0.9c0,0,0-0.1-0.1-0.1c0.1,0.4,0.2,0.8,0.3,1.3c-0.2-2.1,0.4-3.9,1-6c0.3-1.1,0.5-2.3,0.5-3.4
					c0-0.4,0-0.9,0.1-1.3c-0.1,0.4,0.1-0.3,0.1-0.3c0.1-0.4,0.1-0.1-0.1,0.1c-0.6,0.2-1.2,0.5-1.8,0.7c0,0,0.1,0,0.1,0
					c-0.4-0.1-0.8-0.2-1.3-0.3c-0.5-0.3,0.2,0.2,0.2,0.2c0.1,0.1,0.3,0.3,0.4,0.4c0.4,0.4,0.4,0.4,0.7,0.9c0.1,0.2,0.2,0.5,0.3,0.6
					c0.2-1.3,0.1-1.6-0.1-1.1c0,0.1-0.1,0.2-0.1,0.3c-0.3,0.5-0.5,1-0.8,1.4c-0.5,1-1,2-1.3,3c-0.1,0.5-0.3,1-0.4,1.5
					c-0.1,0.5-0.3,0.9-0.4,1.1c1.1-0.3,2.3-0.6,3.4-0.9c-0.5-0.2,0.1,0.3,0.2,0.3c0.1,0,0,0.7,0.1-0.2c0,0.2,0-0.1,0-0.2
					c0.1-0.2,0.1-0.5,0.2-0.7c0.3-0.8,0.8-1.5,1.1-2.5c0.4-1.1,0.2-2.1,0-3.2c-0.2-1-0.3-2.1-0.5-3.1c-0.2-1.3-1.9-2.1-3.1-1.7
					c-1.4,0.4-1.9,1.7-1.7,3.1c0.2,1.1,0.4,2.3,0.5,3.4c0.1,0.8,0.1,0,0,0c0,0,0-0.1,0.1-0.1c-0.1,0.1-0.1,0.2-0.2,0.4
					c-0.3,0.6-0.6,1.2-0.8,1.8c-0.9,2.3-1.2,5.9,1.6,7.1c1.2,0.5,2.7,0.4,3.4-0.9c0.8-1.6,1.1-3.6,1.8-5.1c0.4-0.8,0.9-1.6,1.3-2.4
					c0.7-1.3,0.7-2.6,0-3.9c-0.9-1.6-2.6-4-4.6-4.1c-2.7-0.2-3.3,3.3-3.4,5.3c0,0.9,0,1.4-0.2,2c-0.2,1-0.6,1.9-0.8,2.8
					c-0.2,1-0.4,1.9-0.5,2.9c-0.1,1.1-0.2,2.4,0.3,3.4c1.2,2.2,4.7,1.6,6.6,0.7c2-1,2.1-3.2,2.7-5.1c0.3-0.9,0.6-1.8,0.9-2.6
					c0.6-1.3,1.1-2.5,0.7-3.9c-0.3-1.1-1-2.1-1.9-2.8c-0.4-0.3-0.7-0.6-1.1-0.9c-0.2-0.2-0.4-0.3-0.6-0.5c-0.1-0.1-0.2-0.2-0.3-0.2
					c-0.6-0.6-0.6,0,0,1.7c-0.3,0.3-0.6,0.6-0.9,0.9c-1.5-0.2-1.9-0.2-1.3,0.2c0.2,0.1,0.3,0.2,0.5,0.3c-0.1-0.1-0.1-0.1,0.2,0.1
					c0.1,0.1,0.3,0.2,0.4,0.4c0.3,0.2,0.6,0.5,0.8,0.8c0.1,0.1,0.2,0.2,0.4,0.4c-0.2-0.2-0.3-0.4-0.3-0.6c0-0.2,0-0.2-0.1,0.1
					c-0.1,0.2-0.1,0.4-0.2,0.5c-0.1,0.4-0.3,0.8-0.4,1.2c-0.2,0.8-0.4,1.6-0.4,2.5c-0.1,0.7-0.1,1.5-0.1,2.2c0,0.5-0.1,0.9-0.3,1.3
					c-0.2,0.3-0.2,0.3-0.1,0.1c-0.1,0.1-0.1,0.1-0.2,0.2c-0.3,0.2-0.5,0.5-0.8,0.7c-0.2,0.2-0.3,0.2-0.1,0.1c0.2-0.1,0.1-0.1-0.1,0
					c-0.3,0.1-0.3,0.1-0.1,0c-0.3,0-0.4,0-0.2,0c-0.3-0.1-0.3-0.1-0.1,0c-0.2-0.2-0.3-0.2-0.1,0c-0.1-0.1-0.2-0.2-0.3-0.3
					c0.1,0.2,0.1,0.2,0-0.1c-0.1-0.1-0.2-0.3-0.2-0.4c-0.1-0.2-0.1-0.3-0.1-0.1c0.1,0.1,0.1,0.1,0-0.2c0-0.2-0.1-0.3-0.1-0.5
					c-0.1-0.3-0.1-0.3,0-0.1c0-0.2,0-0.3,0-0.5c0-0.4,0-0.8,0-1.2c0.1-0.4,0.3-1.4,0.5-2c0.4-1.3,0.9-2.7,1.4-3.8
					c0.3-0.7,0.7-1.3,1.1-1.9c0.2-0.4,0.4-0.9,0.6-1.4c0.1-0.2,0.1-0.3,0.1-0.5c0.1-0.4,0.1-0.4-0.1,0.1c-0.5,0.4-1,0.8-1.5,1.1
					c0.1,0,0.1,0,0.2,0c-0.4,0-0.9,0-1.3,0c-0.4-0.1,0.2,0.1,0.2,0.1c0.2,0.1,0.4,0.2,0.6,0.3c0.4,0.2,0.8,0.5,1.3,0.7
					c0.7,0.4,1.5,1,2,1.4c0.8,0.6,1.6,1.3,2.6,1.8c0.4,0.2,0.7,0.4,1.1,0.6c0.1,0.1,0.3,0.2,0.4,0.3c-0.4-0.3,0.3,0.3,0-0.1
					c0.8,1.1,2.2,1.6,3.4,0.9C1968.9,213.8,1969.5,212.1,1968.7,211L1968.7,211z"/>
			</g>
		</g>
	</g>
	<g>
		<g>
			<path class="st4" d="M1961.5,204c-0.2-0.1-0.4-0.2-0.6-0.4c0.2,0.1,0.3,0.3,0.5,0.4c-0.3-0.3-0.6-0.6-0.9-0.9
				c0.1,0.2,0.3,0.3,0.4,0.5c-0.5-0.6-0.8-1.3-1.1-2.1c0.1,0.2,0.2,0.4,0.3,0.6c-0.1-0.2-0.2-0.4-0.2-0.6c-0.1-0.3-0.2-0.6-0.4-0.9
				c-0.2-0.3-0.4-0.5-0.7-0.6c-0.5-0.3-1.3-0.4-1.9-0.3c-0.6,0.2-1.2,0.6-1.5,1.1c-0.1,0.2-0.2,0.4-0.3,0.6c-0.1,0.4-0.1,0.9,0,1.3
				c0.4,1,0.8,2.1,1.4,3c0.3,0.5,0.7,1,1.1,1.4c0.4,0.4,0.9,0.8,1.5,1.1c0.6,0.3,1.3,0.4,1.9,0.3c0.6-0.2,1.2-0.6,1.5-1.1
				c0.3-0.6,0.5-1.3,0.3-1.9C1962.4,204.9,1962,204.3,1961.5,204L1961.5,204z"/>
		</g>
	</g>
	<g>
		<g>
			<path class="st4" d="M1952.5,203.8c0,0.1,0,0.1,0,0.2c0-0.2,0.1-0.4,0.1-0.7c-0.1,0.5-0.2,1-0.3,1.4c-0.1,0.3-0.1,0.7,0,1
				c0,0.3,0.1,0.6,0.3,0.9c0.2,0.3,0.4,0.5,0.6,0.7c0.2,0.2,0.5,0.4,0.9,0.4c0.2,0,0.4,0.1,0.7,0.1c0.5,0,0.9-0.1,1.3-0.3
				c0.2-0.1,0.3-0.3,0.5-0.4c0.3-0.3,0.5-0.7,0.6-1.1c0.2-0.8,0.4-1.5,0.4-2.3c0-0.3-0.1-0.7-0.2-1c-0.1-0.3-0.3-0.6-0.5-0.8
				c-0.2-0.2-0.5-0.4-0.8-0.5c-0.3-0.2-0.6-0.2-1-0.2c-0.2,0-0.4,0.1-0.7,0.1c-0.4,0.1-0.8,0.3-1.1,0.6c-0.1,0.2-0.3,0.3-0.4,0.5
				C1952.6,202.9,1952.5,203.3,1952.5,203.8L1952.5,203.8z"/>
		</g>
	</g>
</g>
<g>
	<defs>
		<circle id="SVGID_2_" cx="2015" cy="159.5" r="55.4"/>
	</defs>
	<clipPath id="SVGID_3_">
		<use xlink:href="#SVGID_2_"  style="overflow:visible;"/>
	</clipPath>
	<path class="st5" d="M2072.6,175.1c-1.4,4-4.1,7.3-6.7,10.5c-0.4,0.4-0.7,0.9-1.1,1.3c-3.2,3.9-6.5,7.8-9.7,11.7
		c-0.5,0.6-1,1.1-1.4,1.7c-3.4,4.1-6.8,8.2-11,11.3c-3,2.3-6.3,3.9-9.7,5.1c0,0,0,0,0,0c-0.3,0.1-0.6,0.2-0.9,0.3
		c-0.1,0-0.1,0-0.2,0c-0.3,0.1-0.6,0.2-0.9,0.3c-0.3,0.1-0.7,0.2-1,0.3c-0.3,0.1-0.7,0.2-1,0.2c-0.3,0.1-0.7,0.2-1,0.2
		c-8.2,1.8-17.1,1.5-25.5,1.1c-0.4,0-0.8,0-1.2-0.1c-1.6-0.1-3.3-0.3-5-0.7c-0.7-0.2-1.5-0.3-2.2-0.5c-0.5-0.1-1-0.3-1.5-0.4
		c-1-0.3-1.9-0.7-2.8-1.2c-1.4-0.7-2.7-1.6-3.8-2.7c-1.3-1.3-2.3-3-2.8-5c-0.6-2.5,0-5.2,0.6-7.8c0.2-0.8,0.4-1.5,0.5-2.3
		c0.2-0.9,0.3-1.8,0.4-2.7c0.5-4-0.2-7.3-1.5-11.6c-3-9.1-5-18.8-5.2-28.4c-0.1-2.8,0-5.5,0.3-8.3c0.2-2.4,0.6-4.8,1.1-7.2
		c3-14.5,12-28.1,24.8-33.1c0.9-0.3,1.8-0.7,2.7-0.9c5.1-1.5,10.5-1.8,15.9-1.8c0.6,0,1.1,0,1.7,0c0,0,0,0,0,0h0
		c1.9,0.1,3.8,0.2,5.7,0.3c2.2,0.1,4.5,0.2,6.8,0.5c0,0.4,0,0.8,0.1,1.3c0,0.2,0,0.3,0,0.5c0,0.3,0.1,0.5,0.1,0.8
		c0.8,4.3,3.4,7.8,6.9,9.5c-0.4,1.6-0.6,3.4-0.4,5.1c0.5,5.3,3.8,9.6,8.1,11.2c0,0,0.1,0,0.1,0c1.2,0.4,2.4,0.6,3.7,0.7
		c0.4,0,0.9,0,1.3-0.1c1-0.1,1.9-0.3,2.8-0.7c0.9,2.7,2.6,4.9,4.7,6.4c0.8,0.6,1.7,1.1,2.7,1.5c1.4,0.5,2.9,0.8,4.5,0.7
		c0.2,1,0.4,2,0.6,3.1c0.1,0.5,0.2,0.9,0.2,1.4c0,0.2,0.1,0.3,0.1,0.5c0.1,0.5,0.1,1,0.2,1.5c0.1,0.5,0.1,1.1,0.2,1.6c0,0,0,0,0,0.1
		c0.5,3.9,0.7,7.9,0.8,11.8C2074,166.7,2074,171.1,2072.6,175.1z"/>
	<g class="st6">
		<path class="st7" d="M2033.9,212.3c-2.1-3.6-5.5-7.1-9.3-6.3c-0.6,4.2,2.6,8.1,3.4,12.2c2.7-0.6,5.3-1.4,7.8-2.5
			C2035.1,214.6,2034.5,213.4,2033.9,212.3z"/>
		<path class="st7" d="M2001.6,217.6c0.4-1.4,0.8-2.9,0.5-4.3c-0.6-2.7-3.8-4-6.3-3.1c-2.4,0.9-4.2,3.2-5.7,5.5
			c-0.1,0.2-0.3,0.4-0.4,0.7c3.6,1.8,8,2.6,11.5,2.8C2001.3,218.6,2001.5,218.1,2001.6,217.6z"/>
		<path class="st7" d="M2073,150.6c-1.7-0.9-3.5-1.7-5.2-2.6c0,0,0,0,0,0c-1-0.5-2-1-3-1.5c-0.2-0.1-0.5-0.2-0.7-0.4
			c0.7-1,1.3-1.9,2-2.9c0.4-0.5,0.8-1.1,1.1-1.6c1.4,0.5,2.9,0.8,4.5,0.7c0.2,1,0.4,2,0.6,3.1c0.1,0.5,0.2,0.9,0.2,1.4
			c0,0.2,0.1,0.3,0.1,0.5c0.1,0.5,0.1,1,0.2,1.5C2072.8,149.5,2072.9,150,2073,150.6C2073,150.6,2073,150.6,2073,150.6z"/>
		<path class="st7" d="M2061.3,186.8c-2.7-0.2-5.5-0.5-8,0.7c-2.5,1.2-4.3,4.5-3.1,7.1c0.8,1.7,2.5,2.5,4,3.4
			c0.3,0.2,0.6,0.4,0.9,0.6c3.2-3.9,6.5-7.8,9.7-11.7C2063.7,186.9,2062.5,186.9,2061.3,186.8z"/>
	</g>
	<path class="st5" d="M2066.9,168.7c-1.9,4.7-5,8.8-7.5,13.1c-0.9,1.5-1.7,3.2-2.6,4.8c-0.1,0.2-0.2,0.4-0.3,0.5c-1,2-2,3.9-3.1,5.8
		c-0.2,0.3-0.3,0.5-0.5,0.8c-0.2,0.3-0.4,0.6-0.6,0.9c-0.3,0.5-0.6,1-0.9,1.4c-2.1,3-4.6,5.6-7.9,7.1c-4.5,2-9.7,1.6-14,4
		c-0.1,0.1-0.2,0.1-0.3,0.2c-1.4,0.9-2.7,2-3.9,3.2c-2.4,2.3-4.7,4.7-7.7,5.4c-4.9,1.1-9.6-2.9-14.6-3.6c-0.4-0.1-0.8-0.1-1.2-0.1
		c-3.4-0.2-6.8,1-10.2,1.5c-1,0.1-2,0.2-3,0.2c-0.9,0-1.7-0.1-2.5-0.3c-4-0.8-7.7-3-11.3-5.2c-4.5-2.8-9.2-5.9-11.4-11
		c-2.4-5.8-1.1-12.6-2.6-18.7c-0.7-2.7-1.9-5.1-2.7-7.8c-0.9-3.2-1-6.3-0.8-9.4c0.1-0.9,0.2-1.7,0.3-2.5c0.1-0.6,0.2-1.1,0.3-1.7
		c0-0.1,0-0.1,0-0.2c0.1-0.4,0.1-0.8,0.2-1.2c0-0.2,0.1-0.4,0.1-0.6c0.1-0.4,0.1-0.8,0.2-1.2c0.1-0.3,0.1-0.7,0.2-1
		c0-0.3,0.1-0.5,0.1-0.8c0.1-0.4,0.1-0.8,0.2-1.2c0.1-0.7,0.2-1.5,0.3-2.2c0-0.1,0-0.1,0-0.2c0-0.2,0-0.4,0.1-0.7
		c0.1-1.4,0.2-2.8,0.1-4.2c-0.4-9.7,2.3-16.9,8.7-23.8c8.3-8.9,19.2-15,30.7-16.4c4.7-0.6,9.5-0.3,14.2,0c0.7,0,1.3,0.1,2,0.2
		c0.9,0.1,1.8,0.2,2.7,0.2c0.4,0,0.9,0.1,1.3,0.1c0.4,0,0.8,0.1,1.2,0.1c1,0.1,1.9,0.2,2.9,0.4c0.4,0.1,0.9,0.1,1.3,0.2
		c0,0,0.1,0,0.1,0c0.4,0.1,0.8,0.1,1.2,0.2c1.8,0.3,3.7,0.7,5.5,1.1c2.1,0.5,4.1,1.2,6.1,2c0.8,4.3,3.4,7.8,6.9,9.5
		c-0.4,1.6-0.6,3.4-0.4,5.1c0.5,5.3,3.8,9.6,8.1,11.2c0,0,0.1,0,0.1,0c1.2,0.4,2.4,0.6,3.7,0.7c0.4,0,0.9,0,1.3-0.1
		c1-0.1,1.9-0.3,2.8-0.7c0.9,2.7,2.6,4.9,4.7,6.4c0.6,1,1.1,2,1.6,3.1c0.4,1,0.9,2,1.2,3c0,0,0,0,0,0c0.2,0.5,0.4,1.1,0.6,1.6
		c0,0,0,0,0,0.1c0.1,0.3,0.2,0.7,0.3,1c0.1,0.4,0.2,0.8,0.3,1.2C2069.8,156.4,2069.2,163,2066.9,168.7z"/>
	<path class="st8" d="M1978.3,147.6c-0.8-0.7-1.8-1.3-2.1-2.4c-0.1-0.6,0-1.3,0.1-1.9c2-8.9,5.6-17.4,10.4-25
		c-4.5,1.9-8,6.1-10.5,10.6c-2.6,4.5-4.5,9.5-7,14c-1.7,3-4.3,6-7.4,5.6c-1.1-0.2-1.9-0.5-2.5-0.7h0c0,0.2,0,0.4-0.1,0.7
		c0,0.1,0,0.1,0,0.2c-0.1,0.7-0.2,1.5-0.3,2.2c-0.1,0.4-0.1,0.8-0.2,1.2c0,0.3-0.1,0.5-0.1,0.8c-0.1,0.3-0.1,0.7-0.2,1
		c-0.1,0.4-0.1,0.8-0.2,1.2c0,0.2-0.1,0.4-0.1,0.6c-0.1,0.4-0.1,0.8-0.2,1.2c0,0.1,0,0.1,0,0.2c-0.1,0.6-0.2,1.1-0.3,1.7
		c-0.1,0.8-0.2,1.7-0.3,2.5c4.4-0.6,8.6-2.5,12-5.6c0.8-0.7,1.6-1.5,2.5-1.8c2.1-0.8,4.2,0.7,6.3,1.8c1.2,0.6,2.4,1.2,3.7,1.1
		C1982.3,153.5,1980.9,149.7,1978.3,147.6z M2057.2,157.2c3.7-2.4,7.5-5,10.9-8.1c-0.1-0.4-0.2-0.7-0.3-1c0,0,0,0,0-0.1
		c-0.3-1.1-0.7-2.2-1.2-3.3c-0.6,0.6-1.2,1.2-1.8,1.9c-1.5,1.6-3.1,3.1-4.6,4.7c-0.8,0.8-1.7,1.6-2.7,1.4c-1.3-0.3-1.8-2.1-1.9-3.5
		c-0.5-4.8-0.6-9.7,0.2-14.5c-1.3,0-2.5-0.2-3.7-0.7c-0.4,2-0.6,4-0.7,6.1c-0.1,2.5,1.7,8.7,0.8,10.7c-1.8,3.9-13.2-3.8-16.7-5.5
		c-1.6-0.8-3.2-1.5-4.9-1.4h0c-1.8,0.1-3.5,1.2-5,2.4c-6.4,4.6-12.6,9.6-18.5,14.9c0.2,0,0.4-0.1,0.7-0.1c0.7-0.1,1.5-0.3,2.2-0.5
		c0.2-0.1,0.4-0.1,0.6-0.2c0.5-0.2,0.9-0.3,1.4-0.5c0.2-0.1,0.4-0.2,0.6-0.3c0.3-0.1,0.6-0.3,0.9-0.4c0.2-0.1,0.4-0.2,0.6-0.3
		c0.8-0.4,1.6-0.9,2.4-1.4c0.2-0.1,0.4-0.2,0.5-0.3c0.8-0.5,1.6-1,2.5-1.5c4.6-2.8,9.1-5.3,14-4.2c4.3,1,7.7,4.6,11.3,7.4
		c3.7,2.7,8.8,4.5,12.4,1.7c0.3,6.4,0.7,12.7,1,19.1c2.9-2.6,3.8-7.1,3.3-11.1C2060.7,164.4,2059,160.8,2057.2,157.2z M2011.8,125
		c-1.2,0.2-2.8,0.3-3.4-0.9c-0.7-1.4,0.7-2.9,1.8-3.8c5.7-4.4,10.9-9.6,15.4-15.4c-0.3-0.1-0.7-0.1-1.1-0.2c-0.1,0-0.1,0-0.2,0
		c0,0-0.1,0-0.1,0c-0.3,0-0.5-0.1-0.8-0.1c-0.2,0-0.4-0.1-0.6-0.1c-1-0.1-1.9-0.2-2.9-0.4c-0.4,0-0.8-0.1-1.2-0.1
		c-0.4,0-0.9-0.1-1.3-0.1c-0.9-0.1-1.8-0.2-2.7-0.2c-0.7-0.1-1.3-0.1-2-0.2c-1.7-0.1-3.3-0.2-5-0.3c-0.4,1-0.8,2.1-1.1,3.2
		c-1.2,4-1.8,8.5-2.6,11.8c-0.3,1.3-0.7,2.6-1.5,3.6c-1.9,2.3-5.3,1.8-8.1,2.1c-3.4,0.4-6.6,2.4-8.6,5.5c3.8-0.3,7.6-0.6,11.4-1
		c0.7-0.1,1.3-0.1,1.9,0.2c1.8,0.9,1.5,3.7,0.9,5.7c-3.1,11.6-4.7,24.4-0.8,35.7c0.8-2.6,1.5-5.2,2.1-7.8c0,0,0,0,0,0
		c0,0,0-0.1,0-0.1c0.1-0.5,0.2-0.9,0.3-1.4c0-0.1,0-0.3,0.1-0.4c0.1-0.6,0.2-1.1,0.3-1.7c0.1-0.6,0.2-1.2,0.3-1.8c0-0.1,0-0.1,0-0.2
		c0.1-0.5,0.1-0.9,0.2-1.4c0-0.2,0.1-0.4,0.1-0.6c0.1-1.1,0.2-2.2,0.3-3.3c0-0.2,0-0.3,0-0.5c0-0.4,0.1-0.8,0.1-1.2
		c0-0.2,0-0.5,0-0.7c0-0.5,0.1-1.1,0.1-1.6c0-0.8,0-1.6,0.1-2.4c0-0.3,0-0.5,0-0.8c0,0,0,0,0,0c0.1-1,0.2-2.1,0.4-3c0,0,0,0,0,0
		c0-0.2,0.1-0.4,0.1-0.5c0-0.2,0.1-0.4,0.2-0.5c0.1-0.2,0.1-0.4,0.2-0.5c0.1-0.2,0.1-0.4,0.2-0.5c2.3-5.2,8.3-6.9,13.6-7.3
		c5.3-0.4,11-0.3,15.2-3.8C2026.6,124.9,2019.1,123.9,2011.8,125z M2052.6,187.9c-2.1,0.4-4.1,0.9-6.2,1.4c-0.5,0.1-1.1,0.3-1.6,0.1
		c-1-0.4-1.3-1.8-1.5-3c-0.3-2.8-0.6-5.6-0.9-8.5c0.1,0.9-3.4,11.3-4.1,12.2c-1.8,2.4-0.2,1.5-3,0.7c-1.8-0.5-4-2.6-5.6-3.6
		c-7.4-4.6-15.2-8.6-23.2-11.9c-0.4,1.9,1.3,3.4,2.8,4.4c5.6,3.6,11.1,7.2,16.7,10.9c3.2,2.1,6.5,4.2,10.2,5.3
		c4.7,1.3,9.6,0.7,14.4-0.6c0.6-0.2,1.2-0.3,1.7-0.5c0.2-0.3,0.4-0.6,0.6-0.9c0.2-0.3,0.3-0.5,0.5-0.8c1.1-1.9,2.1-3.9,3.1-5.8
		C2055.2,187.4,2053.9,187.7,2052.6,187.9z M2022.4,201.9c-7.1,0-14.1,0.1-21.2,0.1c-4,0-8.1,0-11.7-2c-1.8-1.1-3.4-2.6-4.8-4.2
		c-0.3-0.3-0.6-0.7-1-1.1c-3.6-4.1-7.3-8.1-10.9-12.2c3.6,4.3,6.7,9.1,9.2,14.3c0.6,1.3,1.1,2.6,1.6,3.9c1.1,3,2.3,5.8,5.1,6.9
		c9.5,3.8,23.4-1.7,32.6-4.5C2022,203,2022.7,202.5,2022.4,201.9z"/>
	<g class="st9">
		<path d="M2002.2,128.1c0.6,1.6,2.5,1.8,3.8,2c2,0.3,4-0.2,5.8-1.3c3.2-2,4.6-7.1,1.7-10.2C2009.1,114,2000.1,122.5,2002.2,128.1z"
			/>
		<path d="M2062.5,159.3c-0.4-0.7-1-1.5-1.3-2.3c-0.2-0.7-0.1-1.2-0.3-1.9c-0.4-1.4-1.1-2.5-2.4-3.1c-3.2-1.6-4.7,1.9-4.1,4.9
			c0.5,2.6,2.3,5.5,4.7,6.4C2061.3,164.2,2064,161.9,2062.5,159.3z"/>
		<path d="M1971.9,141.4c-1.8,0.6-4.5,3.5-4,5.7c0,0.2,1.4,1.9,1.5,2c1.1,1,2.2,1.5,3.6,1.1C1977.8,148.9,1977.1,139.6,1971.9,141.4
			z"/>
		<path d="M1994.7,201.8c-1.7-1.4-4.9-1.5-6.5,0.1c-1.7,1.6-1.6,5.5,0.2,6.9C1992.7,212.2,1999.5,205.7,1994.7,201.8z"/>
		<path d="M2037.6,192.1c-1.8,1.2-6.8,4.9-4.8,7.5c0.4,0.5,1.1,0.5,1.5,0.8c0.5,0.4,0.8,1.2,1.5,1.5c1.5,0.7,3.3,0.1,4.8-0.5
			c2.2-0.9,7-3,4.3-6.4C2042.7,192.5,2040.8,189.8,2037.6,192.1z"/>
	</g>
	<path class="st10" d="M1975.9,112.8c-0.1,0.2-0.2,0.5-0.3,0.7c-1.4,3.9-2.4,8.8-6,10.4c-1.6,0.7-3.4,0.6-5,1.3
		c-0.5,0.3-1,0.6-1.4,1c-1.9,3.3-3.1,6.9-3.7,10.8c0.2,0.5,0.5,0.9,1,1.2c2.2,1.6,5-0.6,6.6-2.9c1.6-2.3,3.3-5.2,5.9-5.1
		c2.7,0.1,4.5,3.4,4.8,6.4c0.4,3,0,6.2,1.2,8.9c1,2.3,3,4,3.6,6.4c0.9,3.5-1.6,7.2-4.6,8.7s-6.4,1.6-9.7,2c-3.3,0.4-6.8,1.2-9.1,3.9
		c-0.7,0.9-1.3,1.8-1.7,2.9c0.1,0.5,0.2,0.9,0.4,1.4c0.8,2.6,2,5.1,2.7,7.8c1.6,6.1,0.2,13,2.6,18.7c2.4,0.5,4.9-0.1,6.7-1.9
		c7.2-7.6-9.1-13.4-2.3-22.3c2.9-3.7,8.2-2.7,12.6-3.5c8.5-1.5,14.3-11.1,14.8-20.5c0.2-3.7-0.4-7.8-3.1-9.9c-1-0.8-2.2-1.2-3.3-2
		c-2.5-1.7-4-4.8-3.9-8c0.1-3.2,1.8-6.2,4.4-7.7c1.4-0.8,3-1.2,4.4-1.8c3-1.3,5.5-3.7,7.1-6.7c1-2,1.7-4.3,1.4-6.6
		c-0.2-1.2-0.6-2.3-1.2-3.2c-0.7,0.1-1.4,0.1-2.1,0.2C1990.5,104.4,1982.7,107.8,1975.9,112.8z"/>
	<path class="st10" d="M2051.8,133.9c-1.2,4.6-3.5,9.5-7.7,10c-3.9,0.4-7.2-3.2-11.1-3.5c-4.8-0.3-9,4.6-13.8,4.2
		c-0.9-0.1-1.9-0.5-2.2-1.4c-0.3-1,0.6-2,1.3-2.7c3.5-3.1,7.5-5.5,11.8-7.1c1.6-0.6,3.4-1.1,4.7-2.3c1.4-1.1,2.4-3.1,1.9-4.9
		c-0.4-1.3-1.4-2.3-2.4-3.1c-1.8-1.5-3.6-3.1-5.4-4.6c-0.8-0.7-1.6-1.4-1.9-2.5c-0.3-0.9-0.1-2,0.2-2.9c0.9-2.8,2.2-5.1,3.9-7
		c0.1-0.1,0.2-0.3,0.3-0.4c1.9,0.4,3.8,0.9,5.6,1.6c0,0.3,0.1,0.5,0.1,0.8c0.8,4.3,3.4,7.8,6.9,9.5c-0.4,1.6-0.6,3.4-0.4,5.1
		C2044.2,128,2047.5,132.2,2051.8,133.9z"/>
	<path class="st10" d="M1983.5,181.1c0.8-1.8,2.8-2.5,4.7-2.5c1.8,0,3.7,0.4,5.5-0.1c1.1-0.3,2.2-1,3.3-1.2c1.9-0.4,3.9,0.6,5.6,1.5
		c5.4,2.8,14.6,5.6,16,13.1c0.9,4.8-1.8,7.2-5.9,8c-5,0.9-10.7-0.8-15.3-2.8C1993.3,195.2,1980.9,187.5,1983.5,181.1z"/>
	<path class="st10" d="M2028.1,158.8c2.8,0.5,5.2,2.7,7.9,3.7c3.4,1.2,7.2,0.7,10.5,2.3c2.5,1.3,4.4,3.7,6.2,6
		c0.8,1.1,1.8,2.5,1.3,3.9c-0.4,1.3-1.8,1.9-3.1,2.1c-2.8,0.5-5.8,0.4-8.5-0.3c-1.5-0.4-3.1-1-4.7-1c-1.6,0-3.3,0.7-4,2.3
		c-0.6,1.3-0.3,3.1-1.1,4.3c-1.4,2.2-4.4,1.1-6.5-0.2c-4.4-2.7-13.9-6.1-12.9-13.1C2014,162.5,2022.9,157.8,2028.1,158.8z"/>
	<g class="st6">
		<path class="st11" d="M2004.7,139c2.3-5.2,8.3-6.9,13.6-7.3c5.3-0.4,11-0.3,15.2-3.8c-6.9-3-14.4-4-21.7-2.8
			c-1.2,0.2-2.8,0.3-3.4-0.9c-0.7-1.4,0.7-2.9,1.8-3.8c5.7-4.4,10.8-9.6,15.4-15.4c-0.7-0.1-1.4-0.2-2.1-0.3
			c-3.1,0.1-5.5,1.7-7.9,4.1c-2.7,2.7-10.5,10.7-9.6,15.2c0.4,1.9,2.7,2.5,4.5,2.6c5.5,0.3,11.1,0.7,16.6,1
			c-6.2,1.3-12.4,2.6-18.6,3.9c-1,0.2-2.1,0.5-2.8,1.3c-0.6,0.8-0.8,1.8-0.9,2.8c-0.3,1.9-0.5,3.7-0.8,5.6
			C2004.2,140.4,2004.4,139.6,2004.7,139z"/>
		<path class="st11" d="M2030.4,143.8C2030.4,143.8,2030.4,143.8,2030.4,143.8c-1.9,0.1-3.5,1.2-5,2.3c-6.4,4.6-12.6,9.6-18.5,14.9
			c4.4-0.5,8.4-3.1,12.4-5.5c2.2-2.3,4.3-4.5,6.5-6.8C2027.2,147.1,2028.8,145.5,2030.4,143.8z"/>
		<path class="st11" d="M2003.5,147.4c0-1.1,0.1-2.1,0.1-3.2c-0.8,6-1.4,12-2,18.1C2002.7,157.4,2003.3,152.4,2003.5,147.4z"/>
	</g>
</g>
<path class="st4" d="M2005.3,247.8c-0.8-6.5-1.6-12.9-2-19.5c-0.3-6.3,0.1-12.6-1.3-18.7c-0.3-1.5-2.6-1.4-3,0
	c-1.7,6.1-1.4,12.5-1.3,18.7c0.1,4.2,0.2,8.5,0.3,12.7c-1.9-0.6-4-0.8-5.8-1c-5.9-0.5-11.9,0.5-17.8,1.4c-2.4,0.4-3.5,3.3-3,5.3
	c1.2,5.3,8,7,12.7,7.6c5.6,0.7,11.2-0.2,16.6-1.4c1.3-0.3,2.4-1.3,2.9-2.5C2004.7,250,2005.4,249.1,2005.3,247.8z"/>
<path class="st4" d="M2061.1,246.9c-1.2,5.3-8,7-12.7,7.6c-5.6,0.7-11.2-0.2-16.6-1.4c-1.3-0.3-2.4-1.3-2.9-2.5
	c-1-0.6-1.6-1.5-1.5-2.8c0.8-6.5,1.6-12.9,2-19.5c0.3-6.3-0.1-12.6,1.3-18.7c0.3-1.5,2.6-1.4,3,0c1.7,6.1,1.4,12.5,1.3,18.7
	c-0.1,4.2-0.2,8.5-0.3,12.7c1.9-0.5,4-0.8,5.8-1c5.9-0.5,11.9,0.5,17.8,1.4C2060.4,241.9,2061.5,244.8,2061.1,246.9z"/>
<g>
	<path class="st12" d="M2002,126.6c0.7,1.6,2.6,1.8,4,2c2.1,0.3,4.3-0.2,6.2-1.3c3.4-2,4.9-6.9,1.8-9.9
		C2009.4,112.9,1999.8,121.2,2002,126.6z"/>
	<path class="st12" d="M2066.3,157c-0.4-0.7-1.1-1.4-1.4-2.2c-0.2-0.7-0.1-1.2-0.3-1.8c-0.4-1.4-1.2-2.4-2.5-3
		c-3.4-1.5-5,1.8-4.4,4.7c0.5,2.5,2.5,5.3,5,6.2C2065,161.7,2067.8,159.5,2066.3,157z"/>
	<path class="st12" d="M1969.7,139.6c-1.9,0.6-4.8,3.4-4.3,5.6c0,0.2,1.5,1.8,1.5,1.9c1.2,1,2.3,1.5,3.9,1.1
		C1976.1,146.9,1975.3,137.9,1969.7,139.6z"/>
	<path class="st12" d="M1994.1,198.3c-1.9-1.4-5.2-1.4-7,0.1c-1.8,1.5-1.7,5.3,0.2,6.7C1991.9,208.3,1999.1,202.1,1994.1,198.3z"/>
	<path class="st12" d="M2039.7,188.8c-1.9,1.2-7.2,4.8-5.1,7.3c0.4,0.4,1.2,0.5,1.6,0.8c0.6,0.4,0.9,1.1,1.6,1.5
		c1.6,0.7,3.5,0.1,5.1-0.5c2.4-0.9,7.5-2.9,4.6-6.2C2045.2,189.2,2043.2,186.6,2039.7,188.8z"/>
</g>
<g>
	<path class="st2" d="M1997.1,174c2,3.9,5.1,7.4,9.2,8.9c2.9,1.1,6.1,1.1,9.2,1c2.5-0.1,4.9-0.3,7.3-1c4.7-1.3,8.8-4.5,11.3-8.7
		c0.1-0.2,0.2-0.4,0.3-0.6C2022.2,179.3,2010.9,178.2,1997.1,174z"/>
</g>
<ellipse transform="matrix(0.2091 -0.9779 0.9779 0.2091 1428.8784 2068.6692)" class="st13" cx="1993.3" cy="151" rx="7.1" ry="7.1"/>
<circle class="st13" cx="2040.7" cy="153.8" r="7.1"/>
<path class="st2" d="M2038.6,151.4c0,0.8-0.6,1.4-1.4,1.4s-1.4-0.6-1.4-1.4c0-0.8,0.6-1.4,1.4-1.4S2038.6,150.6,2038.6,151.4z"/>
<path class="st2" d="M1991,148.3c0,0.8-0.6,1.4-1.4,1.4c-0.8,0-1.4-0.6-1.4-1.4c0-0.8,0.6-1.4,1.4-1.4
	C1990.4,146.9,1991,147.6,1991,148.3z"/>
<path class="st13" d="M1987.4,136.3c-2.5-0.6-8.3,2.7-5.6,5.7c0.6,0.7,2,0.8,2.7,0.1c0.1,0,0.2-0.1,0.2-0.1c0.4-0.1,0.8-0.3,1.2-0.5
	c1.1-0.4,2.2-1.1,2.7-2.2C1989.2,138.2,1988.8,136.6,1987.4,136.3z"/>
<path class="st13" d="M2048.6,141c-1.2-0.5-3.3-2-4.3-0.4c-1,1.5,0.5,3.5,1.6,4.4c1.5,1.3,4.3,2.2,5.5,0.1
	C2052.6,143,2050.1,141.7,2048.6,141z"/>
<path class="st14" d="M1990.9,165.2c-2.3-2.7-6.8-2.9-10.4-2.6c-3.1,0.1-6.4,1.1-8.6,2.1c-2.2,1-1.7,4,0,5.2
	c3.9,2.7,8.7,3.6,13.3,2.6C1988.1,171.8,1994.3,169.1,1990.9,165.2z"/>
<path class="st14" d="M2059.2,164.6c-2.1-1.9-5.5-2.2-8.2-2.4c-0.7,0-1.3-0.1-2.1-0.1c-0.4-0.1-0.7-0.1-1.1-0.2
	c-2.4-0.3-6.4-0.4-8.1,1.6c-5.2,5.7,8,8.7,11.1,9c2.7,0.3,6.3,0.2,8.4-1.7C2061.1,169.1,2061,166.3,2059.2,164.6z"/>
<g>
	<g>
		<path class="st2" d="M2119.8,194c7.5,3,15.8,4.7,23.8,3.5c8-1.2,15.8-5.5,20-12.5c4.7-7.8,1.7-16.9-3.7-23.5
			c-4.9-6-12.9-7.8-20.1-5c-8,3.1-13.6,9.8-19.4,15.8c-2.7,2.8-5.5,6-9,8c-3.9,2.2-8.3,2.3-12.7,2.2
			C2098.7,182.5,2112.3,191,2119.8,194z"/>
	</g>
	<g>
		<path class="st15" d="M2159,166.6c4.3,3.6,5.5,10.1,3.4,15.2c-2.1,5.2-6.9,8.9-12.2,10.4c9.3-2.6,15.1-17.2,9.1-25.2
			C2159.3,167,2159,166.6,2159,166.6z"/>
	</g>
	<g>
		<g>
			<radialGradient id="SVGID_4_" cx="2141.7644" cy="187.0849" r="19.6635" gradientUnits="userSpaceOnUse">
				<stop  offset="0.1684" style="stop-color:#C0181E"/>
				<stop  offset="0.7653" style="stop-color:#DC2925"/>
			</radialGradient>
			<path class="st16" d="M2152.3,179.8c0,2.6-0.9,4.7-3.5,4.7h-13.3c-2.6,0-3.7-2.1-3.7-4.7v-4.9c0-2.6,1-4.7,3.6-4.7h13.5
				c2.6,0,3.3,2.1,3.3,4.7V179.8z"/>
			<g>
				<polygon class="st2" points="2140,174.5 2145.6,177.4 2140,180.3 				"/>
				<polygon class="st17" points="2140,174.6 2144.9,177.8 2145.6,177.4 2140.5,174.7 2140,174.6 				"/>
			</g>
		</g>
	</g>
</g>
<g>
	<g>
		<path class="st2" d="M1925,114.9c-5.4-2.9-13.4-1.9-19-0.2c-17.3,5.2-35.2,21.9-34.3,41.4c0.5,10.4,8.6,19.5,18.1,23
			c9.3,3.4,19.3,0.1,25.4-7.6c4.2-5.2,6.2-11.8,5.5-18.5c-1-10-8.8-18.6-6.5-29c0.5-2.4,1.7-4.7,3.5-6.3
			C1919.7,115.9,1922.5,115.7,1925,114.9z"/>
	</g>
	<g>
		
			<radialGradient id="SVGID_5_" cx="1894.4026" cy="161.856" r="30.004" gradientTransform="matrix(0.9998 2.090000e-02 -2.090000e-02 0.9998 3.377 -31.663)" gradientUnits="userSpaceOnUse">
			<stop  offset="0" style="stop-color:#3C5996"/>
			<stop  offset="0.301" style="stop-color:#3C5996"/>
			<stop  offset="1" style="stop-color:#5F81CD"/>
		</radialGradient>
		<path class="st18" d="M1905.2,160.4c-0.1,2.5-2.1,4.5-4.7,4.5l-13.1-0.3c-2.5-0.1-4.5-2.1-4.5-4.7l0.3-13.1
			c0.1-2.5,2.1-4.5,4.7-4.5l13.1,0.3c2.5,0.1,4.5,2.1,4.5,4.7L1905.2,160.4z"/>
		<path class="st2" d="M1900.3,148.7l2.1,0l0.1-3.2l-2.6-0.1l0,0l-0.5,0c0,0-1.9-0.1-3.2,1.5c0,0-0.9,0.8-0.9,3.1h0l-0.1,2.4l-3-0.1
			l-0.1,3.4l3,0.1l-0.2,8.9l3.5,0.1l0.2-8.9l3,0.1l0.5-3.4l-3.4-0.1l0.1-2.4h0C1898.7,149.9,1898.9,148.7,1900.3,148.7z"/>
	</g>
	<g>
		<path class="st15" d="M1914,160.8c0.6,5.2-2.7,10.3-7.4,12.6c-4.7,2.2-10.4,1.6-15-0.7c7.9,4.2,21.3-2,22.3-11.3L1914,160.8z"/>
	</g>
</g>
<g>
	<circle class="st2" cx="1991.4" cy="70.4" r="14.9"/>
	<g>
		
			<ellipse transform="matrix(0.928 -0.3727 0.3727 0.928 117.0235 747.1804)" class="st19" cx="1991.1" cy="70.9" rx="10.1" ry="10.1"/>
		<g>
			<path class="st2" d="M1985,68.5l2.7-0.1l0.4,8.7l-2.7,0.1L1985,68.5z M1986.2,64.1c0.9,0,1.6,0.6,1.6,1.5c0,0.9-0.6,1.6-1.5,1.6
				c-0.9,0-1.6-0.6-1.6-1.5C1984.6,64.9,1985.3,64.2,1986.2,64.1"/>
			<path class="st2" d="M1989.4,68.3l2.6-0.1l0.1,1.2l0,0c0.3-0.7,1.2-1.5,2.5-1.5c2.7-0.1,3.3,1.6,3.4,4l0.2,4.8l-2.7,0.1l-0.2-4.2
				c0-1-0.1-2.3-1.5-2.2c-1.4,0.1-1.6,1.2-1.5,2.3l0.2,4.3l-2.7,0.1L1989.4,68.3z"/>
		</g>
	</g>
</g>
<g>
	<g>
		<path class="st2" d="M2066.8,107.1c7.8-1.4,11.2-9.1,16.1-14.4c6-6.6,15.2-10.6,24.3-9.7c9.6,1,16.7,8.7,15.4,18.6
			c-1.3,9.9-9.9,16.9-19.6,17.7c-6.6,0.6-13.2-1.2-19.3-3.8c-6.1-2.5-11.9-5.6-17.9-8.3C2066.1,107.2,2066.4,107.2,2066.8,107.1z"/>
	</g>
	<g>
		<path class="st20" d="M2088.7,109c7.4,5.2,15.8,1.8,19.5-3.5c0.1-0.2,0.2-0.4,0.4-0.5c1.2,0,2.4-0.3,3.5-0.7
			c-0.9-0.2-1.9-0.5-2.8-1c1.2,0.1,2.4-0.3,3.3-1c-1.1-0.1-2.2-0.3-3.3-0.8c-0.2-1.3-0.9-2.5-2.1-3.3c-2.2-1.6-5.3-1-6.9,1.2
			c-0.2,0.3-0.4,0.6-0.5,1c-3.2-2.5-5.1-6.2-5.4-10c-0.8,0.4-1.4,0.9-2,1.7c-1,1.4-1.1,3.1-0.5,4.6c-0.6-0.5-1.1-1.1-1.5-1.8
			c0,0,0,0,0,0.1c-1.4,2-1.1,4.6,0.5,6.2c-0.4-0.1-0.8-0.3-1.2-0.6c-0.3-0.2-0.5-0.4-0.7-0.6c-0.6,2,0.1,4.2,1.8,5.4
			c-2.1,0.1-4.3-0.4-6.2-1.8c-0.3-0.2-0.6-0.5-0.9-0.7C2084.8,105.3,2086.4,107.4,2088.7,109"/>
	</g>
</g>
<g>
	<g>
		<path class="st2" d="M1916.3,84.8c-7.7-5-14.6-11.5-18.8-19.6c-4.2-8.2-5.3-18.2-1.6-26.6c4.1-9.4,14.5-12.6,24.1-12
			c8.8,0.6,15.6,6.8,17.7,15.3c2.4,9.4-0.1,19-1.8,28.2c-0.8,4.3-1.9,9-1.5,13.6c0.5,5.1,3.3,9.2,6.3,13.1
			C1940.7,96.8,1924,89.8,1916.3,84.8z"/>
	</g>
	<g>
		<path class="st15" d="M1915.9,30.8c-6.1-1.6-12.9,1.5-16.3,6.8c-3.4,5.3-3.7,12.2-1.6,18.1c-3.7-10.2,5.9-25.2,17.2-24.9
			L1915.9,30.8z"/>
	</g>
</g>
<g class="st21">
	<path class="st2" d="M2129.5,138.7c1-0.6,1.2-2,1.2-3.2c0-2.2,0.1-4.4,0.1-6.6c0-0.9,0-1.8,0.5-2.6c0.5-0.8,1.5-1.2,2.3-0.7
		c0.3,0.2,0.6,0.6,0.7,1C2136.6,131.2,2133.9,136.4,2129.5,138.7z"/>
</g>
<g class="st21">
	<path class="st2" d="M2130.2,140.4c1.9,0.6,3.9-0.8,5.4-2.1c2.8-2.4,5.7-4.9,8.5-7.3c1.1-1,2.4-2,3.9-2.3c1.5-0.3,3.3,0.6,3.5,2.1
		c0.1,0.7-0.1,1.4-0.4,2C2147.5,141,2138,143.3,2130.2,140.4z"/>
</g>
<g class="st21">
	<path class="st2" d="M1953.8,103.1c0.5-1.1-0.3-2.3-1-3.3c-1.3-1.8-2.6-3.6-3.9-5.4c-0.5-0.7-1.1-1.5-1.2-2.4
		c-0.1-0.9,0.5-1.9,1.4-2c0.4,0,0.8,0.2,1.2,0.3C1955,92.8,1955.9,98.6,1953.8,103.1z"/>
</g>
<g class="st21">
	<path class="st2" d="M1960.9,104c1.1,0.4,2.3-0.4,3.3-1.1c1.7-1.4,3.5-2.8,5.2-4.2c0.7-0.6,1.4-1.2,2.3-1.3c0.9-0.1,1.9,0.4,2,1.3
		c0,0.4-0.1,0.8-0.3,1.2C1971.2,104.7,1965.5,105.9,1960.9,104z"/>
</g>
<g class="st21">
	<path class="st2" d="M1955.4,104c1.9-0.6,2.7-2.9,3.1-4.9c0.8-3.6,1.6-7.3,2.5-10.9c0.3-1.5,0.7-3,1.8-4.1s3-1.5,4.1-0.4
		c0.5,0.5,0.7,1.2,0.9,1.8C1969.6,94.2,1963.4,101.7,1955.4,104z"/>
</g>
<g class="st21">
	<path class="st2" d="M1919.9,192.2c-1.7,2.4-3.2,4.9-3.6,8.1c-0.2,1.7-0.1,3.6,1.6,4.5c5.3,2.6,8.5-7.9,9.6-11.3
		c2.7-8.6-0.4-18.9-0.9-16.1c-0.6,3.2-1.7,6.5-3.2,9.5C1922.4,188.7,1921.1,190.4,1919.9,192.2z"/>
</g>
<g>
	<g>
		<path class="st2" d="M2042.4,87.6c-1.2-5.9-2.1-11.7-3.7-17.5c-1.5-5.4-4.5-10.4-5.7-16c-1.6-7.5-0.3-15.6,5.4-21.1
			c7.5-7.3,19.3-7.1,28-1.9c9.8,5.8,14.1,16.2,10,26.9c-4.5,11.9-15.8,22.3-27.4,27.3c-2.1,0.9-4.4,2.1-6.5,2.6
			C2042.4,87.8,2042.4,87.7,2042.4,87.6z"/>
	</g>
	<g>
		
			<radialGradient id="SVGID_6_" cx="2049.8049" cy="60.5347" r="31.9883" gradientTransform="matrix(0.9999 1.670000e-02 -1.670000e-02 0.9999 0.5423 -28.1268)" gradientUnits="userSpaceOnUse">
			<stop  offset="9.693880e-02" style="stop-color:#FDD679"/>
			<stop  offset="0.1546" style="stop-color:#FAC976"/>
			<stop  offset="0.2605" style="stop-color:#F3A86C"/>
			<stop  offset="0.4016" style="stop-color:#E6735D"/>
			<stop  offset="0.449" style="stop-color:#E25F58"/>
			<stop  offset="0.6786" style="stop-color:#CF2A9A"/>
			<stop  offset="1" style="stop-color:#6868DD"/>
		</radialGradient>
		<path class="st22" d="M2066.3,60.1c0,2.7-2.3,4.9-5,4.9l-14.2-0.2c-2.7,0-4.9-2.3-4.9-5l0.2-14.2c0-2.7,2.3-4.9,5-4.9l14.2,0.2
			c2.7,0,4.9,2.3,4.9,5L2066.3,60.1z"/>
		<g>
			<path class="st2" d="M2058,43.7l-7-0.1c-3.1-0.1-5.7,2.4-5.7,5.5l-0.1,7c-0.1,3.1,2.4,5.6,5.5,5.7l7,0.1c3.1,0.1,5.7-2.4,5.7-5.5
				l0.1-7C2063.6,46.3,2061.1,43.8,2058,43.7z M2061.7,55.7c0,2.5-2.1,4.5-4.6,4.5l-5.6-0.1c-2.5,0-4.5-2.1-4.5-4.6l0.1-5.6
				c0-2.5,2.1-4.5,4.6-4.5l5.6,0.1c2.5,0,4.5,2.1,4.5,4.6L2061.7,55.7z"/>
			<path class="st2" d="M2054.7,48c-2.6,0-4.8,2.1-4.9,4.7c0,2.6,2.1,4.8,4.7,4.9c2.6,0,4.8-2.1,4.9-4.7
				C2059.4,50.2,2057.3,48.1,2054.7,48z M2054.6,55.7c-1.6,0-2.9-1.3-2.8-2.9c0-1.6,1.3-2.9,2.9-2.8c1.6,0,2.9,1.3,2.8,2.9
				C2057.5,54.5,2056.2,55.7,2054.6,55.7z"/>
			<path class="st2" d="M2060.4,48c0,0.7-0.6,1.2-1.2,1.2c-0.7,0-1.2-0.6-1.2-1.2c0-0.7,0.6-1.2,1.2-1.2
				C2059.8,46.8,2060.4,47.4,2060.4,48z"/>
		</g>
	</g>
	<g>
		<path class="st15" d="M2055.1,32.2c5.6-1.5,11.8,1.4,14.9,6.2c3.2,4.9,3.4,11.2,1.5,16.6c3.4-9.4-5.4-23.1-15.8-22.8
			C2055.7,32.2,2055.1,32.2,2055.1,32.2z"/>
	</g>
</g>
<circle class="st23" cx="1919" cy="182.8" r="2.8"/>
<path class="st23" d="M2017.5,78.5c0,1.5-1.2,2.8-2.8,2.8c-1.5,0-2.8-1.2-2.8-2.8c0-1.5,1.2-2.8,2.8-2.8
	C2016.3,75.7,2017.5,77,2017.5,78.5z"/>
<circle class="st23" cx="2127.7" cy="148.8" r="2.8"/>
<g>
	<line class="st24" x1="2079.7" y1="33" x2="2090.7" y2="23.2"/>
	<line class="st24" x1="2083.2" y1="37.9" x2="2096.8" y2="32.4"/>
	<line class="st24" x1="2084.9" y1="45.9" x2="2099.5" y2="47"/>
	<line class="st24" x1="2075" y1="30.3" x2="2082.3" y2="17.6"/>
</g>
<g>
	<line class="st24" x1="1856.7" y1="148" x2="1842.1" y2="148.2"/>
	<line class="st24" x1="1857.3" y1="139.6" x2="1843.5" y2="134.7"/>
	<line class="st24" x1="1860" y1="131.1" x2="1847.9" y2="122.9"/>
	<line class="st24" x1="1858.5" y1="156.6" x2="1844.6" y2="161.3"/>
</g>
<g>
	<path class="st3" d="M2006.5,140.2c-1.3-2.5-4.5-4.5-12.9-6c-8.3-1.4-16.7-0.1-20.5,2c-2.9,1.5-3.9,5.8-4.3,7.8
		c-0.1,2.8,0,9,1.6,13.4c1.6,4.7,4.4,7.3,9.2,8.6c4.8,1.4,11.1,1.3,15.6-0.1c4.9-1.5,8.4-5.4,10-11c1.8-6.2,2.2-12.2,1.5-14.5
		C2006.6,140.4,2006.5,140.3,2006.5,140.2z"/>
	<path class="st3" d="M2058.8,136.3c-3.9-2.1-12.2-3.4-20.5-2c-8.3,1.4-11.5,3.5-12.9,6c0,0.1-0.1,0.2-0.1,0.3
		c-0.6,2.3-0.2,8.4,1.5,14.5c1.6,5.6,5.2,9.4,10,11c4.5,1.4,10.8,1.4,15.6,0.1c4.8-1.4,7.5-3.9,9.2-8.6c1.5-4.4,1.7-10.6,1.6-13.4
		C2062.8,142,2061.7,137.8,2058.8,136.3z"/>
	<path class="st25" d="M2063.6,132.9c-4.9-0.9-21.8-2.8-32.6-0.8c-10.5,1.9-9.5,4.5-9.4,5.4c-1.7-1.1-3.7-1.5-5.7-1.5
		s-4,0.4-5.7,1.5c0.1-1,1.1-3.5-9.4-5.4c-10.8-2-27.8-0.1-32.8,0.8c-4.9,0.9-7.2,2.1-7.2,2.1v5.4c0,0,2-0.8,3.5,1.1
		c1.3,1.6,1.6,3,3.2,3.6c-0.1,3.2,0.2,8.7,1.7,12.8c1.8,5,4.8,7.9,9.9,9.3c2.4,0.7,5.2,1,8,1c2.9,0,5.8-0.4,8.2-1.1
		c5.2-1.6,9.1-5.8,10.8-11.7c1.6-5.4,2-10.6,1.7-13.7c0.4,0.1,0.8,0,1.2-0.4v0c0,0,0,0,0,0c0.1-0.1,0.2-0.2,0.2-0.2
		c0.6-0.6,2.6-2.3,6.6-2.3c4,0,6,1.7,6.6,2.3c0.1,0.1,0,0.2,0.1,0.2c0,0-0.1,0-0.1,0v0c0.4,0.4,0.9,0.5,1.4,0.4
		c-0.3,3,0.3,8.3,1.9,13.7c1.7,5.9,5.6,10.1,10.8,11.7c2.4,0.8,5.3,1.1,8.2,1.1c2.8,0,5.6-0.3,8-1c5.1-1.4,8.2-4.3,9.9-9.3
		c1.4-4.1,1.7-9.6,1.7-12.8c1.5-0.6,1.7-2,3-3.6c1.5-1.9,3.3-1.1,3.3-1.1v-5.4C2070.7,134.9,2068.5,133.7,2063.6,132.9z
		 M1966.4,137.8c-1.8,0-3.2-0.3-3.2-0.6c0-0.3,1.4-0.6,3.2-0.6c1.8,0,3.2,0.3,3.2,0.6C1969.6,137.5,1968.2,137.8,1966.4,137.8z
		 M2005.1,155c-1.6,5.6-5.2,9.4-10,11c-4.5,1.4-10.8,1.4-15.6,0.1c-4.8-1.4-7.5-3.9-9.2-8.6c-1.5-4.4-1.7-10.6-1.6-13.4
		c0.4-2.1,1.4-6.3,4.3-7.8c3.9-2.1,12.2-3.4,20.5-2c8.3,1.4,11.5,3.5,12.9,6c0,0.1,0.1,0.2,0.1,0.3
		C2007.3,142.8,2006.9,148.9,2005.1,155z M2061.6,157.5c-1.6,4.7-4.4,7.3-9.2,8.6c-4.8,1.4-11.1,1.3-15.6-0.1
		c-4.9-1.5-8.4-5.4-10-11c-1.8-6.2-2.2-12.2-1.5-14.5c0-0.1,0.1-0.2,0.1-0.3c1.3-2.5,4.5-4.5,12.9-6c8.3-1.4,16.7-0.1,20.5,2
		c2.9,1.5,3.9,5.8,4.3,7.8C2063.3,146.9,2063.1,153.1,2061.6,157.5z M2065.5,137.8c-1.8,0-3.2-0.3-3.2-0.6c0-0.3,1.4-0.6,3.2-0.6
		c1.8,0,3.2,0.3,3.2,0.6C2068.7,137.5,2067.3,137.8,2065.5,137.8z"/>
	<path class="st2" d="M1969.6,137.2c0-0.3-1.4-0.6-3.2-0.6c-1.8,0-3.2,0.3-3.2,0.6c0,0.3,1.4,0.6,3.2,0.6
		C1968.2,137.8,1969.6,137.5,1969.6,137.2z"/>
	<path class="st2" d="M2065.5,136.6c-1.8,0-3.2,0.3-3.2,0.6c0,0.3,1.4,0.6,3.2,0.6c1.8,0,3.2-0.3,3.2-0.6
		C2068.7,136.8,2067.3,136.6,2065.5,136.6z"/>
</g>
<g>
	<g>
		<defs>
			<path id="SVGID_7_" d="M1931.3,50.8c0,7.8-6.3,14.1-14.1,14.1c-7.8,0-14.1-6.3-14.1-14.1c0-7.8,6.3-14.1,14.1-14.1
				C1925,36.8,1931.3,43,1931.3,50.8z"/>
		</defs>
		<clipPath id="SVGID_8_">
			<use xlink:href="#SVGID_7_"  style="overflow:visible;"/>
		</clipPath>
		<g class="st26">
			<path class="st27" d="M1931.3,50.8c0,7.8-6.3,14.1-14.1,14.1c-7.8,0-14.1-6.3-14.1-14.1c0-7.8,6.3-14.1,14.1-14.1
				C1925,36.8,1931.3,43,1931.3,50.8z"/>
			
				<linearGradient id="SVGID_9_" gradientUnits="userSpaceOnUse" x1="2059.3921" y1="727.2086" x2="2059.575" y2="751.3507" gradientTransform="matrix(0.9347 -0.9347 0.7071 0.7071 -530.0049 1457.3635)">
				<stop  offset="0" style="stop-color:#B3B3B3"/>
				<stop  offset="0.7704" style="stop-color:#FFFFFF"/>
			</linearGradient>
			<polygon class="st28" points="1932.3,60.5 1923.2,69.7 1908.4,54.9 1909.7,46.8 1917.6,45.7 			"/>
			<path class="st2" d="M1919.7,49.8L1919.7,49.8h-2.4h-3.9V52h3.8c-0.5,1.6-2,2.8-3.8,2.8c-2.2,0-4-1.8-4-4.1c0-2.3,1.8-4.1,4-4.1
				c1,0,1.9,0.4,2.6,0.9h0.1l1.7-1.7c-1.1-1.1-2.7-1.7-4.3-1.7c-3.6,0-6.4,2.9-6.4,6.5c0,3.6,2.9,6.5,6.4,6.5c0.5,0,0.9,0,1.4-0.2
				c0.9-0.2,1.8-0.6,2.5-1.2c0.7-0.6,1.3-1.3,1.8-2.1c0.2-0.4,0.4-0.9,0.5-1.3c0.2-0.6,0.1-1.2,0.1-1.8
				C1919.7,50.4,1919.7,50.1,1919.7,49.8z"/>
			
				<linearGradient id="SVGID_10_" gradientUnits="userSpaceOnUse" x1="2996.5676" y1="659.1696" x2="2996.7163" y2="678.8077" gradientTransform="matrix(0.3845 -0.3845 0.3363 0.3363 549.6479 980.1451)">
				<stop  offset="0" style="stop-color:#B3B3B3"/>
				<stop  offset="0.7704" style="stop-color:#FFFFFF"/>
			</linearGradient>
			<polygon class="st29" points="1932.6,54.9 1928.8,58.7 1921.8,51.6 1925.6,47.9 			"/>
			<rect x="1923.7" y="47.9" class="st2" width="1.9" height="5.6"/>
			<rect x="1921.8" y="49.7" class="st2" width="5.6" height="1.9"/>
		</g>
	</g>
</g>
</svg>
