<?xml version="1.0" encoding="utf-8"?>
<!-- Generator: Adobe Illustrator 24.0.0, SVG Export Plug-In . SVG Version: 6.00 Build 0)  -->
<svg version="1.1" id="Capa_1" xmlns="http://www.w3.org/2000/svg" xmlns:xlink="http://www.w3.org/1999/xlink" x="0px" y="0px"
	 viewBox="0 0 2184 270" style="enable-background:new 0 0 2184 270;" xml:space="preserve">
<style type="text/css">
	.st0{fill:url(#Rectángulo_1_1_);}
	.st1{fill:url(#SVGID_1_);}
	.st2{fill:#FFFFFF;}
	.st3{fill:none;}
</style>
<linearGradient id="Rectángulo_1_1_" gradientUnits="userSpaceOnUse" x1="1480.4155" y1="-11.4005" x2="3653.1213" y2="-841.5181" gradientTransform="matrix(1 0 0 -1 0 272)">
	<stop  offset="0" style="stop-color:#E86D1D"/>
	<stop  offset="1" style="stop-color:#000000"/>
</linearGradient>
<rect id="Rectángulo_1" x="-14" y="-15" class="st0" width="2212" height="300"/>
<linearGradient id="SVGID_1_" gradientUnits="userSpaceOnUse" x1="1505.1204" y1="3107.1387" x2="2128.447" y2="3107.1387" gradientTransform="matrix(-0.7197 -0.6943 -0.6943 0.7197 3479.9368 -1049.0833)">
	<stop  offset="0" style="stop-color:#E8891D"/>
	<stop  offset="1" style="stop-color:#E06E1C"/>
</linearGradient>
<path class="st1" d="M219.2,118.1c69.7,8.7,119.1-77.1,88-145c-6.3-13.7-21.3-36.6-26.9-45.9c-42.9-71.7,30.9-121.4,14.8-194.2
	s-84.9-64.7-128.4-63.9c-87.3,1.5-103.2-104.3-180.4-66.5c-34,16.6-76.2,66-97.9,97.2c-69.5,99.8-71.4,98.4-150.9,113.8
	c-32.6,6.3-61.5,14.4-84.6,38.7c-36.9,38.9-30.7,88.4-0.1,119.6C-245.8,75.6-245,42.3-209.8,154.7c13.1,41.7,33.5,80.5,71.9,100.9
	c44.6,23.8,100.6,19.5,126.4-23.2c26.1-43.1,31.3-98.6,74.7-98c43.3,0.7,75,42.9,111.2,9.1c4.4-4.1,13.3-16.2,19.6-22.1
	C201.8,114.1,209.1,116.8,219.2,118.1z"/>
<g>
	<g>
		<path class="st2" d="M251.5,62.5v11.8h19.1v10.3h-19.1v12.6H273v11h-35.2V51.7H273v10.9L251.5,62.5L251.5,62.5z"/>
		<path class="st2" d="M310.6,67.3c3.4,2.8,5.5,6.6,6.4,11.2h-12.8c-0.4-1.8-1.2-3.2-2.5-4.3c-1.3-1-2.9-1.6-4.9-1.6
			c-1.5,0-2.7,0.3-3.5,1s-1.2,1.6-1.2,2.8c0,1.4,0.7,2.4,2.2,3.1s3.8,1.4,6.9,2.1c3.4,0.8,6.2,1.6,8.4,2.4c2.2,0.8,4.1,2.2,5.7,4
			c1.6,1.9,2.4,4.4,2.4,7.5c0,2.6-0.7,4.8-2.1,6.8s-3.4,3.5-6,4.6s-5.7,1.7-9.3,1.7c-6,0-10.9-1.3-14.5-4s-5.8-6.5-6.6-11.4h13.2
			c0.2,1.9,1,3.4,2.4,4.4s3.2,1.5,5.5,1.5c1.5,0,2.7-0.4,3.5-1.1s1.2-1.7,1.2-2.8c0-1.5-0.7-2.7-2.2-3.3c-1.5-0.7-3.9-1.4-7.2-2.1
			c-3.3-0.7-6-1.4-8.2-2.2c-2.1-0.8-4-2.1-5.5-3.9s-2.3-4.2-2.3-7.3c0-4,1.5-7.2,4.6-9.7c3-2.5,7.3-3.7,12.9-3.7
			C302.7,63,307.2,64.4,310.6,67.3z"/>
		<path class="st2" d="M350.5,96.5v11.8h-6.2c-5.2,0-9.3-1.3-12.2-3.9c-2.9-2.6-4.4-6.9-4.4-12.8V75.1h-6V63.6h6v-11h13.7v11h9v11.5
			h-9v16.6c0,1.8,0.4,3,1.1,3.7s1.9,1,3.6,1h4.4V96.5z"/>
		<path class="st2" d="M383.9,65.3c2.5,1.5,4.3,3.7,5.4,6.3v-8.1h13.6v44.6h-13.6V100c-1.2,2.7-3,4.8-5.4,6.3
			c-2.5,1.5-5.4,2.3-8.8,2.3c-3.7,0-7-0.9-9.9-2.8c-2.9-1.8-5.2-4.5-6.9-8c-1.7-3.5-2.5-7.5-2.5-12.2s0.8-8.8,2.5-12.2
			s4-6.1,6.9-7.9c2.9-1.8,6.2-2.8,9.9-2.8C378.5,63,381.4,63.8,383.9,65.3z M372.4,77.9c-1.8,1.9-2.7,4.6-2.7,8s0.9,6.1,2.7,8
			c1.8,1.9,4.1,2.9,7.1,2.9c2.9,0,5.2-1,7.1-3c1.8-2,2.8-4.6,2.8-7.9c0-3.4-0.9-6-2.8-8c-1.8-1.9-4.2-2.9-7.1-2.9
			S374.2,76,372.4,77.9z"/>
		<path class="st2" d="M483.2,68.2c3.1,3.4,4.7,8.1,4.7,14.1v25.9h-13.6V83.9c0-2.8-0.8-5-2.3-6.6s-3.6-2.4-6.2-2.4
			c-2.7,0-4.9,0.8-6.4,2.5c-1.6,1.7-2.4,4-2.4,7.1v23.7h-13.7V83.9c0-2.8-0.7-5-2.2-6.6s-3.5-2.4-6.2-2.4s-4.9,0.8-6.5,2.5
			s-2.4,4-2.4,7.1v23.7h-13.7V63.6H426v7.6c1.2-2.5,3-4.5,5.4-5.9s5.3-2.2,8.5-2.2c3.4,0,6.4,0.8,9,2.4s4.6,3.8,5.9,6.8
			c1.5-2.8,3.7-5,6.4-6.6c2.7-1.7,5.7-2.5,8.9-2.5C475.7,63.1,480,64.8,483.2,68.2z"/>
		<path class="st2" d="M529.7,65.8c3.5,1.8,6.2,4.5,8.2,8s3,7.5,3,12.2c0,4.6-1,8.7-3,12.2s-4.7,6.1-8.2,8
			c-3.5,1.8-7.5,2.8-11.9,2.8s-8.4-0.9-11.9-2.8c-3.5-1.8-6.3-4.5-8.3-8s-3-7.5-3-12.2c0-4.6,1-8.7,3-12.2s4.8-6.1,8.3-8
			c3.5-1.8,7.5-2.8,11.9-2.8C522.3,63,526.2,63.9,529.7,65.8z M511.3,77.7c-1.8,1.9-2.7,4.6-2.7,8.2s0.9,6.3,2.7,8.2
			c1.8,1.9,4,2.8,6.6,2.8s4.8-0.9,6.6-2.8s2.6-4.6,2.6-8.2s-0.9-6.3-2.6-8.2c-1.8-1.9-3.9-2.8-6.6-2.8
			C515.3,74.9,513.1,75.8,511.3,77.7z"/>
		<path class="st2" d="M577.9,67.3c3.4,2.8,5.5,6.6,6.4,11.2h-12.8c-0.4-1.8-1.2-3.2-2.5-4.3c-1.3-1-2.9-1.6-4.9-1.6
			c-1.5,0-2.7,0.3-3.5,1s-1.2,1.6-1.2,2.8c0,1.4,0.7,2.4,2.2,3.1s3.8,1.4,6.9,2.1c3.4,0.8,6.2,1.6,8.4,2.4s4.1,2.2,5.7,4
			c1.6,1.9,2.4,4.4,2.4,7.5c0,2.6-0.7,4.8-2.1,6.8c-1.4,2-3.4,3.5-6,4.6s-5.7,1.7-9.3,1.7c-6,0-10.9-1.3-14.5-4s-5.8-6.5-6.6-11.4
			h13.2c0.2,1.9,1,3.4,2.4,4.4s3.2,1.5,5.5,1.5c1.5,0,2.7-0.4,3.5-1.1s1.2-1.7,1.2-2.8c0-1.5-0.7-2.7-2.2-3.3
			c-1.5-0.7-3.9-1.4-7.2-2.1s-6-1.4-8.2-2.2c-2.1-0.8-4-2.1-5.5-3.9s-2.3-4.2-2.3-7.3c0-4,1.5-7.2,4.6-9.7c3-2.5,7.3-3.7,12.9-3.7
			C570,63,574.5,64.4,577.9,67.3z"/>
		<path class="st2" d="M633.8,96.5v11.8h-6.2c-5.2,0-9.3-1.3-12.2-3.9s-4.4-6.9-4.4-12.8V75.1h-6V63.6h6v-11h13.7v11h9v11.5h-9v16.6
			c0,1.8,0.4,3,1.1,3.7c0.7,0.7,1.9,1,3.6,1h4.4V96.5z"/>
		<path class="st2" d="M661.7,65.5c2.7-1.6,5.6-2.4,8.8-2.4v14.6h-3.9c-3.6,0-6.4,0.8-8.4,2.3s-3,4.2-3,7.8v20.3h-13.7V63.6h13.7V72
			C656.8,69.3,659,67.1,661.7,65.5z"/>
		<path class="st2" d="M702,65.3c2.5,1.5,4.3,3.7,5.4,6.3v-8.1H721v44.6h-13.6V100c-1.2,2.7-3,4.8-5.4,6.3c-2.5,1.5-5.4,2.3-8.8,2.3
			c-3.7,0-7-0.9-9.9-2.8c-2.9-1.8-5.2-4.5-6.9-8s-2.5-7.5-2.5-12.2s0.8-8.8,2.5-12.2s4-6.1,6.9-7.9c2.9-1.8,6.2-2.8,9.9-2.8
			C696.6,63,699.5,63.8,702,65.3z M690.5,77.9c-1.8,1.9-2.7,4.6-2.7,8s0.9,6.1,2.7,8s4.1,2.9,7.1,2.9c2.9,0,5.2-1,7.1-3
			c1.8-2,2.8-4.6,2.8-7.9c0-3.4-0.9-6-2.8-8c-1.8-1.9-4.2-2.9-7.1-2.9S692.3,76,690.5,77.9z"/>
		<path class="st2" d="M768.2,65.8c2.9,1.8,5.2,4.5,6.9,7.9s2.5,7.5,2.5,12.2c0,4.6-0.8,8.7-2.5,12.2s-4,6.1-6.9,8
			c-2.9,1.8-6.2,2.8-9.9,2.8c-3.4,0-6.3-0.8-8.8-2.3s-4.2-3.7-5.4-6.3v8.1h-13.7V49h13.7v22.6c1.1-2.7,2.9-4.8,5.4-6.3
			s5.4-2.3,8.8-2.3C762,63,765.3,63.9,768.2,65.8z M746.8,77.9c-1.8,1.9-2.8,4.6-2.8,8c0,3.3,0.9,5.9,2.8,7.9c1.8,2,4.2,3,7.1,3
			c2.9,0,5.3-1,7.1-2.9s2.7-4.6,2.7-8s-0.9-6.1-2.7-8s-4.1-2.9-7.1-2.9C751,75,748.7,76,746.8,77.9z"/>
		<path class="st2" d="M810.4,65.3c2.5,1.5,4.3,3.7,5.4,6.3v-8.1h13.6v44.6h-13.6V100c-1.2,2.7-3,4.8-5.4,6.3
			c-2.5,1.5-5.4,2.3-8.8,2.3c-3.7,0-7-0.9-9.9-2.8c-2.9-1.8-5.2-4.5-6.9-8s-2.5-7.5-2.5-12.2s0.8-8.8,2.5-12.2s4-6.1,6.9-7.9
			c2.9-1.8,6.2-2.8,9.9-2.8C805.1,63,808,63.8,810.4,65.3z M799,77.9c-1.8,1.9-2.7,4.6-2.7,8s0.9,6.1,2.7,8s4.1,2.9,7.1,2.9
			c2.9,0,5.2-1,7.1-3c1.8-2,2.8-4.6,2.8-7.9c0-3.4-0.9-6-2.8-8c-1.8-1.9-4.2-2.9-7.1-2.9C803.1,75,800.8,76,799,77.9z"/>
		<path class="st2" d="M831.6,117.7h3.4c1.4,0,2.5-0.3,3.1-0.9s1-1.6,1-3.1V63.6h13.8v50c0,10.6-5.3,15.9-16,15.9h-5.2L831.6,117.7
			L831.6,117.7z M840,56.1c-1.5-1.4-2.2-3.1-2.2-5.1c0-2.1,0.7-3.8,2.2-5.2s3.5-2,5.9-2c2.5,0,4.4,0.7,5.9,2
			c1.5,1.4,2.2,3.1,2.2,5.2c0,2-0.7,3.7-2.2,5.1c-1.5,1.4-3.5,2-5.9,2C843.4,58.1,841.5,57.5,840,56.1z"/>
		<path class="st2" d="M887.9,65.3c2.5,1.5,4.3,3.7,5.4,6.3v-8.1h13.6v44.6h-13.6V100c-1.2,2.7-3,4.8-5.4,6.3
			c-2.5,1.5-5.4,2.3-8.8,2.3c-3.7,0-7-0.9-9.9-2.8c-2.9-1.8-5.2-4.5-6.9-8s-2.5-7.5-2.5-12.2s0.8-8.8,2.5-12.2s4-6.1,6.9-7.9
			c2.9-1.8,6.2-2.8,9.9-2.8C882.5,63,885.4,63.8,887.9,65.3z M876.4,77.9c-1.8,1.9-2.7,4.6-2.7,8s0.9,6.1,2.7,8s4.1,2.9,7.1,2.9
			c2.9,0,5.2-1,7.1-3c1.8-2,2.8-4.6,2.8-7.9c0-3.4-0.9-6-2.8-8c-1.8-1.9-4.2-2.9-7.1-2.9C880.5,75,878.2,76,876.4,77.9z"/>
		<path class="st2" d="M956.9,68.2c3,3.4,4.5,8.1,4.5,14.1v25.9h-13.7V83.9c0-3-0.8-5.3-2.4-7c-1.6-1.7-3.7-2.5-6.3-2.5
			c-2.8,0-5,0.9-6.6,2.6c-1.6,1.8-2.4,4.3-2.4,7.5v23.7h-13.7V63.6H930v8.2c1.3-2.7,3.2-4.8,5.7-6.3s5.5-2.3,8.9-2.3
			C949.8,63.1,953.8,64.8,956.9,68.2z"/>
		<path class="st2" d="M996.2,65.3c2.5,1.5,4.2,3.7,5.4,6.3V49h13.7v59.2h-13.7v-8.1c-1.1,2.7-2.9,4.8-5.4,6.3s-5.4,2.3-8.8,2.3
			c-3.7,0-7-0.9-9.9-2.8c-2.9-1.8-5.2-4.5-6.9-8s-2.5-7.5-2.5-12.2s0.8-8.8,2.5-12.2s4-6.1,6.9-7.9c2.9-1.8,6.2-2.8,9.9-2.8
			C990.8,63,993.7,63.8,996.2,65.3z M984.7,77.9c-1.8,1.9-2.7,4.6-2.7,8s0.9,6.1,2.7,8s4.1,2.9,7.1,2.9c2.9,0,5.2-1,7.1-3
			c1.8-2,2.8-4.6,2.8-7.9c0-3.4-0.9-6-2.8-8c-1.8-1.9-4.2-2.9-7.1-2.9C988.8,75,986.5,76,984.7,77.9z"/>
		<path class="st2" d="M1057.4,65.8c3.5,1.8,6.2,4.5,8.2,8s3,7.5,3,12.2c0,4.6-1,8.7-3,12.2s-4.7,6.1-8.2,8
			c-3.5,1.8-7.5,2.8-11.9,2.8s-8.4-0.9-11.9-2.8c-3.5-1.8-6.3-4.5-8.3-8s-3-7.5-3-12.2c0-4.6,1-8.7,3-12.2s4.8-6.1,8.3-8
			c3.5-1.8,7.5-2.8,11.9-2.8C1049.9,63,1053.9,63.9,1057.4,65.8z M1038.9,77.7c-1.8,1.9-2.7,4.6-2.7,8.2s0.9,6.3,2.7,8.2
			c1.8,1.9,4,2.8,6.6,2.8s4.8-0.9,6.6-2.8c1.8-1.9,2.6-4.6,2.6-8.2s-0.9-6.3-2.6-8.2c-1.8-1.9-3.9-2.8-6.6-2.8
			C1042.9,74.9,1040.7,75.8,1038.9,77.7z"/>
		<path class="st2" d="M1129.5,65.8c2.9,1.8,5.2,4.5,6.9,7.9s2.5,7.5,2.5,12.2c0,4.6-0.8,8.7-2.5,12.2s-4,6.1-6.9,8
			c-2.9,1.8-6.2,2.8-9.9,2.8c-3.4,0-6.3-0.8-8.8-2.3s-4.2-3.7-5.4-6.3v29.4h-13.7V63.6h13.7v8.1c1.1-2.7,2.9-4.8,5.4-6.3
			s5.4-2.3,8.8-2.3C1123.3,63,1126.6,63.9,1129.5,65.8z M1108.1,77.9c-1.8,1.9-2.8,4.6-2.8,8c0,3.3,0.9,5.9,2.8,7.9
			c1.8,2,4.2,3,7.1,3s5.3-1,7.1-2.9c1.8-1.9,2.7-4.6,2.7-8s-0.9-6.1-2.7-8c-1.8-1.9-4.1-2.9-7.1-2.9
			C1112.3,75,1109.9,76,1108.1,77.9z"/>
		<path class="st2" d="M1171.7,65.3c2.5,1.5,4.3,3.7,5.4,6.3v-8.1h13.6v44.6h-13.6V100c-1.2,2.7-3,4.8-5.4,6.3
			c-2.5,1.5-5.4,2.3-8.8,2.3c-3.7,0-7-0.9-9.9-2.8c-2.9-1.8-5.2-4.5-6.9-8c-1.7-3.5-2.5-7.5-2.5-12.2s0.8-8.8,2.5-12.2
			s4-6.1,6.9-7.9c2.9-1.8,6.2-2.8,9.9-2.8C1166.3,63,1169.3,63.8,1171.7,65.3z M1160.3,77.9c-1.8,1.9-2.7,4.6-2.7,8s0.9,6.1,2.7,8
			c1.8,1.9,4.1,2.9,7.1,2.9c2.9,0,5.2-1,7.1-3c1.8-2,2.8-4.6,2.8-7.9c0-3.4-0.9-6-2.8-8c-1.8-1.9-4.2-2.9-7.1-2.9
			C1164.4,75,1162,76,1160.3,77.9z"/>
		<path class="st2" d="M1220.5,65.5c2.7-1.6,5.6-2.4,8.8-2.4v14.6h-3.9c-3.6,0-6.4,0.8-8.4,2.3s-3,4.2-3,7.8v20.3h-13.7V63.6h13.7
			V72C1215.6,69.3,1217.8,67.1,1220.5,65.5z"/>
		<path class="st2" d="M1260.8,65.3c2.5,1.5,4.3,3.7,5.4,6.3v-8.1h13.6v44.6h-13.6V100c-1.2,2.7-3,4.8-5.4,6.3
			c-2.5,1.5-5.4,2.3-8.8,2.3c-3.7,0-7-0.9-9.9-2.8c-2.9-1.8-5.2-4.5-6.9-8c-1.7-3.5-2.5-7.5-2.5-12.2s0.8-8.8,2.5-12.2
			s4-6.1,6.9-7.9c2.9-1.8,6.2-2.8,9.9-2.8C1255.4,63,1258.3,63.8,1260.8,65.3z M1249.3,77.9c-1.8,1.9-2.7,4.6-2.7,8s0.9,6.1,2.7,8
			c1.8,1.9,4.1,2.9,7.1,2.9c2.9,0,5.2-1,7.1-3c1.8-2,2.8-4.6,2.8-7.9c0-3.4-0.9-6-2.8-8c-1.8-1.9-4.2-2.9-7.1-2.9
			C1253.4,75,1251.1,76,1249.3,77.9z"/>
		<path class="st2" d="M1376,68.2c3.1,3.4,4.7,8.1,4.7,14.1v25.9h-13.6V83.9c0-2.8-0.8-5-2.3-6.6s-3.6-2.4-6.2-2.4
			c-2.7,0-4.9,0.8-6.4,2.5c-1.6,1.7-2.4,4-2.4,7.1v23.7h-13.7V83.9c0-2.8-0.7-5-2.2-6.6s-3.5-2.4-6.2-2.4s-4.9,0.8-6.5,2.5
			s-2.4,4-2.4,7.1v23.7h-13.7V63.6h13.7v7.6c1.2-2.5,3-4.5,5.4-5.9s5.3-2.2,8.5-2.2c3.4,0,6.4,0.8,9,2.4s4.6,3.8,5.9,6.8
			c1.5-2.8,3.7-5,6.4-6.6c2.7-1.7,5.7-2.5,8.9-2.5C1368.5,63.1,1372.9,64.8,1376,68.2z"/>
		<path class="st2" d="M1422.6,65.8c3.5,1.8,6.2,4.5,8.2,8s3,7.5,3,12.2c0,4.6-1,8.7-3,12.2s-4.7,6.1-8.2,8
			c-3.5,1.8-7.5,2.8-11.9,2.8s-8.4-0.9-11.9-2.8c-3.5-1.8-6.3-4.5-8.3-8s-3-7.5-3-12.2c0-4.6,1-8.7,3-12.2s4.8-6.1,8.3-8
			c3.5-1.8,7.5-2.8,11.9-2.8C1415.1,63,1419.1,63.9,1422.6,65.8z M1404.1,77.7c-1.8,1.9-2.7,4.6-2.7,8.2s0.9,6.3,2.7,8.2
			c1.8,1.9,4,2.8,6.6,2.8s4.8-0.9,6.6-2.8c1.8-1.9,2.6-4.6,2.6-8.2s-0.9-6.3-2.6-8.2c-1.8-1.9-3.9-2.8-6.6-2.8
			C1408.1,74.9,1405.9,75.8,1404.1,77.7z"/>
		<path class="st2" d="M1470.8,67.3c3.4,2.8,5.5,6.6,6.4,11.2h-12.8c-0.4-1.8-1.2-3.2-2.5-4.3c-1.3-1-2.9-1.6-4.9-1.6
			c-1.5,0-2.7,0.3-3.5,1s-1.2,1.6-1.2,2.8c0,1.4,0.7,2.4,2.2,3.1s3.8,1.4,6.9,2.1c3.4,0.8,6.2,1.6,8.4,2.4c2.2,0.8,4.1,2.2,5.7,4
			c1.6,1.9,2.4,4.4,2.4,7.5c0,2.6-0.7,4.8-2.1,6.8s-3.4,3.5-6,4.6s-5.7,1.7-9.3,1.7c-6,0-10.9-1.3-14.5-4s-5.8-6.5-6.6-11.4h13.2
			c0.2,1.9,1,3.4,2.4,4.4s3.2,1.5,5.5,1.5c1.5,0,2.7-0.4,3.5-1.1s1.2-1.7,1.2-2.8c0-1.5-0.7-2.7-2.2-3.3c-1.5-0.7-3.9-1.4-7.2-2.1
			c-3.3-0.7-6-1.4-8.2-2.2s-4-2.1-5.5-3.9s-2.3-4.2-2.3-7.3c0-4,1.5-7.2,4.6-9.7c3-2.5,7.3-3.7,12.9-3.7
			C1462.8,63,1467.4,64.4,1470.8,67.3z"/>
		<path class="st2" d="M1510.6,96.5v11.8h-6.2c-5.2,0-9.3-1.3-12.2-3.9c-2.9-2.6-4.4-6.9-4.4-12.8V75.1h-6V63.6h6v-11h13.7v11h9
			v11.5h-9v16.6c0,1.8,0.4,3,1.1,3.7s1.9,1,3.6,1h4.4V96.5z"/>
		<path class="st2" d="M1538.6,65.5c2.7-1.6,5.6-2.4,8.8-2.4v14.6h-3.9c-3.6,0-6.4,0.8-8.4,2.3s-3,4.2-3,7.8v20.3h-13.7V63.6h13.7
			V72C1533.7,69.3,1535.9,67.1,1538.6,65.5z"/>
		<path class="st2" d="M1578.8,65.3c2.5,1.5,4.3,3.7,5.4,6.3v-8.1h13.6v44.6h-13.6V100c-1.2,2.7-3,4.8-5.4,6.3
			c-2.5,1.5-5.4,2.3-8.8,2.3c-3.7,0-7-0.9-9.9-2.8c-2.9-1.8-5.2-4.5-6.9-8c-1.7-3.5-2.5-7.5-2.5-12.2s0.8-8.8,2.5-12.2
			s4-6.1,6.9-7.9c2.9-1.8,6.2-2.8,9.9-2.8C1573.5,63,1576.4,63.8,1578.8,65.3z M1567.4,77.9c-1.8,1.9-2.7,4.6-2.7,8s0.9,6.1,2.7,8
			c1.8,1.9,4.1,2.9,7.1,2.9c2.9,0,5.2-1,7.1-3c1.8-2,2.8-4.6,2.8-7.9c0-3.4-0.9-6-2.8-8c-1.8-1.9-4.2-2.9-7.1-2.9
			C1571.5,75,1569.2,76,1567.4,77.9z"/>
		<path class="st2" d="M1627.6,65.5c2.7-1.6,5.6-2.4,8.8-2.4v14.6h-3.9c-3.6,0-6.4,0.8-8.4,2.3s-3,4.2-3,7.8v20.3h-13.7V63.6h13.7
			V72C1622.7,69.3,1624.9,67.1,1627.6,65.5z"/>
		<path class="st2" d="M1667.4,96.5v11.8h-6.2c-5.2,0-9.3-1.3-12.2-3.9c-2.9-2.6-4.4-6.9-4.4-12.8V75.1h-6V63.6h6v-11h13.7v11h9
			v11.5h-9v16.6c0,1.8,0.4,3,1.1,3.7s1.9,1,3.6,1h4.4V96.5z"/>
		<path class="st2" d="M1717.1,88.4h-31c0.2,3.4,1,5.8,2.6,7.2c1.5,1.5,3.5,2.2,5.9,2.2c2,0,3.7-0.5,5-1.5s2.2-2.3,2.6-3.9h14.5
			c-0.6,3.1-1.9,6-3.8,8.4c-2,2.5-4.5,4.4-7.5,5.8s-6.4,2.1-10.2,2.1c-4.4,0-8.3-0.9-11.6-2.8c-3.4-1.8-6-4.5-8-8
			c-1.9-3.5-2.9-7.5-2.9-12.2s0.9-8.8,2.8-12.2c1.9-3.4,4.5-6.1,8-7.9c3.4-1.8,7.3-2.8,11.7-2.8c4.4,0,8.3,0.9,11.7,2.7
			c3.4,1.8,6,4.4,7.8,7.6c1.8,3.3,2.8,7.1,2.8,11.3C1717.5,85.8,1717.3,87,1717.1,88.4z M1701.3,76c-1.6-1.5-3.6-2.2-6-2.2
			c-2.5,0-4.6,0.7-6.2,2.2c-1.7,1.5-2.6,3.7-2.8,6.6h17.4C1703.7,79.7,1702.9,77.5,1701.3,76z"/>
		<path class="st2" d="M250.7,164.2c3,3.4,4.5,8.1,4.5,14.1v25.9h-13.7v-24.3c0-3-0.8-5.3-2.4-7c-1.6-1.7-3.7-2.5-6.3-2.5
			c-2.8,0-5,0.9-6.6,2.6c-1.6,1.8-2.4,4.3-2.4,7.5v23.7h-13.7v-44.6h13.7v8.2c1.3-2.7,3.2-4.8,5.7-6.3s5.5-2.3,8.9-2.3
			C243.6,159.1,247.7,160.8,250.7,164.2z"/>
		<path class="st2" d="M308.6,159.6v44.6h-13.8v-8.1c-1.3,2.6-3.2,4.7-5.7,6.2s-5.5,2.3-8.8,2.3c-5.1,0-9.2-1.7-12.2-5.1
			c-3-3.4-4.5-8.1-4.5-14.1v-25.9h13.6v24.2c0,3,0.8,5.4,2.4,7.1c1.6,1.7,3.7,2.5,6.4,2.5c2.8,0,5-0.9,6.6-2.6s2.4-4.3,2.4-7.5
			v-23.7h13.6V159.6z"/>
		<path class="st2" d="M360.1,184.4h-31c0.2,3.4,1,5.8,2.6,7.2c1.5,1.5,3.5,2.2,5.9,2.2c2,0,3.7-0.5,5-1.5s2.2-2.3,2.6-3.9h14.5
			c-0.6,3.1-1.9,6-3.8,8.4c-2,2.5-4.5,4.4-7.5,5.8c-3,1.4-6.4,2.1-10.2,2.1c-4.4,0-8.3-0.9-11.6-2.8c-3.4-1.8-6-4.5-8-8
			c-1.9-3.5-2.9-7.5-2.9-12.2s0.9-8.8,2.8-12.2s4.5-6.1,8-7.9c3.4-1.8,7.3-2.8,11.7-2.8c4.4,0,8.3,0.9,11.7,2.7
			c3.4,1.8,6,4.4,7.8,7.6c1.8,3.3,2.8,7.1,2.8,11.3C360.5,181.8,360.3,183,360.1,184.4z M344.3,172c-1.6-1.5-3.6-2.2-6-2.2
			c-2.5,0-4.6,0.7-6.2,2.2c-1.7,1.5-2.6,3.7-2.8,6.6h17.4C346.7,175.7,345.9,173.5,344.3,172z"/>
		<path class="st2" d="M388.2,190.8l9.7-31.3h14.6l-15.8,44.6h-17l-15.8-44.6h14.6L388.2,190.8z"/>
		<path class="st2" d="M443.9,161.3c2.5,1.5,4.3,3.7,5.4,6.3v-8.1h13.6v44.6h-13.6V196c-1.2,2.7-3,4.8-5.4,6.3
			c-2.5,1.5-5.4,2.3-8.8,2.3c-3.7,0-7-0.9-9.9-2.8c-2.9-1.8-5.2-4.5-6.9-8c-1.7-3.5-2.5-7.5-2.5-12.2s0.8-8.8,2.5-12.2
			s4-6.1,6.9-7.9c2.9-1.8,6.2-2.8,9.9-2.8C438.5,159,441.4,159.8,443.9,161.3z M432.4,173.9c-1.8,1.9-2.7,4.6-2.7,8s0.9,6.1,2.7,8
			c1.8,1.9,4.1,2.9,7.1,2.9c2.9,0,5.2-1,7.1-3c1.8-2,2.8-4.6,2.8-7.9c0-3.4-0.9-6-2.8-8c-1.8-1.9-4.2-2.9-7.1-2.9
			C436.5,171,434.2,172,432.4,173.9z"/>
		<path class="st2" d="M502.1,163.2c3.4,2.8,5.5,6.6,6.4,11.2h-12.8c-0.4-1.8-1.2-3.2-2.5-4.3c-1.3-1-2.9-1.6-4.9-1.6
			c-1.5,0-2.7,0.3-3.5,1s-1.2,1.6-1.2,2.8c0,1.4,0.7,2.4,2.2,3.1c1.5,0.7,3.8,1.4,6.9,2.1c3.4,0.8,6.2,1.6,8.4,2.4
			c2.2,0.8,4.1,2.2,5.7,4c1.6,1.9,2.4,4.4,2.4,7.5c0,2.6-0.7,4.8-2.1,6.8s-3.4,3.5-6,4.6s-5.7,1.7-9.3,1.7c-6,0-10.9-1.3-14.5-4
			s-5.8-6.5-6.6-11.4h13.2c0.2,1.9,1,3.4,2.4,4.4s3.2,1.5,5.5,1.5c1.5,0,2.7-0.4,3.5-1.1c0.8-0.7,1.2-1.7,1.2-2.8
			c0-1.5-0.7-2.7-2.2-3.3c-1.5-0.7-3.9-1.4-7.2-2.1c-3.3-0.7-6-1.4-8.2-2.2c-2.1-0.8-4-2.1-5.5-3.9c-1.5-1.8-2.3-4.2-2.3-7.3
			c0-4,1.5-7.2,4.6-9.7c3-2.5,7.3-3.7,12.9-3.7C494.2,159,498.8,160.4,502.1,163.2z"/>
		<path class="st2" d="M574.7,184.4h-31c0.2,3.4,1,5.8,2.6,7.2c1.5,1.5,3.5,2.2,5.9,2.2c2,0,3.7-0.5,5-1.5s2.2-2.3,2.6-3.9h14.5
			c-0.6,3.1-1.9,6-3.8,8.4c-2,2.5-4.5,4.4-7.5,5.8c-3,1.4-6.4,2.1-10.2,2.1c-4.4,0-8.3-0.9-11.6-2.8c-3.4-1.8-6-4.5-8-8
			c-1.9-3.5-2.9-7.5-2.9-12.2s0.9-8.8,2.8-12.2c1.9-3.4,4.5-6.1,8-7.9c3.4-1.8,7.3-2.8,11.7-2.8s8.3,0.9,11.7,2.7s6,4.4,7.8,7.6
			c1.8,3.3,2.8,7.1,2.8,11.3C575.1,181.8,575,183,574.7,184.4z M558.9,172c-1.6-1.5-3.6-2.2-6-2.2c-2.5,0-4.6,0.7-6.2,2.2
			c-1.7,1.5-2.6,3.7-2.8,6.6h17.4C561.3,175.7,560.6,173.5,558.9,172z"/>
		<path class="st2" d="M612,163.2c3.4,2.8,5.5,6.6,6.4,11.2h-12.8c-0.4-1.8-1.2-3.2-2.5-4.3c-1.3-1-2.9-1.6-4.9-1.6
			c-1.5,0-2.7,0.3-3.5,1s-1.2,1.6-1.2,2.8c0,1.4,0.7,2.4,2.2,3.1c1.5,0.7,3.8,1.4,6.9,2.1c3.4,0.8,6.2,1.6,8.4,2.4
			c2.2,0.8,4.1,2.2,5.7,4c1.6,1.9,2.4,4.4,2.4,7.5c0,2.6-0.7,4.8-2.1,6.8c-1.4,2-3.4,3.5-6,4.6s-5.7,1.7-9.3,1.7
			c-6,0-10.9-1.3-14.5-4s-5.8-6.5-6.6-11.4h13.2c0.2,1.9,1,3.4,2.4,4.4s3.2,1.5,5.5,1.5c1.5,0,2.7-0.4,3.5-1.1
			c0.8-0.7,1.2-1.7,1.2-2.8c0-1.5-0.7-2.7-2.2-3.3c-1.5-0.7-3.9-1.4-7.2-2.1c-3.3-0.7-6-1.4-8.2-2.2c-2.1-0.8-4-2.1-5.5-3.9
			c-1.5-1.8-2.3-4.2-2.3-7.3c0-4,1.5-7.2,4.6-9.7c3-2.5,7.3-3.7,12.9-3.7C604.1,159,608.7,160.4,612,163.2z"/>
		<path class="st2" d="M651.9,192.4v11.8h-6.2c-5.2,0-9.3-1.3-12.2-3.9c-2.9-2.6-4.4-6.9-4.4-12.8v-16.4h-6v-11.5h6v-11h13.7v11h9
			v11.5h-9v16.6c0,1.8,0.4,3,1.1,3.7c0.7,0.7,1.9,1,3.6,1L651.9,192.4L651.9,192.4z"/>
		<path class="st2" d="M685.4,161.3c2.5,1.5,4.3,3.7,5.4,6.3v-8.1h13.6v44.6h-13.6V196c-1.2,2.7-3,4.8-5.4,6.3
			c-2.5,1.5-5.4,2.3-8.8,2.3c-3.7,0-7-0.9-9.9-2.8c-2.9-1.8-5.2-4.5-6.9-8s-2.5-7.5-2.5-12.2s0.8-8.8,2.5-12.2s4-6.1,6.9-7.9
			c2.9-1.8,6.2-2.8,9.9-2.8C680,159,682.9,159.8,685.4,161.3z M673.9,173.9c-1.8,1.9-2.7,4.6-2.7,8s0.9,6.1,2.7,8s4.1,2.9,7.1,2.9
			c2.9,0,5.2-1,7.1-3c1.8-2,2.8-4.6,2.8-7.9c0-3.4-0.9-6-2.8-8c-1.8-1.9-4.2-2.9-7.1-2.9C678,171,675.7,172,673.9,173.9z"/>
		<path class="st2" d="M739.6,161.3c2.5,1.5,4.2,3.7,5.4,6.3V145h13.7v59.2H745v-8.1c-1.1,2.7-2.9,4.8-5.4,6.3s-5.4,2.3-8.8,2.3
			c-3.7,0-7-0.9-9.9-2.8c-2.9-1.8-5.2-4.5-6.9-8s-2.5-7.5-2.5-12.2s0.8-8.8,2.5-12.2s4-6.1,6.9-7.9c2.9-1.8,6.2-2.8,9.9-2.8
			C734.2,159,737.1,159.8,739.6,161.3z M728.1,173.9c-1.8,1.9-2.7,4.6-2.7,8s0.9,6.1,2.7,8s4.1,2.9,7.1,2.9c2.9,0,5.2-1,7.1-3
			c1.8-2,2.8-4.6,2.8-7.9c0-3.4-0.9-6-2.8-8c-1.8-1.9-4.2-2.9-7.1-2.9C732.2,171,729.9,172,728.1,173.9z"/>
		<path class="st2" d="M787.9,148.1l-19.3,8.2V147l19.3-9.3V148.1z M783.3,159.6v44.6h-13.7v-44.6H783.3z"/>
		<path class="st2" d="M824,163.2c3.4,2.8,5.5,6.6,6.4,11.2h-12.8c-0.4-1.8-1.2-3.2-2.5-4.3c-1.3-1-2.9-1.6-4.9-1.6
			c-1.5,0-2.7,0.3-3.5,1s-1.2,1.6-1.2,2.8c0,1.4,0.7,2.4,2.2,3.1c1.5,0.7,3.8,1.4,6.9,2.1c3.4,0.8,6.2,1.6,8.4,2.4
			c2.2,0.8,4.1,2.2,5.7,4c1.6,1.9,2.4,4.4,2.4,7.5c0,2.6-0.7,4.8-2.1,6.8c-1.4,2-3.4,3.5-6,4.6s-5.7,1.7-9.3,1.7
			c-6,0-10.9-1.3-14.5-4s-5.8-6.5-6.6-11.4h13.2c0.2,1.9,1,3.4,2.4,4.4s3.2,1.5,5.5,1.5c1.5,0,2.7-0.4,3.5-1.1
			c0.8-0.7,1.2-1.7,1.2-2.8c0-1.5-0.7-2.7-2.2-3.3c-1.5-0.7-3.9-1.4-7.2-2.1c-3.3-0.7-6-1.4-8.2-2.2c-2.1-0.8-4-2.1-5.5-3.9
			c-1.5-1.8-2.3-4.2-2.3-7.3c0-4,1.5-7.2,4.6-9.7c3-2.5,7.3-3.7,12.9-3.7C816.1,159,820.6,160.4,824,163.2z"/>
		<path class="st2" d="M863.9,192.4v11.8h-6.2c-5.2,0-9.3-1.3-12.2-3.9c-2.9-2.6-4.4-6.9-4.4-12.8v-16.4h-6v-11.5h6v-11h13.7v11h9
			v11.5h-9v16.6c0,1.8,0.4,3,1.1,3.7c0.7,0.7,1.9,1,3.6,1L863.9,192.4L863.9,192.4z"/>
		<path class="st2" d="M872.5,141.8c1.5-1.4,3.5-2,5.9-2c2.5,0,4.4,0.7,5.9,2c1.5,1.4,2.2,3.1,2.2,5.2c0,2-0.7,3.7-2.2,5.1
			c-1.5,1.4-3.5,2-5.9,2c-2.5,0-4.4-0.7-5.9-2c-1.5-1.4-2.2-3.1-2.2-5.1C870.3,144.9,871,143.2,872.5,141.8z M885.2,159.6v44.6
			h-13.7v-44.6H885.2z"/>
		<path class="st2" d="M929.3,163.8c3.9,3.2,6.3,7.5,7.4,13.1h-14.5c-0.4-1.9-1.3-3.4-2.6-4.5s-3-1.6-5-1.6c-2.4,0-4.4,0.9-5.9,2.8
			c-1.5,1.9-2.3,4.7-2.3,8.3s0.8,6.4,2.3,8.3c1.5,1.9,3.5,2.8,5.9,2.8c2,0,3.7-0.5,5-1.6s2.2-2.6,2.6-4.5h14.5
			c-1,5.5-3.5,9.9-7.4,13.1c-3.9,3.2-8.7,4.8-14.5,4.8c-4.4,0-8.3-0.9-11.6-2.8c-3.4-1.8-6-4.5-8-8c-1.9-3.5-2.9-7.5-2.9-12.2
			s0.9-8.8,2.8-12.2c1.9-3.4,4.5-6.1,8-7.9c3.4-1.8,7.3-2.8,11.7-2.8C920.6,159,925.4,160.6,929.3,163.8z"/>
		<path class="st2" d="M969.5,161.3c2.5,1.5,4.3,3.7,5.4,6.3v-8.1h13.6v44.6H975V196c-1.2,2.7-3,4.8-5.4,6.3
			c-2.5,1.5-5.4,2.3-8.8,2.3c-3.7,0-7-0.9-9.9-2.8c-2.9-1.8-5.2-4.5-6.9-8s-2.5-7.5-2.5-12.2s0.8-8.8,2.5-12.2s4-6.1,6.9-7.9
			c2.9-1.8,6.2-2.8,9.9-2.8C964.1,159,967.1,159.8,969.5,161.3z M958.1,173.9c-1.8,1.9-2.7,4.6-2.7,8s0.9,6.1,2.7,8s4.1,2.9,7.1,2.9
			c2.9,0,5.2-1,7.1-3c1.8-2,2.8-4.6,2.8-7.9c0-3.4-0.9-6-2.8-8c-1.8-1.9-4.2-2.9-7.1-2.9C962.2,171,959.8,172,958.1,173.9z"/>
		<path class="st2" d="M1027.8,163.2c3.4,2.8,5.5,6.6,6.4,11.2h-12.8c-0.4-1.8-1.2-3.2-2.5-4.3c-1.3-1-2.9-1.6-4.9-1.6
			c-1.5,0-2.7,0.3-3.5,1s-1.2,1.6-1.2,2.8c0,1.4,0.7,2.4,2.2,3.1c1.5,0.7,3.8,1.4,6.9,2.1c3.4,0.8,6.2,1.6,8.4,2.4
			c2.2,0.8,4.1,2.2,5.7,4c1.6,1.9,2.4,4.4,2.4,7.5c0,2.6-0.7,4.8-2.1,6.8s-3.4,3.5-6,4.6s-5.7,1.7-9.3,1.7c-6,0-10.9-1.3-14.5-4
			s-5.8-6.5-6.6-11.4h13.2c0.2,1.9,1,3.4,2.4,4.4s3.2,1.5,5.5,1.5c1.5,0,2.7-0.4,3.5-1.1c0.8-0.7,1.2-1.7,1.2-2.8
			c0-1.5-0.7-2.7-2.2-3.3c-1.5-0.7-3.9-1.4-7.2-2.1c-3.3-0.7-6-1.4-8.2-2.2c-2.1-0.8-4-2.1-5.5-3.9c-1.5-1.8-2.3-4.2-2.3-7.3
			c0-4,1.5-7.2,4.6-9.7c3-2.5,7.3-3.7,12.9-3.7C1019.9,159,1024.4,160.4,1027.8,163.2z"/>
		<path class="st2" d="M1100.4,184.4h-31c0.2,3.4,1,5.8,2.6,7.2c1.5,1.5,3.5,2.2,5.9,2.2c2,0,3.7-0.5,5-1.5s2.2-2.3,2.6-3.9h14.5
			c-0.6,3.1-1.9,6-3.8,8.4c-2,2.5-4.5,4.4-7.5,5.8c-3,1.4-6.4,2.1-10.2,2.1c-4.4,0-8.3-0.9-11.6-2.8c-3.4-1.8-6-4.5-8-8
			c-1.9-3.5-2.9-7.5-2.9-12.2s0.9-8.8,2.8-12.2s4.5-6.1,8-7.9c3.4-1.8,7.3-2.8,11.7-2.8c4.4,0,8.3,0.9,11.7,2.7
			c3.4,1.8,6,4.4,7.8,7.6s2.8,7.1,2.8,11.3C1100.8,181.8,1100.7,183,1100.4,184.4z M1084.6,172c-1.6-1.5-3.6-2.2-6-2.2
			c-2.5,0-4.6,0.7-6.2,2.2c-1.7,1.5-2.6,3.7-2.8,6.6h17.4C1087,175.7,1086.2,173.5,1084.6,172z"/>
		<path class="st2" d="M1148.4,164.2c3,3.4,4.5,8.1,4.5,14.1v25.9h-13.7v-24.3c0-3-0.8-5.3-2.4-7s-3.7-2.5-6.3-2.5
			c-2.8,0-5,0.9-6.6,2.6c-1.6,1.8-2.4,4.3-2.4,7.5v23.7h-13.7v-44.6h13.7v8.2c1.3-2.7,3.2-4.8,5.7-6.3s5.5-2.3,8.9-2.3
			C1141.3,159.1,1145.4,160.8,1148.4,164.2z"/>
		<path class="st2" d="M1203.2,192.4v11.8h-6.2c-5.2,0-9.3-1.3-12.2-3.9c-2.9-2.6-4.4-6.9-4.4-12.8v-16.4h-6v-11.5h6v-11h13.7v11h9
			v11.5h-9v16.6c0,1.8,0.4,3,1.1,3.7s1.9,1,3.6,1L1203.2,192.4L1203.2,192.4z"/>
		<path class="st2" d="M1255.3,159.6v44.6h-13.8v-8.1c-1.3,2.6-3.2,4.7-5.7,6.2s-5.5,2.3-8.8,2.3c-5.1,0-9.2-1.7-12.2-5.1
			c-3-3.4-4.5-8.1-4.5-14.1v-25.9h13.6v24.2c0,3,0.8,5.4,2.4,7.1c1.6,1.7,3.7,2.5,6.4,2.5c2.8,0,5-0.9,6.6-2.6
			c1.6-1.8,2.4-4.3,2.4-7.5v-23.7h13.6V159.6z"/>
		<path class="st2" d="M1306.5,161.3c2.5,1.5,4.2,3.7,5.4,6.3V145h13.7v59.2h-13.7v-8.1c-1.1,2.7-2.9,4.8-5.4,6.3s-5.4,2.3-8.8,2.3
			c-3.7,0-7-0.9-9.9-2.8c-2.9-1.8-5.2-4.5-6.9-8c-1.7-3.5-2.5-7.5-2.5-12.2s0.8-8.8,2.5-12.2s4-6.1,6.9-7.9c2.9-1.8,6.2-2.8,9.9-2.8
			C1301.1,159,1304,159.8,1306.5,161.3z M1295,173.9c-1.8,1.9-2.7,4.6-2.7,8s0.9,6.1,2.7,8c1.8,1.9,4.1,2.9,7.1,2.9
			c2.9,0,5.2-1,7.1-3c1.8-2,2.8-4.6,2.8-7.9c0-3.4-0.9-6-2.8-8c-1.8-1.9-4.2-2.9-7.1-2.9S1296.8,172,1295,173.9z"/>
		<path class="st2" d="M1360.7,161.3c2.5,1.5,4.3,3.7,5.4,6.3v-8.1h13.6v44.6h-13.6V196c-1.2,2.7-3,4.8-5.4,6.3
			c-2.5,1.5-5.4,2.3-8.8,2.3c-3.7,0-7-0.9-9.9-2.8c-2.9-1.8-5.2-4.5-6.9-8c-1.7-3.5-2.5-7.5-2.5-12.2s0.8-8.8,2.5-12.2
			s4-6.1,6.9-7.9c2.9-1.8,6.2-2.8,9.9-2.8C1355.3,159,1358.3,159.8,1360.7,161.3z M1349.3,173.9c-1.8,1.9-2.7,4.6-2.7,8
			s0.9,6.1,2.7,8c1.8,1.9,4.1,2.9,7.1,2.9c2.9,0,5.2-1,7.1-3c1.8-2,2.8-4.6,2.8-7.9c0-3.4-0.9-6-2.8-8c-1.8-1.9-4.2-2.9-7.1-2.9
			C1353.4,171,1351,172,1349.3,173.9z"/>
		<path class="st2" d="M1419,163.2c3.4,2.8,5.5,6.6,6.4,11.2h-12.8c-0.4-1.8-1.2-3.2-2.5-4.3s-2.9-1.6-4.9-1.6c-1.5,0-2.7,0.3-3.5,1
			s-1.2,1.6-1.2,2.8c0,1.4,0.7,2.4,2.2,3.1c1.5,0.7,3.8,1.4,6.9,2.1c3.4,0.8,6.2,1.6,8.4,2.4c2.2,0.8,4.1,2.2,5.7,4
			c1.6,1.9,2.4,4.4,2.4,7.5c0,2.6-0.7,4.8-2.1,6.8s-3.4,3.5-6,4.6s-5.7,1.7-9.3,1.7c-6,0-10.9-1.3-14.5-4s-5.8-6.5-6.6-11.4h13.2
			c0.2,1.9,1,3.4,2.4,4.4s3.2,1.5,5.5,1.5c1.5,0,2.7-0.4,3.5-1.1s1.2-1.7,1.2-2.8c0-1.5-0.7-2.7-2.2-3.3c-1.5-0.7-3.9-1.4-7.2-2.1
			c-3.3-0.7-6-1.4-8.2-2.2s-4-2.1-5.5-3.9c-1.5-1.8-2.3-4.2-2.3-7.3c0-4,1.5-7.2,4.6-9.7c3-2.5,7.3-3.7,12.9-3.7
			C1411.1,159,1415.6,160.4,1419,163.2z"/>
		<path class="st2" d="M1474.1,164.2c3,3.4,4.5,8.1,4.5,14.1v25.9h-13.7v-24.3c0-3-0.8-5.3-2.4-7s-3.7-2.5-6.3-2.5
			c-2.8,0-5,0.9-6.6,2.6c-1.6,1.8-2.4,4.3-2.4,7.5v23.7h-13.7V145h13.7v22.7c1.3-2.7,3.2-4.8,5.7-6.3s5.5-2.3,8.9-2.3
			C1467,159.1,1471.1,160.8,1474.1,164.2z"/>
		<path class="st2" d="M1525.4,161.8c2.9,1.8,5.2,4.5,6.9,7.9c1.7,3.4,2.5,7.5,2.5,12.2c0,4.6-0.8,8.7-2.5,12.2s-4,6.1-6.9,8
			c-2.9,1.8-6.2,2.8-9.9,2.8c-3.4,0-6.3-0.8-8.8-2.3s-4.2-3.7-5.4-6.3v8.1h-13.7V145h13.7v22.6c1.1-2.7,2.9-4.8,5.4-6.3
			s5.4-2.3,8.8-2.3C1519.2,159,1522.5,159.9,1525.4,161.8z M1504,173.9c-1.8,1.9-2.8,4.6-2.8,8c0,3.3,0.9,5.9,2.8,7.9
			c1.8,2,4.2,3,7.1,3s5.3-1,7.1-2.9c1.8-1.9,2.7-4.6,2.7-8s-0.9-6.1-2.7-8c-1.8-1.9-4.1-2.9-7.1-2.9
			C1508.2,171,1505.9,172,1504,173.9z"/>
		<path class="st2" d="M1574.6,161.8c3.5,1.8,6.2,4.5,8.2,8s3,7.5,3,12.2c0,4.6-1,8.7-3,12.2s-4.7,6.1-8.2,8
			c-3.5,1.8-7.5,2.8-11.9,2.8s-8.4-0.9-11.9-2.8c-3.5-1.8-6.3-4.5-8.3-8s-3-7.5-3-12.2c0-4.6,1-8.7,3-12.2s4.8-6.1,8.3-8
			c3.5-1.8,7.5-2.8,11.9-2.8C1567.2,159,1571.2,159.9,1574.6,161.8z M1556.2,173.7c-1.8,1.9-2.7,4.6-2.7,8.2c0,3.6,0.9,6.3,2.7,8.2
			c1.8,1.9,4,2.8,6.6,2.8s4.8-0.9,6.6-2.8c1.8-1.9,2.6-4.6,2.6-8.2c0-3.6-0.9-6.3-2.6-8.2c-1.8-1.9-3.9-2.8-6.6-2.8
			C1560.2,170.8,1558,171.8,1556.2,173.7z"/>
		<path class="st2" d="M1618.8,161.3c2.5,1.5,4.3,3.7,5.4,6.3v-8.1h13.6v44.6h-13.6V196c-1.2,2.7-3,4.8-5.4,6.3
			c-2.5,1.5-5.4,2.3-8.8,2.3c-3.7,0-7-0.9-9.9-2.8c-2.9-1.8-5.2-4.5-6.9-8c-1.7-3.5-2.5-7.5-2.5-12.2s0.8-8.8,2.5-12.2
			s4-6.1,6.9-7.9c2.9-1.8,6.2-2.8,9.9-2.8C1613.4,159,1616.3,159.8,1618.8,161.3z M1607.3,173.9c-1.8,1.9-2.7,4.6-2.7,8
			s0.9,6.1,2.7,8c1.8,1.9,4.1,2.9,7.1,2.9c2.9,0,5.2-1,7.1-3c1.8-2,2.8-4.6,2.8-7.9c0-3.4-0.9-6-2.8-8c-1.8-1.9-4.2-2.9-7.1-2.9
			C1611.4,171,1609.1,172,1607.3,173.9z"/>
		<path class="st2" d="M1667.5,161.5c2.7-1.6,5.6-2.4,8.8-2.4v14.6h-3.9c-3.6,0-6.4,0.8-8.4,2.3s-3,4.2-3,7.8v20.3h-13.7v-44.6h13.7
			v8.4C1662.6,165.2,1664.8,163.1,1667.5,161.5z"/>
		<path class="st2" d="M1707.8,161.3c2.5,1.5,4.2,3.7,5.4,6.3V145h13.7v59.2h-13.7v-8.1c-1.1,2.7-2.9,4.8-5.4,6.3s-5.4,2.3-8.8,2.3
			c-3.7,0-7-0.9-9.9-2.8c-2.9-1.8-5.2-4.5-6.9-8c-1.7-3.5-2.5-7.5-2.5-12.2s0.8-8.8,2.5-12.2s4-6.1,6.9-7.9c2.9-1.8,6.2-2.8,9.9-2.8
			C1702.4,159,1705.3,159.8,1707.8,161.3z M1696.3,173.9c-1.8,1.9-2.7,4.6-2.7,8s0.9,6.1,2.7,8c1.8,1.9,4.1,2.9,7.1,2.9
			c2.9,0,5.2-1,7.1-3c1.8-2,2.8-4.6,2.8-7.9c0-3.4-0.9-6-2.8-8c-1.8-1.9-4.2-2.9-7.1-2.9C1700.4,171,1698.1,172,1696.3,173.9z"/>
	</g>
</g>
<g>
	<path class="st2" d="M52.9,238.2l-15-15l15-15l15,15L52.9,238.2z M39,223.3l13.9,13.9l13.9-13.9l-13.9-13.9L39,223.3z"/>
</g>
<g>
	<path class="st2" d="M1729.2,422.2c-11.3-14.2-22.9-28.9-29.5-46.2c-7.3-19.2-6.4-39.1,2.5-53.3c12.7-20.3,39.2-26.9,58-30.1
		c2.8-0.5,5.7-0.9,8.6-1.4c19.3-3.1,39.2-6.3,54.7-17.9c12-9,19.9-22.2,27.6-35c6.9-11.4,14-23.1,23.9-32.1
		c35.5-31.9,92-17,122.5-5.3c6.3,2.4,12.7,5,18.9,7.5c33.9,13.7,69,27.9,104.5,21.4c16.9-3.1,30.3-10.9,37.8-22
		c8.9-13.1,7.8-31.5-2.3-41c-10.6-10-27.2-9.2-41.8-8.6l-2.6,0.1c-15,0.6-34.4-1.7-41.4-16.4l-0.1-0.3l0.3-0.2
		c8.5-6.2,18.2-13.2,23.5-23.1c4.9-9.2,5.4-22.9-3.4-30.2c-10.1-8.5-25.4-3.7-36.4,1.9c-8.2,4.1-16.2,8.8-24,13.4
		c-10.7,6.3-21.8,12.8-33.4,17.8c-13.7,5.8-40.2,14-63.6,3.3c-11.1-5.1-20.2-15.1-24.4-26.8c-3.4-9.5-3.1-19.3,0.9-27.4
		c9.8-19.9,35.1-24.7,58.2-27.7c43.1-5.6,91.3-15.8,122.1-49c22.4-24.2,32.6-59.4,26.7-91.8c-5.9-32.4-28-61.7-57.5-76.4l0.4-0.8
		c29.8,14.8,52,44.3,58,77s-4.3,68.1-26.9,92.5c-30.9,33.4-79.3,43.7-122.6,49.3c-22.8,3-47.9,7.8-57.5,27.2
		c-3.9,7.9-4.2,17.4-0.9,26.7c4.1,11.5,13.1,21.4,24,26.4c23.2,10.6,49.4,2.4,63-3.3c11.6-4.9,22.6-11.4,33.3-17.7
		c7.8-4.6,15.8-9.3,24-13.4c11.2-5.6,26.9-10.5,37.3-1.7c9.1,7.6,8.7,21.8,3.6,31.3c-5.4,10-15,17-23.5,23.2
		c6.9,14,25.8,16.2,40.4,15.6l2.6-0.1c14.8-0.7,31.5-1.4,42.4,8.8c10.4,9.8,11.5,28.7,2.5,42.1c-7.6,11.2-21.2,19.2-38.4,22.4
		c-35.7,6.6-70.9-7.6-105-21.4c-6.2-2.5-12.6-5.1-18.8-7.5c-30.3-11.6-86.5-26.4-121.6,5.1c-9.9,8.9-16.9,20.6-23.8,31.9
		c-7.8,12.8-15.8,26.1-27.9,35.2c-15.6,11.8-35.7,15-55.1,18.1c-2.9,0.5-5.7,0.9-8.6,1.4c-18.6,3.2-44.9,9.7-57.4,29.7
		c-8.7,13.9-9.6,33.6-2.4,52.5c6.5,17.2,18.2,31.8,29.4,46L1729.2,422.2z"/>
</g>
<image style="overflow:visible;enable-background:new    ;" width="324" height="244" id="Capa_3" xlink:href="B8CD9DC8.png"  transform="matrix(0.9969 0 0 0.9969 1842.5588 13.3765)">
</image>
<rect x="-14" y="-15" class="st3" width="2212" height="300"/>
</svg>
